%
M48
M72
T01C0.01969
T02C0.03150
T03C0.03200
T04C0.03937
T05C0.04000
T06C0.07480
%
T01
X41800Y46800
X81800Y26800
X106800Y51800
X126800Y136800
X151800Y141800
X181800Y141800
X166800Y176800
X111800Y176800
X61800Y176800
T02
X28650Y166446
X25501Y161721
X31800Y161721
X34950Y166446
X38099Y161721
X68926Y191800
X76800Y191800
X84674Y191800
T03
X91800Y161800
X91800Y151800
X91800Y141800
X91800Y131800
X91800Y121800
X91800Y111800
X91800Y101800
X91800Y91800
X91800Y81800
X91800Y71800
X91800Y61800
X91800Y51800
X91800Y41800
X91800Y31800
X76800Y41800
X76800Y51800
X66800Y61800
X66800Y76800
X26800Y76800
X26800Y61800
X121800Y61800
X121800Y51800
X121800Y41800
X121800Y31800
X126800Y16800
X136800Y16800
X146800Y31800
X161800Y16800
X171800Y16800
X171800Y31800
X171800Y71800
X166800Y91800
X146800Y91800
X146800Y71800
X121800Y71800
X121800Y81800
X121800Y91800
X121800Y101800
X121800Y111800
X121800Y121800
X121800Y131800
X121800Y141800
X121800Y151800
X121800Y161800
X146800Y156800
X146800Y166800
X136800Y186800
X131800Y194300
X126800Y186800
X166800Y166800
X176800Y166800
X166800Y146800
X166800Y136800
X166800Y116800
X146800Y116800
T04
X61052Y191800
X92548Y191800
T05
X16800Y144300
X16800Y134300
X16800Y124300
X16800Y114300
X16800Y104300
X16800Y94300
X16800Y84300
X16800Y74300
X26800Y36800
X26800Y16800
X51800Y16800
X51800Y36800
X76800Y66800
X76800Y76800
X76800Y86800
X196800Y86800
X196800Y76800
X196800Y96800
X196800Y106800
X196800Y116800
X196800Y126800
X196800Y136800
X196800Y146800
X196800Y156800
X196800Y166800
X196800Y176800
X196800Y186800
X196800Y196800
T06
X17430Y181800
X46170Y181800
M30
