G75*
%MOIN*%
%OFA0B0*%
%FSLAX25Y25*%
%IPPOS*%
%LPD*%
%AMOC8*
5,1,8,0,0,1.08239X$1,22.5*
%
%ADD10C,0.00000*%
%ADD11C,0.00600*%
%ADD12C,0.01000*%
%ADD13C,0.00500*%
%ADD14R,0.02000X0.10000*%
%ADD15C,0.00400*%
%ADD16R,0.02400X0.03400*%
%ADD17R,0.03400X0.02400*%
%ADD18C,0.00700*%
%ADD19C,0.01600*%
%ADD20C,0.00800*%
D10*
X0006800Y0006800D02*
X0006800Y0203650D01*
X0203650Y0203650D01*
X0203650Y0006800D01*
X0006800Y0006800D01*
D11*
X0035300Y0057300D02*
X0036800Y0057300D01*
X0037300Y0057800D01*
X0056300Y0057800D01*
X0056800Y0057300D01*
X0058300Y0057300D01*
X0058360Y0057302D01*
X0058421Y0057307D01*
X0058480Y0057316D01*
X0058539Y0057329D01*
X0058598Y0057345D01*
X0058655Y0057365D01*
X0058710Y0057388D01*
X0058765Y0057415D01*
X0058817Y0057444D01*
X0058868Y0057477D01*
X0058917Y0057513D01*
X0058963Y0057551D01*
X0059007Y0057593D01*
X0059049Y0057637D01*
X0059087Y0057683D01*
X0059123Y0057732D01*
X0059156Y0057783D01*
X0059185Y0057835D01*
X0059212Y0057890D01*
X0059235Y0057945D01*
X0059255Y0058002D01*
X0059271Y0058061D01*
X0059284Y0058120D01*
X0059293Y0058179D01*
X0059298Y0058240D01*
X0059300Y0058300D01*
X0059300Y0065300D01*
X0059298Y0065360D01*
X0059293Y0065421D01*
X0059284Y0065480D01*
X0059271Y0065539D01*
X0059255Y0065598D01*
X0059235Y0065655D01*
X0059212Y0065710D01*
X0059185Y0065765D01*
X0059156Y0065817D01*
X0059123Y0065868D01*
X0059087Y0065917D01*
X0059049Y0065963D01*
X0059007Y0066007D01*
X0058963Y0066049D01*
X0058917Y0066087D01*
X0058868Y0066123D01*
X0058817Y0066156D01*
X0058765Y0066185D01*
X0058710Y0066212D01*
X0058655Y0066235D01*
X0058598Y0066255D01*
X0058539Y0066271D01*
X0058480Y0066284D01*
X0058421Y0066293D01*
X0058360Y0066298D01*
X0058300Y0066300D01*
X0056800Y0066300D01*
X0056300Y0065800D01*
X0037300Y0065800D01*
X0036800Y0066300D01*
X0035300Y0066300D01*
X0035240Y0066298D01*
X0035179Y0066293D01*
X0035120Y0066284D01*
X0035061Y0066271D01*
X0035002Y0066255D01*
X0034945Y0066235D01*
X0034890Y0066212D01*
X0034835Y0066185D01*
X0034783Y0066156D01*
X0034732Y0066123D01*
X0034683Y0066087D01*
X0034637Y0066049D01*
X0034593Y0066007D01*
X0034551Y0065963D01*
X0034513Y0065917D01*
X0034477Y0065868D01*
X0034444Y0065817D01*
X0034415Y0065765D01*
X0034388Y0065710D01*
X0034365Y0065655D01*
X0034345Y0065598D01*
X0034329Y0065539D01*
X0034316Y0065480D01*
X0034307Y0065421D01*
X0034302Y0065360D01*
X0034300Y0065300D01*
X0034300Y0058300D01*
X0034302Y0058240D01*
X0034307Y0058179D01*
X0034316Y0058120D01*
X0034329Y0058061D01*
X0034345Y0058002D01*
X0034365Y0057945D01*
X0034388Y0057890D01*
X0034415Y0057835D01*
X0034444Y0057783D01*
X0034477Y0057732D01*
X0034513Y0057683D01*
X0034551Y0057637D01*
X0034593Y0057593D01*
X0034637Y0057551D01*
X0034683Y0057513D01*
X0034732Y0057477D01*
X0034783Y0057444D01*
X0034835Y0057415D01*
X0034890Y0057388D01*
X0034945Y0057365D01*
X0035002Y0057345D01*
X0035061Y0057329D01*
X0035120Y0057316D01*
X0035179Y0057307D01*
X0035240Y0057302D01*
X0035300Y0057300D01*
X0035300Y0072300D02*
X0036800Y0072300D01*
X0037300Y0072800D01*
X0056300Y0072800D01*
X0056800Y0072300D01*
X0058300Y0072300D01*
X0058360Y0072302D01*
X0058421Y0072307D01*
X0058480Y0072316D01*
X0058539Y0072329D01*
X0058598Y0072345D01*
X0058655Y0072365D01*
X0058710Y0072388D01*
X0058765Y0072415D01*
X0058817Y0072444D01*
X0058868Y0072477D01*
X0058917Y0072513D01*
X0058963Y0072551D01*
X0059007Y0072593D01*
X0059049Y0072637D01*
X0059087Y0072683D01*
X0059123Y0072732D01*
X0059156Y0072783D01*
X0059185Y0072835D01*
X0059212Y0072890D01*
X0059235Y0072945D01*
X0059255Y0073002D01*
X0059271Y0073061D01*
X0059284Y0073120D01*
X0059293Y0073179D01*
X0059298Y0073240D01*
X0059300Y0073300D01*
X0059300Y0080300D01*
X0059298Y0080360D01*
X0059293Y0080421D01*
X0059284Y0080480D01*
X0059271Y0080539D01*
X0059255Y0080598D01*
X0059235Y0080655D01*
X0059212Y0080710D01*
X0059185Y0080765D01*
X0059156Y0080817D01*
X0059123Y0080868D01*
X0059087Y0080917D01*
X0059049Y0080963D01*
X0059007Y0081007D01*
X0058963Y0081049D01*
X0058917Y0081087D01*
X0058868Y0081123D01*
X0058817Y0081156D01*
X0058765Y0081185D01*
X0058710Y0081212D01*
X0058655Y0081235D01*
X0058598Y0081255D01*
X0058539Y0081271D01*
X0058480Y0081284D01*
X0058421Y0081293D01*
X0058360Y0081298D01*
X0058300Y0081300D01*
X0056800Y0081300D01*
X0056300Y0080800D01*
X0037300Y0080800D01*
X0036800Y0081300D01*
X0035300Y0081300D01*
X0035240Y0081298D01*
X0035179Y0081293D01*
X0035120Y0081284D01*
X0035061Y0081271D01*
X0035002Y0081255D01*
X0034945Y0081235D01*
X0034890Y0081212D01*
X0034835Y0081185D01*
X0034783Y0081156D01*
X0034732Y0081123D01*
X0034683Y0081087D01*
X0034637Y0081049D01*
X0034593Y0081007D01*
X0034551Y0080963D01*
X0034513Y0080917D01*
X0034477Y0080868D01*
X0034444Y0080817D01*
X0034415Y0080765D01*
X0034388Y0080710D01*
X0034365Y0080655D01*
X0034345Y0080598D01*
X0034329Y0080539D01*
X0034316Y0080480D01*
X0034307Y0080421D01*
X0034302Y0080360D01*
X0034300Y0080300D01*
X0034300Y0073300D01*
X0034302Y0073240D01*
X0034307Y0073179D01*
X0034316Y0073120D01*
X0034329Y0073061D01*
X0034345Y0073002D01*
X0034365Y0072945D01*
X0034388Y0072890D01*
X0034415Y0072835D01*
X0034444Y0072783D01*
X0034477Y0072732D01*
X0034513Y0072683D01*
X0034551Y0072637D01*
X0034593Y0072593D01*
X0034637Y0072551D01*
X0034683Y0072513D01*
X0034732Y0072477D01*
X0034783Y0072444D01*
X0034835Y0072415D01*
X0034890Y0072388D01*
X0034945Y0072365D01*
X0035002Y0072345D01*
X0035061Y0072329D01*
X0035120Y0072316D01*
X0035179Y0072307D01*
X0035240Y0072302D01*
X0035300Y0072300D01*
X0071800Y0055300D02*
X0071800Y0038300D01*
X0071802Y0038240D01*
X0071807Y0038179D01*
X0071816Y0038120D01*
X0071829Y0038061D01*
X0071845Y0038002D01*
X0071865Y0037945D01*
X0071888Y0037890D01*
X0071915Y0037835D01*
X0071944Y0037783D01*
X0071977Y0037732D01*
X0072013Y0037683D01*
X0072051Y0037637D01*
X0072093Y0037593D01*
X0072137Y0037551D01*
X0072183Y0037513D01*
X0072232Y0037477D01*
X0072283Y0037444D01*
X0072335Y0037415D01*
X0072390Y0037388D01*
X0072445Y0037365D01*
X0072502Y0037345D01*
X0072561Y0037329D01*
X0072620Y0037316D01*
X0072679Y0037307D01*
X0072740Y0037302D01*
X0072800Y0037300D01*
X0080800Y0037300D01*
X0080860Y0037302D01*
X0080921Y0037307D01*
X0080980Y0037316D01*
X0081039Y0037329D01*
X0081098Y0037345D01*
X0081155Y0037365D01*
X0081210Y0037388D01*
X0081265Y0037415D01*
X0081317Y0037444D01*
X0081368Y0037477D01*
X0081417Y0037513D01*
X0081463Y0037551D01*
X0081507Y0037593D01*
X0081549Y0037637D01*
X0081587Y0037683D01*
X0081623Y0037732D01*
X0081656Y0037783D01*
X0081685Y0037835D01*
X0081712Y0037890D01*
X0081735Y0037945D01*
X0081755Y0038002D01*
X0081771Y0038061D01*
X0081784Y0038120D01*
X0081793Y0038179D01*
X0081798Y0038240D01*
X0081800Y0038300D01*
X0081800Y0055300D01*
X0081798Y0055360D01*
X0081793Y0055421D01*
X0081784Y0055480D01*
X0081771Y0055539D01*
X0081755Y0055598D01*
X0081735Y0055655D01*
X0081712Y0055710D01*
X0081685Y0055765D01*
X0081656Y0055817D01*
X0081623Y0055868D01*
X0081587Y0055917D01*
X0081549Y0055963D01*
X0081507Y0056007D01*
X0081463Y0056049D01*
X0081417Y0056087D01*
X0081368Y0056123D01*
X0081317Y0056156D01*
X0081265Y0056185D01*
X0081210Y0056212D01*
X0081155Y0056235D01*
X0081098Y0056255D01*
X0081039Y0056271D01*
X0080980Y0056284D01*
X0080921Y0056293D01*
X0080860Y0056298D01*
X0080800Y0056300D01*
X0072800Y0056300D01*
X0072740Y0056298D01*
X0072679Y0056293D01*
X0072620Y0056284D01*
X0072561Y0056271D01*
X0072502Y0056255D01*
X0072445Y0056235D01*
X0072390Y0056212D01*
X0072335Y0056185D01*
X0072283Y0056156D01*
X0072232Y0056123D01*
X0072183Y0056087D01*
X0072137Y0056049D01*
X0072093Y0056007D01*
X0072051Y0055963D01*
X0072013Y0055917D01*
X0071977Y0055868D01*
X0071944Y0055817D01*
X0071915Y0055765D01*
X0071888Y0055710D01*
X0071865Y0055655D01*
X0071845Y0055598D01*
X0071829Y0055539D01*
X0071816Y0055480D01*
X0071807Y0055421D01*
X0071802Y0055360D01*
X0071800Y0055300D01*
X0076800Y0048300D02*
X0076800Y0047800D01*
X0076800Y0045800D02*
X0076800Y0045300D01*
X0096800Y0026800D02*
X0096800Y0166300D01*
X0096800Y0166800D02*
X0101800Y0166800D01*
X0101802Y0166660D01*
X0101808Y0166520D01*
X0101818Y0166380D01*
X0101831Y0166240D01*
X0101849Y0166101D01*
X0101871Y0165962D01*
X0101896Y0165825D01*
X0101925Y0165687D01*
X0101958Y0165551D01*
X0101995Y0165416D01*
X0102036Y0165282D01*
X0102081Y0165149D01*
X0102129Y0165017D01*
X0102181Y0164887D01*
X0102236Y0164758D01*
X0102295Y0164631D01*
X0102358Y0164505D01*
X0102424Y0164381D01*
X0102493Y0164260D01*
X0102566Y0164140D01*
X0102643Y0164022D01*
X0102722Y0163907D01*
X0102805Y0163793D01*
X0102891Y0163683D01*
X0102980Y0163574D01*
X0103072Y0163468D01*
X0103167Y0163365D01*
X0103264Y0163264D01*
X0103365Y0163167D01*
X0103468Y0163072D01*
X0103574Y0162980D01*
X0103683Y0162891D01*
X0103793Y0162805D01*
X0103907Y0162722D01*
X0104022Y0162643D01*
X0104140Y0162566D01*
X0104260Y0162493D01*
X0104381Y0162424D01*
X0104505Y0162358D01*
X0104631Y0162295D01*
X0104758Y0162236D01*
X0104887Y0162181D01*
X0105017Y0162129D01*
X0105149Y0162081D01*
X0105282Y0162036D01*
X0105416Y0161995D01*
X0105551Y0161958D01*
X0105687Y0161925D01*
X0105825Y0161896D01*
X0105962Y0161871D01*
X0106101Y0161849D01*
X0106240Y0161831D01*
X0106380Y0161818D01*
X0106520Y0161808D01*
X0106660Y0161802D01*
X0106800Y0161800D01*
X0106940Y0161802D01*
X0107080Y0161808D01*
X0107220Y0161818D01*
X0107360Y0161831D01*
X0107499Y0161849D01*
X0107638Y0161871D01*
X0107775Y0161896D01*
X0107913Y0161925D01*
X0108049Y0161958D01*
X0108184Y0161995D01*
X0108318Y0162036D01*
X0108451Y0162081D01*
X0108583Y0162129D01*
X0108713Y0162181D01*
X0108842Y0162236D01*
X0108969Y0162295D01*
X0109095Y0162358D01*
X0109219Y0162424D01*
X0109340Y0162493D01*
X0109460Y0162566D01*
X0109578Y0162643D01*
X0109693Y0162722D01*
X0109807Y0162805D01*
X0109917Y0162891D01*
X0110026Y0162980D01*
X0110132Y0163072D01*
X0110235Y0163167D01*
X0110336Y0163264D01*
X0110433Y0163365D01*
X0110528Y0163468D01*
X0110620Y0163574D01*
X0110709Y0163683D01*
X0110795Y0163793D01*
X0110878Y0163907D01*
X0110957Y0164022D01*
X0111034Y0164140D01*
X0111107Y0164260D01*
X0111176Y0164381D01*
X0111242Y0164505D01*
X0111305Y0164631D01*
X0111364Y0164758D01*
X0111419Y0164887D01*
X0111471Y0165017D01*
X0111519Y0165149D01*
X0111564Y0165282D01*
X0111605Y0165416D01*
X0111642Y0165551D01*
X0111675Y0165687D01*
X0111704Y0165825D01*
X0111729Y0165962D01*
X0111751Y0166101D01*
X0111769Y0166240D01*
X0111782Y0166380D01*
X0111792Y0166520D01*
X0111798Y0166660D01*
X0111800Y0166800D01*
X0116800Y0166800D01*
X0116800Y0026800D01*
X0096800Y0026800D01*
X0131800Y0022800D02*
X0131954Y0022798D01*
X0132108Y0022792D01*
X0132262Y0022782D01*
X0132416Y0022768D01*
X0132569Y0022751D01*
X0132721Y0022729D01*
X0132873Y0022703D01*
X0133025Y0022674D01*
X0133175Y0022640D01*
X0133325Y0022603D01*
X0133473Y0022562D01*
X0133621Y0022517D01*
X0133767Y0022468D01*
X0133912Y0022416D01*
X0134055Y0022360D01*
X0134198Y0022300D01*
X0134338Y0022237D01*
X0134477Y0022170D01*
X0134614Y0022099D01*
X0134749Y0022025D01*
X0134882Y0021948D01*
X0135014Y0021867D01*
X0135143Y0021783D01*
X0135270Y0021695D01*
X0135394Y0021604D01*
X0135516Y0021511D01*
X0135636Y0021413D01*
X0135753Y0021313D01*
X0135868Y0021210D01*
X0135980Y0021104D01*
X0136089Y0020996D01*
X0136195Y0020884D01*
X0136299Y0020770D01*
X0136399Y0020653D01*
X0136497Y0020534D01*
X0136591Y0020412D01*
X0136682Y0020287D01*
X0131800Y0010800D02*
X0131648Y0010802D01*
X0131497Y0010808D01*
X0131346Y0010817D01*
X0131194Y0010831D01*
X0131044Y0010848D01*
X0130894Y0010869D01*
X0130744Y0010894D01*
X0130595Y0010922D01*
X0130447Y0010955D01*
X0130300Y0010991D01*
X0130153Y0011030D01*
X0130008Y0011074D01*
X0129864Y0011121D01*
X0129721Y0011172D01*
X0129580Y0011226D01*
X0129439Y0011284D01*
X0129301Y0011345D01*
X0129164Y0011410D01*
X0129028Y0011479D01*
X0128895Y0011550D01*
X0128763Y0011625D01*
X0128633Y0011704D01*
X0128506Y0011785D01*
X0128380Y0011870D01*
X0128256Y0011958D01*
X0128135Y0012049D01*
X0128016Y0012143D01*
X0127900Y0012241D01*
X0127786Y0012341D01*
X0127674Y0012443D01*
X0127566Y0012549D01*
X0127460Y0012657D01*
X0127356Y0012768D01*
X0127256Y0012882D01*
X0127158Y0012998D01*
X0127064Y0013117D01*
X0131800Y0010800D02*
X0131952Y0010802D01*
X0132103Y0010808D01*
X0132254Y0010817D01*
X0132406Y0010831D01*
X0132556Y0010848D01*
X0132706Y0010869D01*
X0132856Y0010894D01*
X0133005Y0010922D01*
X0133153Y0010955D01*
X0133300Y0010991D01*
X0133447Y0011030D01*
X0133592Y0011074D01*
X0133736Y0011121D01*
X0133879Y0011172D01*
X0134020Y0011226D01*
X0134161Y0011284D01*
X0134299Y0011345D01*
X0134436Y0011410D01*
X0134572Y0011479D01*
X0134705Y0011550D01*
X0134837Y0011625D01*
X0134967Y0011704D01*
X0135094Y0011785D01*
X0135220Y0011870D01*
X0135344Y0011958D01*
X0135465Y0012049D01*
X0135584Y0012143D01*
X0135700Y0012241D01*
X0135814Y0012341D01*
X0135926Y0012443D01*
X0136034Y0012549D01*
X0136140Y0012657D01*
X0136244Y0012768D01*
X0136344Y0012882D01*
X0136442Y0012998D01*
X0136536Y0013117D01*
X0131800Y0022800D02*
X0131650Y0022798D01*
X0131499Y0022792D01*
X0131349Y0022783D01*
X0131200Y0022770D01*
X0131050Y0022753D01*
X0130901Y0022732D01*
X0130753Y0022708D01*
X0130605Y0022680D01*
X0130458Y0022648D01*
X0130312Y0022613D01*
X0130167Y0022573D01*
X0130023Y0022531D01*
X0129880Y0022484D01*
X0129738Y0022434D01*
X0129597Y0022381D01*
X0129458Y0022324D01*
X0129320Y0022264D01*
X0129184Y0022200D01*
X0129050Y0022133D01*
X0128917Y0022062D01*
X0128786Y0021988D01*
X0128657Y0021911D01*
X0128530Y0021830D01*
X0128405Y0021747D01*
X0128282Y0021660D01*
X0128161Y0021571D01*
X0128043Y0021478D01*
X0127927Y0021382D01*
X0127813Y0021284D01*
X0127702Y0021183D01*
X0127593Y0021078D01*
X0127488Y0020972D01*
X0127384Y0020862D01*
X0127284Y0020750D01*
X0127186Y0020636D01*
X0127092Y0020519D01*
X0127000Y0020400D01*
X0143300Y0039300D02*
X0150300Y0039300D01*
X0150360Y0039302D01*
X0150421Y0039307D01*
X0150480Y0039316D01*
X0150539Y0039329D01*
X0150598Y0039345D01*
X0150655Y0039365D01*
X0150710Y0039388D01*
X0150765Y0039415D01*
X0150817Y0039444D01*
X0150868Y0039477D01*
X0150917Y0039513D01*
X0150963Y0039551D01*
X0151007Y0039593D01*
X0151049Y0039637D01*
X0151087Y0039683D01*
X0151123Y0039732D01*
X0151156Y0039783D01*
X0151185Y0039835D01*
X0151212Y0039890D01*
X0151235Y0039945D01*
X0151255Y0040002D01*
X0151271Y0040061D01*
X0151284Y0040120D01*
X0151293Y0040179D01*
X0151298Y0040240D01*
X0151300Y0040300D01*
X0151300Y0041800D01*
X0150800Y0042300D01*
X0150800Y0061300D01*
X0151300Y0061800D01*
X0151300Y0063300D01*
X0151298Y0063360D01*
X0151293Y0063421D01*
X0151284Y0063480D01*
X0151271Y0063539D01*
X0151255Y0063598D01*
X0151235Y0063655D01*
X0151212Y0063710D01*
X0151185Y0063765D01*
X0151156Y0063817D01*
X0151123Y0063868D01*
X0151087Y0063917D01*
X0151049Y0063963D01*
X0151007Y0064007D01*
X0150963Y0064049D01*
X0150917Y0064087D01*
X0150868Y0064123D01*
X0150817Y0064156D01*
X0150765Y0064185D01*
X0150710Y0064212D01*
X0150655Y0064235D01*
X0150598Y0064255D01*
X0150539Y0064271D01*
X0150480Y0064284D01*
X0150421Y0064293D01*
X0150360Y0064298D01*
X0150300Y0064300D01*
X0143300Y0064300D01*
X0143240Y0064298D01*
X0143179Y0064293D01*
X0143120Y0064284D01*
X0143061Y0064271D01*
X0143002Y0064255D01*
X0142945Y0064235D01*
X0142890Y0064212D01*
X0142835Y0064185D01*
X0142783Y0064156D01*
X0142732Y0064123D01*
X0142683Y0064087D01*
X0142637Y0064049D01*
X0142593Y0064007D01*
X0142551Y0063963D01*
X0142513Y0063917D01*
X0142477Y0063868D01*
X0142444Y0063817D01*
X0142415Y0063765D01*
X0142388Y0063710D01*
X0142365Y0063655D01*
X0142345Y0063598D01*
X0142329Y0063539D01*
X0142316Y0063480D01*
X0142307Y0063421D01*
X0142302Y0063360D01*
X0142300Y0063300D01*
X0142300Y0061800D01*
X0142800Y0061300D01*
X0142800Y0042300D01*
X0142300Y0041800D01*
X0142300Y0040300D01*
X0142302Y0040240D01*
X0142307Y0040179D01*
X0142316Y0040120D01*
X0142329Y0040061D01*
X0142345Y0040002D01*
X0142365Y0039945D01*
X0142388Y0039890D01*
X0142415Y0039835D01*
X0142444Y0039783D01*
X0142477Y0039732D01*
X0142513Y0039683D01*
X0142551Y0039637D01*
X0142593Y0039593D01*
X0142637Y0039551D01*
X0142683Y0039513D01*
X0142732Y0039477D01*
X0142783Y0039444D01*
X0142835Y0039415D01*
X0142890Y0039388D01*
X0142945Y0039365D01*
X0143002Y0039345D01*
X0143061Y0039329D01*
X0143120Y0039316D01*
X0143179Y0039307D01*
X0143240Y0039302D01*
X0143300Y0039300D01*
X0167300Y0040300D02*
X0167300Y0041800D01*
X0167800Y0042300D01*
X0167800Y0061300D01*
X0167300Y0061800D01*
X0167300Y0063300D01*
X0167302Y0063360D01*
X0167307Y0063421D01*
X0167316Y0063480D01*
X0167329Y0063539D01*
X0167345Y0063598D01*
X0167365Y0063655D01*
X0167388Y0063710D01*
X0167415Y0063765D01*
X0167444Y0063817D01*
X0167477Y0063868D01*
X0167513Y0063917D01*
X0167551Y0063963D01*
X0167593Y0064007D01*
X0167637Y0064049D01*
X0167683Y0064087D01*
X0167732Y0064123D01*
X0167783Y0064156D01*
X0167835Y0064185D01*
X0167890Y0064212D01*
X0167945Y0064235D01*
X0168002Y0064255D01*
X0168061Y0064271D01*
X0168120Y0064284D01*
X0168179Y0064293D01*
X0168240Y0064298D01*
X0168300Y0064300D01*
X0175300Y0064300D01*
X0175360Y0064298D01*
X0175421Y0064293D01*
X0175480Y0064284D01*
X0175539Y0064271D01*
X0175598Y0064255D01*
X0175655Y0064235D01*
X0175710Y0064212D01*
X0175765Y0064185D01*
X0175817Y0064156D01*
X0175868Y0064123D01*
X0175917Y0064087D01*
X0175963Y0064049D01*
X0176007Y0064007D01*
X0176049Y0063963D01*
X0176087Y0063917D01*
X0176123Y0063868D01*
X0176156Y0063817D01*
X0176185Y0063765D01*
X0176212Y0063710D01*
X0176235Y0063655D01*
X0176255Y0063598D01*
X0176271Y0063539D01*
X0176284Y0063480D01*
X0176293Y0063421D01*
X0176298Y0063360D01*
X0176300Y0063300D01*
X0176300Y0061800D01*
X0175800Y0061300D01*
X0175800Y0042300D01*
X0176300Y0041800D01*
X0176300Y0040300D01*
X0176298Y0040240D01*
X0176293Y0040179D01*
X0176284Y0040120D01*
X0176271Y0040061D01*
X0176255Y0040002D01*
X0176235Y0039945D01*
X0176212Y0039890D01*
X0176185Y0039835D01*
X0176156Y0039783D01*
X0176123Y0039732D01*
X0176087Y0039683D01*
X0176049Y0039637D01*
X0176007Y0039593D01*
X0175963Y0039551D01*
X0175917Y0039513D01*
X0175868Y0039477D01*
X0175817Y0039444D01*
X0175765Y0039415D01*
X0175710Y0039388D01*
X0175655Y0039365D01*
X0175598Y0039345D01*
X0175539Y0039329D01*
X0175480Y0039316D01*
X0175421Y0039307D01*
X0175360Y0039302D01*
X0175300Y0039300D01*
X0168300Y0039300D01*
X0168240Y0039302D01*
X0168179Y0039307D01*
X0168120Y0039316D01*
X0168061Y0039329D01*
X0168002Y0039345D01*
X0167945Y0039365D01*
X0167890Y0039388D01*
X0167835Y0039415D01*
X0167783Y0039444D01*
X0167732Y0039477D01*
X0167683Y0039513D01*
X0167637Y0039551D01*
X0167593Y0039593D01*
X0167551Y0039637D01*
X0167513Y0039683D01*
X0167477Y0039732D01*
X0167444Y0039783D01*
X0167415Y0039835D01*
X0167388Y0039890D01*
X0167365Y0039945D01*
X0167345Y0040002D01*
X0167329Y0040061D01*
X0167316Y0040120D01*
X0167307Y0040179D01*
X0167302Y0040240D01*
X0167300Y0040300D01*
X0162064Y0013117D02*
X0162158Y0012998D01*
X0162256Y0012882D01*
X0162356Y0012768D01*
X0162460Y0012657D01*
X0162566Y0012549D01*
X0162674Y0012443D01*
X0162786Y0012341D01*
X0162900Y0012241D01*
X0163016Y0012143D01*
X0163135Y0012049D01*
X0163256Y0011958D01*
X0163380Y0011870D01*
X0163506Y0011785D01*
X0163633Y0011704D01*
X0163763Y0011625D01*
X0163895Y0011550D01*
X0164028Y0011479D01*
X0164164Y0011410D01*
X0164301Y0011345D01*
X0164439Y0011284D01*
X0164580Y0011226D01*
X0164721Y0011172D01*
X0164864Y0011121D01*
X0165008Y0011074D01*
X0165153Y0011030D01*
X0165300Y0010991D01*
X0165447Y0010955D01*
X0165595Y0010922D01*
X0165744Y0010894D01*
X0165894Y0010869D01*
X0166044Y0010848D01*
X0166194Y0010831D01*
X0166346Y0010817D01*
X0166497Y0010808D01*
X0166648Y0010802D01*
X0166800Y0010800D01*
X0162000Y0020400D02*
X0162092Y0020519D01*
X0162186Y0020636D01*
X0162284Y0020750D01*
X0162384Y0020862D01*
X0162488Y0020972D01*
X0162593Y0021078D01*
X0162702Y0021183D01*
X0162813Y0021284D01*
X0162927Y0021382D01*
X0163043Y0021478D01*
X0163161Y0021571D01*
X0163282Y0021660D01*
X0163405Y0021747D01*
X0163530Y0021830D01*
X0163657Y0021911D01*
X0163786Y0021988D01*
X0163917Y0022062D01*
X0164050Y0022133D01*
X0164184Y0022200D01*
X0164320Y0022264D01*
X0164458Y0022324D01*
X0164597Y0022381D01*
X0164738Y0022434D01*
X0164880Y0022484D01*
X0165023Y0022531D01*
X0165167Y0022573D01*
X0165312Y0022613D01*
X0165458Y0022648D01*
X0165605Y0022680D01*
X0165753Y0022708D01*
X0165901Y0022732D01*
X0166050Y0022753D01*
X0166200Y0022770D01*
X0166349Y0022783D01*
X0166499Y0022792D01*
X0166650Y0022798D01*
X0166800Y0022800D01*
X0171536Y0013117D02*
X0171442Y0012998D01*
X0171344Y0012882D01*
X0171244Y0012768D01*
X0171140Y0012657D01*
X0171034Y0012549D01*
X0170926Y0012443D01*
X0170814Y0012341D01*
X0170700Y0012241D01*
X0170584Y0012143D01*
X0170465Y0012049D01*
X0170344Y0011958D01*
X0170220Y0011870D01*
X0170094Y0011785D01*
X0169967Y0011704D01*
X0169837Y0011625D01*
X0169705Y0011550D01*
X0169572Y0011479D01*
X0169436Y0011410D01*
X0169299Y0011345D01*
X0169161Y0011284D01*
X0169020Y0011226D01*
X0168879Y0011172D01*
X0168736Y0011121D01*
X0168592Y0011074D01*
X0168447Y0011030D01*
X0168300Y0010991D01*
X0168153Y0010955D01*
X0168005Y0010922D01*
X0167856Y0010894D01*
X0167706Y0010869D01*
X0167556Y0010848D01*
X0167406Y0010831D01*
X0167254Y0010817D01*
X0167103Y0010808D01*
X0166952Y0010802D01*
X0166800Y0010800D01*
X0171682Y0020287D02*
X0171591Y0020412D01*
X0171497Y0020534D01*
X0171399Y0020653D01*
X0171299Y0020770D01*
X0171195Y0020884D01*
X0171089Y0020996D01*
X0170980Y0021104D01*
X0170868Y0021210D01*
X0170753Y0021313D01*
X0170636Y0021413D01*
X0170516Y0021511D01*
X0170394Y0021604D01*
X0170270Y0021695D01*
X0170143Y0021783D01*
X0170014Y0021867D01*
X0169882Y0021948D01*
X0169749Y0022025D01*
X0169614Y0022099D01*
X0169477Y0022170D01*
X0169338Y0022237D01*
X0169198Y0022300D01*
X0169055Y0022360D01*
X0168912Y0022416D01*
X0168767Y0022468D01*
X0168621Y0022517D01*
X0168473Y0022562D01*
X0168325Y0022603D01*
X0168175Y0022640D01*
X0168025Y0022674D01*
X0167873Y0022703D01*
X0167721Y0022729D01*
X0167569Y0022751D01*
X0167416Y0022768D01*
X0167262Y0022782D01*
X0167108Y0022792D01*
X0166954Y0022798D01*
X0166800Y0022800D01*
X0169800Y0082300D02*
X0145300Y0082300D01*
X0142300Y0085300D01*
X0142300Y0098300D01*
X0145300Y0101300D01*
X0169800Y0101300D01*
X0169876Y0101298D01*
X0169952Y0101292D01*
X0170027Y0101283D01*
X0170102Y0101269D01*
X0170176Y0101252D01*
X0170249Y0101231D01*
X0170321Y0101207D01*
X0170392Y0101178D01*
X0170461Y0101147D01*
X0170528Y0101112D01*
X0170593Y0101073D01*
X0170657Y0101031D01*
X0170718Y0100986D01*
X0170777Y0100938D01*
X0170833Y0100887D01*
X0170887Y0100833D01*
X0170938Y0100777D01*
X0170986Y0100718D01*
X0171031Y0100657D01*
X0171073Y0100593D01*
X0171112Y0100528D01*
X0171147Y0100461D01*
X0171178Y0100392D01*
X0171207Y0100321D01*
X0171231Y0100249D01*
X0171252Y0100176D01*
X0171269Y0100102D01*
X0171283Y0100027D01*
X0171292Y0099952D01*
X0171298Y0099876D01*
X0171300Y0099800D01*
X0171300Y0083800D01*
X0171298Y0083724D01*
X0171292Y0083648D01*
X0171283Y0083573D01*
X0171269Y0083498D01*
X0171252Y0083424D01*
X0171231Y0083351D01*
X0171207Y0083279D01*
X0171178Y0083208D01*
X0171147Y0083139D01*
X0171112Y0083072D01*
X0171073Y0083007D01*
X0171031Y0082943D01*
X0170986Y0082882D01*
X0170938Y0082823D01*
X0170887Y0082767D01*
X0170833Y0082713D01*
X0170777Y0082662D01*
X0170718Y0082614D01*
X0170657Y0082569D01*
X0170593Y0082527D01*
X0170528Y0082488D01*
X0170461Y0082453D01*
X0170392Y0082422D01*
X0170321Y0082393D01*
X0170249Y0082369D01*
X0170176Y0082348D01*
X0170102Y0082331D01*
X0170027Y0082317D01*
X0169952Y0082308D01*
X0169876Y0082302D01*
X0169800Y0082300D01*
X0162800Y0091800D02*
X0159300Y0091800D01*
X0154300Y0091800D02*
X0154300Y0087000D01*
X0156300Y0087000D01*
X0156300Y0096600D01*
X0154300Y0096600D01*
X0154300Y0091800D01*
X0150800Y0091800D01*
X0149800Y0095900D02*
X0149800Y0098400D01*
X0151100Y0097200D02*
X0148500Y0097200D01*
X0145300Y0107300D02*
X0142300Y0110300D01*
X0142300Y0123300D01*
X0145300Y0126300D01*
X0169800Y0126300D01*
X0169876Y0126298D01*
X0169952Y0126292D01*
X0170027Y0126283D01*
X0170102Y0126269D01*
X0170176Y0126252D01*
X0170249Y0126231D01*
X0170321Y0126207D01*
X0170392Y0126178D01*
X0170461Y0126147D01*
X0170528Y0126112D01*
X0170593Y0126073D01*
X0170657Y0126031D01*
X0170718Y0125986D01*
X0170777Y0125938D01*
X0170833Y0125887D01*
X0170887Y0125833D01*
X0170938Y0125777D01*
X0170986Y0125718D01*
X0171031Y0125657D01*
X0171073Y0125593D01*
X0171112Y0125528D01*
X0171147Y0125461D01*
X0171178Y0125392D01*
X0171207Y0125321D01*
X0171231Y0125249D01*
X0171252Y0125176D01*
X0171269Y0125102D01*
X0171283Y0125027D01*
X0171292Y0124952D01*
X0171298Y0124876D01*
X0171300Y0124800D01*
X0171300Y0108800D01*
X0171298Y0108724D01*
X0171292Y0108648D01*
X0171283Y0108573D01*
X0171269Y0108498D01*
X0171252Y0108424D01*
X0171231Y0108351D01*
X0171207Y0108279D01*
X0171178Y0108208D01*
X0171147Y0108139D01*
X0171112Y0108072D01*
X0171073Y0108007D01*
X0171031Y0107943D01*
X0170986Y0107882D01*
X0170938Y0107823D01*
X0170887Y0107767D01*
X0170833Y0107713D01*
X0170777Y0107662D01*
X0170718Y0107614D01*
X0170657Y0107569D01*
X0170593Y0107527D01*
X0170528Y0107488D01*
X0170461Y0107453D01*
X0170392Y0107422D01*
X0170321Y0107393D01*
X0170249Y0107369D01*
X0170176Y0107348D01*
X0170102Y0107331D01*
X0170027Y0107317D01*
X0169952Y0107308D01*
X0169876Y0107302D01*
X0169800Y0107300D01*
X0145300Y0107300D01*
X0154300Y0112000D02*
X0154300Y0116800D01*
X0154300Y0121600D01*
X0156300Y0121600D01*
X0156300Y0112000D01*
X0154300Y0112000D01*
X0154300Y0116800D02*
X0150800Y0116800D01*
X0149800Y0120900D02*
X0149800Y0123400D01*
X0151100Y0122200D02*
X0148500Y0122200D01*
X0159300Y0116800D02*
X0162800Y0116800D01*
X0162800Y0132300D02*
X0170800Y0132300D01*
X0170860Y0132302D01*
X0170921Y0132307D01*
X0170980Y0132316D01*
X0171039Y0132329D01*
X0171098Y0132345D01*
X0171155Y0132365D01*
X0171210Y0132388D01*
X0171265Y0132415D01*
X0171317Y0132444D01*
X0171368Y0132477D01*
X0171417Y0132513D01*
X0171463Y0132551D01*
X0171507Y0132593D01*
X0171549Y0132637D01*
X0171587Y0132683D01*
X0171623Y0132732D01*
X0171656Y0132783D01*
X0171685Y0132835D01*
X0171712Y0132890D01*
X0171735Y0132945D01*
X0171755Y0133002D01*
X0171771Y0133061D01*
X0171784Y0133120D01*
X0171793Y0133179D01*
X0171798Y0133240D01*
X0171800Y0133300D01*
X0171800Y0150300D01*
X0171798Y0150360D01*
X0171793Y0150421D01*
X0171784Y0150480D01*
X0171771Y0150539D01*
X0171755Y0150598D01*
X0171735Y0150655D01*
X0171712Y0150710D01*
X0171685Y0150765D01*
X0171656Y0150817D01*
X0171623Y0150868D01*
X0171587Y0150917D01*
X0171549Y0150963D01*
X0171507Y0151007D01*
X0171463Y0151049D01*
X0171417Y0151087D01*
X0171368Y0151123D01*
X0171317Y0151156D01*
X0171265Y0151185D01*
X0171210Y0151212D01*
X0171155Y0151235D01*
X0171098Y0151255D01*
X0171039Y0151271D01*
X0170980Y0151284D01*
X0170921Y0151293D01*
X0170860Y0151298D01*
X0170800Y0151300D01*
X0162800Y0151300D01*
X0162740Y0151298D01*
X0162679Y0151293D01*
X0162620Y0151284D01*
X0162561Y0151271D01*
X0162502Y0151255D01*
X0162445Y0151235D01*
X0162390Y0151212D01*
X0162335Y0151185D01*
X0162283Y0151156D01*
X0162232Y0151123D01*
X0162183Y0151087D01*
X0162137Y0151049D01*
X0162093Y0151007D01*
X0162051Y0150963D01*
X0162013Y0150917D01*
X0161977Y0150868D01*
X0161944Y0150817D01*
X0161915Y0150765D01*
X0161888Y0150710D01*
X0161865Y0150655D01*
X0161845Y0150598D01*
X0161829Y0150539D01*
X0161816Y0150480D01*
X0161807Y0150421D01*
X0161802Y0150360D01*
X0161800Y0150300D01*
X0161800Y0133300D01*
X0161802Y0133240D01*
X0161807Y0133179D01*
X0161816Y0133120D01*
X0161829Y0133061D01*
X0161845Y0133002D01*
X0161865Y0132945D01*
X0161888Y0132890D01*
X0161915Y0132835D01*
X0161944Y0132783D01*
X0161977Y0132732D01*
X0162013Y0132683D01*
X0162051Y0132637D01*
X0162093Y0132593D01*
X0162137Y0132551D01*
X0162183Y0132513D01*
X0162232Y0132477D01*
X0162283Y0132444D01*
X0162335Y0132415D01*
X0162390Y0132388D01*
X0162445Y0132365D01*
X0162502Y0132345D01*
X0162561Y0132329D01*
X0162620Y0132316D01*
X0162679Y0132307D01*
X0162740Y0132302D01*
X0162800Y0132300D01*
X0166800Y0140300D02*
X0166800Y0140800D01*
X0166800Y0142800D02*
X0166800Y0143300D01*
X0151800Y0153300D02*
X0151800Y0170300D01*
X0151798Y0170360D01*
X0151793Y0170421D01*
X0151784Y0170480D01*
X0151771Y0170539D01*
X0151755Y0170598D01*
X0151735Y0170655D01*
X0151712Y0170710D01*
X0151685Y0170765D01*
X0151656Y0170817D01*
X0151623Y0170868D01*
X0151587Y0170917D01*
X0151549Y0170963D01*
X0151507Y0171007D01*
X0151463Y0171049D01*
X0151417Y0171087D01*
X0151368Y0171123D01*
X0151317Y0171156D01*
X0151265Y0171185D01*
X0151210Y0171212D01*
X0151155Y0171235D01*
X0151098Y0171255D01*
X0151039Y0171271D01*
X0150980Y0171284D01*
X0150921Y0171293D01*
X0150860Y0171298D01*
X0150800Y0171300D01*
X0142800Y0171300D01*
X0142740Y0171298D01*
X0142679Y0171293D01*
X0142620Y0171284D01*
X0142561Y0171271D01*
X0142502Y0171255D01*
X0142445Y0171235D01*
X0142390Y0171212D01*
X0142335Y0171185D01*
X0142283Y0171156D01*
X0142232Y0171123D01*
X0142183Y0171087D01*
X0142137Y0171049D01*
X0142093Y0171007D01*
X0142051Y0170963D01*
X0142013Y0170917D01*
X0141977Y0170868D01*
X0141944Y0170817D01*
X0141915Y0170765D01*
X0141888Y0170710D01*
X0141865Y0170655D01*
X0141845Y0170598D01*
X0141829Y0170539D01*
X0141816Y0170480D01*
X0141807Y0170421D01*
X0141802Y0170360D01*
X0141800Y0170300D01*
X0141800Y0153300D01*
X0141802Y0153240D01*
X0141807Y0153179D01*
X0141816Y0153120D01*
X0141829Y0153061D01*
X0141845Y0153002D01*
X0141865Y0152945D01*
X0141888Y0152890D01*
X0141915Y0152835D01*
X0141944Y0152783D01*
X0141977Y0152732D01*
X0142013Y0152683D01*
X0142051Y0152637D01*
X0142093Y0152593D01*
X0142137Y0152551D01*
X0142183Y0152513D01*
X0142232Y0152477D01*
X0142283Y0152444D01*
X0142335Y0152415D01*
X0142390Y0152388D01*
X0142445Y0152365D01*
X0142502Y0152345D01*
X0142561Y0152329D01*
X0142620Y0152316D01*
X0142679Y0152307D01*
X0142740Y0152302D01*
X0142800Y0152300D01*
X0150800Y0152300D01*
X0150860Y0152302D01*
X0150921Y0152307D01*
X0150980Y0152316D01*
X0151039Y0152329D01*
X0151098Y0152345D01*
X0151155Y0152365D01*
X0151210Y0152388D01*
X0151265Y0152415D01*
X0151317Y0152444D01*
X0151368Y0152477D01*
X0151417Y0152513D01*
X0151463Y0152551D01*
X0151507Y0152593D01*
X0151549Y0152637D01*
X0151587Y0152683D01*
X0151623Y0152732D01*
X0151656Y0152783D01*
X0151685Y0152835D01*
X0151712Y0152890D01*
X0151735Y0152945D01*
X0151755Y0153002D01*
X0151771Y0153061D01*
X0151784Y0153120D01*
X0151793Y0153179D01*
X0151798Y0153240D01*
X0151800Y0153300D01*
X0146800Y0160300D02*
X0146800Y0160800D01*
X0146800Y0162800D02*
X0146800Y0163300D01*
X0162300Y0162800D02*
X0162300Y0170800D01*
X0162302Y0170860D01*
X0162307Y0170921D01*
X0162316Y0170980D01*
X0162329Y0171039D01*
X0162345Y0171098D01*
X0162365Y0171155D01*
X0162388Y0171210D01*
X0162415Y0171265D01*
X0162444Y0171317D01*
X0162477Y0171368D01*
X0162513Y0171417D01*
X0162551Y0171463D01*
X0162593Y0171507D01*
X0162637Y0171549D01*
X0162683Y0171587D01*
X0162732Y0171623D01*
X0162783Y0171656D01*
X0162835Y0171685D01*
X0162890Y0171712D01*
X0162945Y0171735D01*
X0163002Y0171755D01*
X0163061Y0171771D01*
X0163120Y0171784D01*
X0163179Y0171793D01*
X0163240Y0171798D01*
X0163300Y0171800D01*
X0180300Y0171800D01*
X0180360Y0171798D01*
X0180421Y0171793D01*
X0180480Y0171784D01*
X0180539Y0171771D01*
X0180598Y0171755D01*
X0180655Y0171735D01*
X0180710Y0171712D01*
X0180765Y0171685D01*
X0180817Y0171656D01*
X0180868Y0171623D01*
X0180917Y0171587D01*
X0180963Y0171549D01*
X0181007Y0171507D01*
X0181049Y0171463D01*
X0181087Y0171417D01*
X0181123Y0171368D01*
X0181156Y0171317D01*
X0181185Y0171265D01*
X0181212Y0171210D01*
X0181235Y0171155D01*
X0181255Y0171098D01*
X0181271Y0171039D01*
X0181284Y0170980D01*
X0181293Y0170921D01*
X0181298Y0170860D01*
X0181300Y0170800D01*
X0181300Y0162800D01*
X0181298Y0162740D01*
X0181293Y0162679D01*
X0181284Y0162620D01*
X0181271Y0162561D01*
X0181255Y0162502D01*
X0181235Y0162445D01*
X0181212Y0162390D01*
X0181185Y0162335D01*
X0181156Y0162283D01*
X0181123Y0162232D01*
X0181087Y0162183D01*
X0181049Y0162137D01*
X0181007Y0162093D01*
X0180963Y0162051D01*
X0180917Y0162013D01*
X0180868Y0161977D01*
X0180817Y0161944D01*
X0180765Y0161915D01*
X0180710Y0161888D01*
X0180655Y0161865D01*
X0180598Y0161845D01*
X0180539Y0161829D01*
X0180480Y0161816D01*
X0180421Y0161807D01*
X0180360Y0161802D01*
X0180300Y0161800D01*
X0163300Y0161800D01*
X0163240Y0161802D01*
X0163179Y0161807D01*
X0163120Y0161816D01*
X0163061Y0161829D01*
X0163002Y0161845D01*
X0162945Y0161865D01*
X0162890Y0161888D01*
X0162835Y0161915D01*
X0162783Y0161944D01*
X0162732Y0161977D01*
X0162683Y0162013D01*
X0162637Y0162051D01*
X0162593Y0162093D01*
X0162551Y0162137D01*
X0162513Y0162183D01*
X0162477Y0162232D01*
X0162444Y0162283D01*
X0162415Y0162335D01*
X0162388Y0162390D01*
X0162365Y0162445D01*
X0162345Y0162502D01*
X0162329Y0162561D01*
X0162316Y0162620D01*
X0162307Y0162679D01*
X0162302Y0162740D01*
X0162300Y0162800D01*
X0170300Y0166800D02*
X0170800Y0166800D01*
X0172800Y0166800D02*
X0173300Y0166800D01*
D12*
X0172800Y0166800D02*
X0172800Y0169800D01*
X0170800Y0169800D02*
X0170800Y0166800D01*
X0170800Y0163800D01*
X0172800Y0163800D02*
X0172800Y0166800D01*
X0149800Y0162800D02*
X0146800Y0162800D01*
X0143800Y0162800D01*
X0143800Y0160800D02*
X0146800Y0160800D01*
X0149800Y0160800D01*
X0163800Y0142800D02*
X0166800Y0142800D01*
X0169800Y0142800D01*
X0169800Y0140800D02*
X0166800Y0140800D01*
X0163800Y0140800D01*
X0079800Y0047800D02*
X0076800Y0047800D01*
X0073800Y0047800D01*
X0073800Y0045800D02*
X0076800Y0045800D01*
X0079800Y0045800D01*
X0124854Y0012831D02*
X0124953Y0012662D01*
X0125057Y0012496D01*
X0125164Y0012332D01*
X0125275Y0012171D01*
X0125390Y0012013D01*
X0125509Y0011858D01*
X0125632Y0011705D01*
X0125758Y0011556D01*
X0125888Y0011410D01*
X0126022Y0011267D01*
X0126159Y0011127D01*
X0126299Y0010991D01*
X0126443Y0010858D01*
X0126590Y0010729D01*
X0126740Y0010603D01*
X0126893Y0010482D01*
X0127049Y0010363D01*
X0127208Y0010249D01*
X0127369Y0010139D01*
X0127534Y0010033D01*
X0127700Y0009930D01*
X0127870Y0009832D01*
X0128041Y0009738D01*
X0128215Y0009648D01*
X0128391Y0009563D01*
X0128569Y0009481D01*
X0128749Y0009405D01*
X0128931Y0009332D01*
X0129114Y0009264D01*
X0129299Y0009201D01*
X0129486Y0009142D01*
X0129674Y0009088D01*
X0129863Y0009038D01*
X0130053Y0008993D01*
X0130245Y0008953D01*
X0130437Y0008917D01*
X0130630Y0008886D01*
X0130824Y0008860D01*
X0131019Y0008838D01*
X0131214Y0008822D01*
X0131409Y0008810D01*
X0131605Y0008802D01*
X0131800Y0008800D01*
X0124741Y0020565D02*
X0124834Y0020733D01*
X0124930Y0020899D01*
X0125030Y0021063D01*
X0125135Y0021224D01*
X0125243Y0021383D01*
X0125355Y0021539D01*
X0125471Y0021693D01*
X0125590Y0021843D01*
X0125713Y0021991D01*
X0125839Y0022136D01*
X0125969Y0022277D01*
X0126102Y0022416D01*
X0126239Y0022551D01*
X0126379Y0022683D01*
X0126521Y0022811D01*
X0126667Y0022936D01*
X0126816Y0023058D01*
X0126968Y0023176D01*
X0127122Y0023290D01*
X0127280Y0023400D01*
X0127439Y0023507D01*
X0127602Y0023610D01*
X0127767Y0023709D01*
X0127934Y0023804D01*
X0128103Y0023894D01*
X0128274Y0023981D01*
X0128448Y0024064D01*
X0128623Y0024142D01*
X0128801Y0024216D01*
X0128980Y0024286D01*
X0129160Y0024352D01*
X0129342Y0024413D01*
X0129526Y0024470D01*
X0129711Y0024522D01*
X0129897Y0024570D01*
X0130084Y0024614D01*
X0130272Y0024653D01*
X0130461Y0024687D01*
X0130651Y0024717D01*
X0130841Y0024742D01*
X0131032Y0024763D01*
X0131224Y0024779D01*
X0131416Y0024791D01*
X0131608Y0024798D01*
X0131800Y0024800D01*
X0137907Y0011632D02*
X0137780Y0011486D01*
X0137651Y0011344D01*
X0137517Y0011204D01*
X0137381Y0011068D01*
X0137241Y0010935D01*
X0137098Y0010805D01*
X0136951Y0010679D01*
X0136802Y0010557D01*
X0136650Y0010438D01*
X0136495Y0010323D01*
X0136338Y0010211D01*
X0136178Y0010104D01*
X0136015Y0010000D01*
X0135849Y0009901D01*
X0135682Y0009805D01*
X0135512Y0009713D01*
X0135340Y0009626D01*
X0135166Y0009542D01*
X0134990Y0009463D01*
X0134812Y0009389D01*
X0134632Y0009318D01*
X0134451Y0009252D01*
X0134268Y0009190D01*
X0134084Y0009133D01*
X0133898Y0009080D01*
X0133711Y0009032D01*
X0133523Y0008988D01*
X0133334Y0008949D01*
X0133144Y0008914D01*
X0132954Y0008884D01*
X0132763Y0008858D01*
X0132571Y0008837D01*
X0132378Y0008821D01*
X0132186Y0008809D01*
X0131993Y0008802D01*
X0131800Y0008800D01*
X0137946Y0021922D02*
X0137819Y0022070D01*
X0137689Y0022215D01*
X0137556Y0022356D01*
X0137419Y0022495D01*
X0137279Y0022630D01*
X0137135Y0022761D01*
X0136988Y0022889D01*
X0136839Y0023014D01*
X0136686Y0023135D01*
X0136531Y0023252D01*
X0136372Y0023365D01*
X0136211Y0023474D01*
X0136047Y0023579D01*
X0135881Y0023681D01*
X0135712Y0023778D01*
X0135542Y0023871D01*
X0135368Y0023960D01*
X0135193Y0024045D01*
X0135016Y0024125D01*
X0134837Y0024201D01*
X0134656Y0024273D01*
X0134473Y0024340D01*
X0134289Y0024403D01*
X0134103Y0024461D01*
X0133916Y0024515D01*
X0133728Y0024564D01*
X0133538Y0024609D01*
X0133348Y0024649D01*
X0133156Y0024684D01*
X0132964Y0024715D01*
X0132771Y0024741D01*
X0132577Y0024762D01*
X0132383Y0024779D01*
X0132189Y0024791D01*
X0131995Y0024798D01*
X0131800Y0024800D01*
X0159854Y0012831D02*
X0159953Y0012662D01*
X0160057Y0012496D01*
X0160164Y0012332D01*
X0160275Y0012171D01*
X0160390Y0012013D01*
X0160509Y0011858D01*
X0160632Y0011705D01*
X0160758Y0011556D01*
X0160888Y0011410D01*
X0161022Y0011267D01*
X0161159Y0011127D01*
X0161299Y0010991D01*
X0161443Y0010858D01*
X0161590Y0010729D01*
X0161740Y0010603D01*
X0161893Y0010482D01*
X0162049Y0010363D01*
X0162208Y0010249D01*
X0162369Y0010139D01*
X0162534Y0010033D01*
X0162700Y0009930D01*
X0162870Y0009832D01*
X0163041Y0009738D01*
X0163215Y0009648D01*
X0163391Y0009563D01*
X0163569Y0009481D01*
X0163749Y0009405D01*
X0163931Y0009332D01*
X0164114Y0009264D01*
X0164299Y0009201D01*
X0164486Y0009142D01*
X0164674Y0009088D01*
X0164863Y0009038D01*
X0165053Y0008993D01*
X0165245Y0008953D01*
X0165437Y0008917D01*
X0165630Y0008886D01*
X0165824Y0008860D01*
X0166019Y0008838D01*
X0166214Y0008822D01*
X0166409Y0008810D01*
X0166605Y0008802D01*
X0166800Y0008800D01*
X0159741Y0020565D02*
X0159834Y0020733D01*
X0159930Y0020899D01*
X0160030Y0021063D01*
X0160135Y0021224D01*
X0160243Y0021383D01*
X0160355Y0021539D01*
X0160471Y0021693D01*
X0160590Y0021843D01*
X0160713Y0021991D01*
X0160839Y0022136D01*
X0160969Y0022277D01*
X0161102Y0022416D01*
X0161239Y0022551D01*
X0161379Y0022683D01*
X0161521Y0022811D01*
X0161667Y0022936D01*
X0161816Y0023058D01*
X0161968Y0023176D01*
X0162122Y0023290D01*
X0162280Y0023400D01*
X0162439Y0023507D01*
X0162602Y0023610D01*
X0162767Y0023709D01*
X0162934Y0023804D01*
X0163103Y0023894D01*
X0163274Y0023981D01*
X0163448Y0024064D01*
X0163623Y0024142D01*
X0163801Y0024216D01*
X0163980Y0024286D01*
X0164160Y0024352D01*
X0164342Y0024413D01*
X0164526Y0024470D01*
X0164711Y0024522D01*
X0164897Y0024570D01*
X0165084Y0024614D01*
X0165272Y0024653D01*
X0165461Y0024687D01*
X0165651Y0024717D01*
X0165841Y0024742D01*
X0166032Y0024763D01*
X0166224Y0024779D01*
X0166416Y0024791D01*
X0166608Y0024798D01*
X0166800Y0024800D01*
X0172907Y0011632D02*
X0172780Y0011486D01*
X0172651Y0011344D01*
X0172517Y0011204D01*
X0172381Y0011068D01*
X0172241Y0010935D01*
X0172098Y0010805D01*
X0171951Y0010679D01*
X0171802Y0010557D01*
X0171650Y0010438D01*
X0171495Y0010323D01*
X0171338Y0010211D01*
X0171178Y0010104D01*
X0171015Y0010000D01*
X0170849Y0009901D01*
X0170682Y0009805D01*
X0170512Y0009713D01*
X0170340Y0009626D01*
X0170166Y0009542D01*
X0169990Y0009463D01*
X0169812Y0009389D01*
X0169632Y0009318D01*
X0169451Y0009252D01*
X0169268Y0009190D01*
X0169084Y0009133D01*
X0168898Y0009080D01*
X0168711Y0009032D01*
X0168523Y0008988D01*
X0168334Y0008949D01*
X0168144Y0008914D01*
X0167954Y0008884D01*
X0167763Y0008858D01*
X0167571Y0008837D01*
X0167378Y0008821D01*
X0167186Y0008809D01*
X0166993Y0008802D01*
X0166800Y0008800D01*
X0172946Y0021922D02*
X0172819Y0022070D01*
X0172689Y0022215D01*
X0172556Y0022356D01*
X0172419Y0022495D01*
X0172279Y0022630D01*
X0172135Y0022761D01*
X0171988Y0022889D01*
X0171839Y0023014D01*
X0171686Y0023135D01*
X0171531Y0023252D01*
X0171372Y0023365D01*
X0171211Y0023474D01*
X0171047Y0023579D01*
X0170881Y0023681D01*
X0170712Y0023778D01*
X0170542Y0023871D01*
X0170368Y0023960D01*
X0170193Y0024045D01*
X0170016Y0024125D01*
X0169837Y0024201D01*
X0169656Y0024273D01*
X0169473Y0024340D01*
X0169289Y0024403D01*
X0169103Y0024461D01*
X0168916Y0024515D01*
X0168728Y0024564D01*
X0168538Y0024609D01*
X0168348Y0024649D01*
X0168156Y0024684D01*
X0167964Y0024715D01*
X0167771Y0024741D01*
X0167577Y0024762D01*
X0167383Y0024779D01*
X0167189Y0024791D01*
X0166995Y0024798D01*
X0166800Y0024800D01*
D13*
X0174550Y0023054D02*
X0174550Y0018550D01*
X0177553Y0018550D01*
X0179154Y0018550D02*
X0182156Y0018550D01*
X0183758Y0018550D02*
X0186010Y0018550D01*
X0186760Y0019301D01*
X0186760Y0022303D01*
X0186010Y0023054D01*
X0183758Y0023054D01*
X0183758Y0018550D01*
X0186760Y0015054D02*
X0186760Y0010550D01*
X0184508Y0010550D01*
X0183758Y0011301D01*
X0183758Y0012802D01*
X0184508Y0013553D01*
X0186760Y0013553D01*
X0182156Y0012802D02*
X0182156Y0012051D01*
X0179154Y0012051D01*
X0179154Y0011301D02*
X0179154Y0012802D01*
X0179905Y0013553D01*
X0181406Y0013553D01*
X0182156Y0012802D01*
X0181406Y0010550D02*
X0179905Y0010550D01*
X0179154Y0011301D01*
X0177553Y0010550D02*
X0176051Y0012051D01*
X0176802Y0012051D02*
X0174550Y0012051D01*
X0174550Y0010550D02*
X0174550Y0015054D01*
X0176802Y0015054D01*
X0177553Y0014303D01*
X0177553Y0012802D01*
X0176802Y0012051D01*
X0179154Y0018550D02*
X0179154Y0023054D01*
X0182156Y0023054D01*
X0180655Y0020802D02*
X0179154Y0020802D01*
X0188362Y0021553D02*
X0189863Y0023054D01*
X0189863Y0018550D01*
X0188362Y0018550D02*
X0191364Y0018550D01*
X0160201Y0012802D02*
X0160201Y0010550D01*
X0160201Y0012802D02*
X0159450Y0013553D01*
X0157198Y0013553D01*
X0157198Y0010550D01*
X0155597Y0012051D02*
X0152594Y0012051D01*
X0152594Y0011301D02*
X0152594Y0012802D01*
X0153345Y0013553D01*
X0154846Y0013553D01*
X0155597Y0012802D01*
X0155597Y0012051D01*
X0154846Y0010550D02*
X0153345Y0010550D01*
X0152594Y0011301D01*
X0150993Y0012051D02*
X0147991Y0012051D01*
X0147991Y0011301D02*
X0147991Y0012802D01*
X0148741Y0013553D01*
X0150242Y0013553D01*
X0150993Y0012802D01*
X0150993Y0012051D01*
X0150242Y0010550D02*
X0148741Y0010550D01*
X0147991Y0011301D01*
X0146406Y0013553D02*
X0145655Y0013553D01*
X0144154Y0012051D01*
X0144154Y0010550D02*
X0144154Y0013553D01*
X0142553Y0014303D02*
X0141802Y0015054D01*
X0140301Y0015054D01*
X0139550Y0014303D01*
X0139550Y0011301D01*
X0140301Y0010550D01*
X0141802Y0010550D01*
X0142553Y0011301D01*
X0142553Y0012802D01*
X0141051Y0012802D01*
X0139550Y0018550D02*
X0142553Y0018550D01*
X0144154Y0018550D02*
X0147156Y0018550D01*
X0148758Y0018550D02*
X0151010Y0018550D01*
X0151760Y0019301D01*
X0151760Y0022303D01*
X0151010Y0023054D01*
X0148758Y0023054D01*
X0148758Y0018550D01*
X0145655Y0020802D02*
X0144154Y0020802D01*
X0144154Y0023054D02*
X0144154Y0018550D01*
X0144154Y0023054D02*
X0147156Y0023054D01*
X0153362Y0022303D02*
X0154112Y0023054D01*
X0155614Y0023054D01*
X0156364Y0022303D01*
X0156364Y0021553D01*
X0153362Y0018550D01*
X0156364Y0018550D01*
X0139550Y0018550D02*
X0139550Y0023054D01*
X0145297Y0047138D02*
X0144546Y0047889D01*
X0144546Y0049390D01*
X0145297Y0050141D01*
X0146047Y0050141D01*
X0146798Y0049390D01*
X0147549Y0050141D01*
X0148299Y0050141D01*
X0149050Y0049390D01*
X0149050Y0047889D01*
X0148299Y0047138D01*
X0146798Y0048639D02*
X0146798Y0049390D01*
X0145297Y0051742D02*
X0144546Y0052493D01*
X0144546Y0053994D01*
X0145297Y0054745D01*
X0146047Y0054745D01*
X0146798Y0053994D01*
X0147549Y0054745D01*
X0148299Y0054745D01*
X0149050Y0053994D01*
X0149050Y0052493D01*
X0148299Y0051742D01*
X0146798Y0053243D02*
X0146798Y0053994D01*
X0145297Y0056346D02*
X0144546Y0057097D01*
X0144546Y0058598D01*
X0145297Y0059349D01*
X0148299Y0056346D01*
X0149050Y0057097D01*
X0149050Y0058598D01*
X0148299Y0059349D01*
X0145297Y0059349D01*
X0145297Y0056346D02*
X0148299Y0056346D01*
X0153046Y0057094D02*
X0153046Y0054842D01*
X0157550Y0054842D01*
X0156049Y0054842D02*
X0156049Y0057094D01*
X0155298Y0057845D01*
X0153797Y0057845D01*
X0153046Y0057094D01*
X0153797Y0059446D02*
X0153046Y0060197D01*
X0153046Y0061698D01*
X0153797Y0062449D01*
X0154547Y0062449D01*
X0157550Y0059446D01*
X0157550Y0062449D01*
X0157550Y0057845D02*
X0156049Y0056343D01*
X0169546Y0057097D02*
X0169546Y0058598D01*
X0170297Y0059349D01*
X0173299Y0056346D01*
X0174050Y0057097D01*
X0174050Y0058598D01*
X0173299Y0059349D01*
X0170297Y0059349D01*
X0169546Y0057097D02*
X0170297Y0056346D01*
X0173299Y0056346D01*
X0173299Y0054745D02*
X0172549Y0054745D01*
X0171798Y0053994D01*
X0171798Y0053243D01*
X0171798Y0053994D02*
X0171047Y0054745D01*
X0170297Y0054745D01*
X0169546Y0053994D01*
X0169546Y0052493D01*
X0170297Y0051742D01*
X0170297Y0050141D02*
X0171047Y0050141D01*
X0171798Y0049390D01*
X0172549Y0050141D01*
X0173299Y0050141D01*
X0174050Y0049390D01*
X0174050Y0047889D01*
X0173299Y0047138D01*
X0171798Y0048639D02*
X0171798Y0049390D01*
X0170297Y0050141D02*
X0169546Y0049390D01*
X0169546Y0047889D01*
X0170297Y0047138D01*
X0173299Y0051742D02*
X0174050Y0052493D01*
X0174050Y0053994D01*
X0173299Y0054745D01*
X0178046Y0054842D02*
X0178046Y0057094D01*
X0178797Y0057845D01*
X0180298Y0057845D01*
X0181049Y0057094D01*
X0181049Y0054842D01*
X0182550Y0054842D02*
X0178046Y0054842D01*
X0181049Y0056343D02*
X0182550Y0057845D01*
X0182550Y0059446D02*
X0182550Y0062449D01*
X0182550Y0060947D02*
X0178046Y0060947D01*
X0179547Y0059446D01*
X0189148Y0072050D02*
X0190733Y0072050D01*
X0191050Y0072367D01*
X0191050Y0073001D01*
X0190733Y0073318D01*
X0189148Y0073318D01*
X0189465Y0074260D02*
X0189148Y0074577D01*
X0189148Y0075211D01*
X0189465Y0075528D01*
X0190099Y0075211D02*
X0190099Y0074577D01*
X0189782Y0074260D01*
X0189465Y0074260D01*
X0188831Y0074894D02*
X0191367Y0074894D01*
X0191050Y0075211D02*
X0190733Y0075528D01*
X0190416Y0075528D01*
X0190099Y0075211D01*
X0191050Y0075211D02*
X0191050Y0074577D01*
X0190733Y0074260D01*
X0190733Y0076470D02*
X0190099Y0076470D01*
X0190099Y0077421D01*
X0190416Y0077738D01*
X0190733Y0077738D01*
X0191050Y0077421D01*
X0191050Y0076787D01*
X0190733Y0076470D01*
X0190099Y0076470D02*
X0189465Y0077104D01*
X0189148Y0077738D01*
X0187362Y0085550D02*
X0187362Y0090054D01*
X0190364Y0090054D01*
X0188863Y0087802D02*
X0187362Y0087802D01*
X0185760Y0088553D02*
X0185760Y0085550D01*
X0183508Y0085550D01*
X0182758Y0086301D01*
X0182758Y0088553D01*
X0181156Y0089303D02*
X0181156Y0086301D01*
X0180406Y0085550D01*
X0178905Y0085550D01*
X0178154Y0086301D01*
X0181156Y0089303D01*
X0180406Y0090054D01*
X0178905Y0090054D01*
X0178154Y0089303D01*
X0178154Y0086301D01*
X0176553Y0085550D02*
X0173550Y0085550D01*
X0175051Y0085550D02*
X0175051Y0090054D01*
X0173550Y0088553D01*
X0173550Y0110550D02*
X0176553Y0110550D01*
X0175051Y0110550D02*
X0175051Y0115054D01*
X0173550Y0113553D01*
X0178154Y0114303D02*
X0178154Y0111301D01*
X0181156Y0114303D01*
X0181156Y0111301D01*
X0180406Y0110550D01*
X0178905Y0110550D01*
X0178154Y0111301D01*
X0178154Y0114303D02*
X0178905Y0115054D01*
X0180406Y0115054D01*
X0181156Y0114303D01*
X0182758Y0113553D02*
X0182758Y0111301D01*
X0183508Y0110550D01*
X0185760Y0110550D01*
X0185760Y0113553D01*
X0187362Y0112802D02*
X0188863Y0112802D01*
X0187362Y0110550D02*
X0187362Y0115054D01*
X0190364Y0115054D01*
X0176799Y0141842D02*
X0173797Y0141842D01*
X0173046Y0142593D01*
X0173046Y0144094D01*
X0173797Y0144845D01*
X0175298Y0146446D02*
X0175298Y0149449D01*
X0173046Y0148698D02*
X0175298Y0146446D01*
X0176799Y0144845D02*
X0177550Y0144094D01*
X0177550Y0142593D01*
X0176799Y0141842D01*
X0177550Y0148698D02*
X0173046Y0148698D01*
X0172593Y0156050D02*
X0174094Y0156050D01*
X0174845Y0156801D01*
X0176446Y0156801D02*
X0177197Y0156050D01*
X0178698Y0156050D01*
X0179449Y0156801D01*
X0179449Y0157551D01*
X0178698Y0158302D01*
X0177947Y0158302D01*
X0178698Y0158302D02*
X0179449Y0159053D01*
X0179449Y0159803D01*
X0178698Y0160554D01*
X0177197Y0160554D01*
X0176446Y0159803D01*
X0174845Y0159803D02*
X0174094Y0160554D01*
X0172593Y0160554D01*
X0171842Y0159803D01*
X0171842Y0156801D01*
X0172593Y0156050D01*
X0160550Y0146446D02*
X0156046Y0146446D01*
X0156046Y0149449D01*
X0158298Y0147947D02*
X0158298Y0146446D01*
X0157547Y0144845D02*
X0160550Y0144845D01*
X0160550Y0142593D01*
X0159799Y0141842D01*
X0157547Y0141842D01*
X0160550Y0140241D02*
X0160550Y0137238D01*
X0160550Y0138739D02*
X0156046Y0138739D01*
X0157547Y0137238D01*
X0159799Y0135687D02*
X0160550Y0135687D01*
X0160550Y0134936D01*
X0159799Y0134936D01*
X0159799Y0135687D01*
X0159799Y0133335D02*
X0156797Y0133335D01*
X0159799Y0130332D01*
X0160550Y0131083D01*
X0160550Y0132584D01*
X0159799Y0133335D01*
X0156797Y0133335D02*
X0156046Y0132584D01*
X0156046Y0131083D01*
X0156797Y0130332D01*
X0159799Y0130332D01*
X0153156Y0129551D02*
X0152406Y0130302D01*
X0150154Y0130302D01*
X0150154Y0128801D01*
X0150905Y0128050D01*
X0152406Y0128050D01*
X0153156Y0128801D01*
X0153156Y0129551D01*
X0151655Y0131803D02*
X0150154Y0130302D01*
X0151655Y0131803D02*
X0153156Y0132554D01*
X0148553Y0131803D02*
X0147802Y0132554D01*
X0146301Y0132554D01*
X0145550Y0131803D01*
X0145550Y0128801D01*
X0146301Y0128050D01*
X0147802Y0128050D01*
X0148553Y0128801D01*
X0147802Y0107554D02*
X0146301Y0107554D01*
X0145550Y0106803D01*
X0145550Y0103801D01*
X0146301Y0103050D01*
X0147802Y0103050D01*
X0148553Y0103801D01*
X0150154Y0103801D02*
X0150905Y0103050D01*
X0152406Y0103050D01*
X0153156Y0103801D01*
X0153156Y0105302D01*
X0152406Y0106053D01*
X0151655Y0106053D01*
X0150154Y0105302D01*
X0150154Y0107554D01*
X0153156Y0107554D01*
X0148553Y0106803D02*
X0147802Y0107554D01*
X0139799Y0150332D02*
X0136797Y0150332D01*
X0136046Y0151083D01*
X0136046Y0152584D01*
X0136797Y0153335D01*
X0139799Y0150332D01*
X0140550Y0151083D01*
X0140550Y0152584D01*
X0139799Y0153335D01*
X0136797Y0153335D01*
X0139799Y0154936D02*
X0139799Y0155687D01*
X0140550Y0155687D01*
X0140550Y0154936D01*
X0139799Y0154936D01*
X0140550Y0157238D02*
X0140550Y0160241D01*
X0140550Y0158739D02*
X0136046Y0158739D01*
X0137547Y0157238D01*
X0137547Y0161842D02*
X0139799Y0161842D01*
X0140550Y0162593D01*
X0140550Y0164845D01*
X0137547Y0164845D01*
X0138298Y0166446D02*
X0138298Y0167947D01*
X0136046Y0166446D02*
X0136046Y0169449D01*
X0136046Y0166446D02*
X0140550Y0166446D01*
X0153046Y0167947D02*
X0157550Y0167947D01*
X0157550Y0166446D02*
X0157550Y0169449D01*
X0154547Y0166446D02*
X0153046Y0167947D01*
X0153797Y0164845D02*
X0153046Y0164094D01*
X0153046Y0162593D01*
X0153797Y0161842D01*
X0156799Y0161842D01*
X0157550Y0162593D01*
X0157550Y0164094D01*
X0156799Y0164845D01*
X0161083Y0173050D02*
X0160332Y0173801D01*
X0163335Y0176803D01*
X0163335Y0173801D01*
X0162584Y0173050D01*
X0161083Y0173050D01*
X0160332Y0173801D02*
X0160332Y0176803D01*
X0161083Y0177554D01*
X0162584Y0177554D01*
X0163335Y0176803D01*
X0164936Y0173801D02*
X0165687Y0173801D01*
X0165687Y0173050D01*
X0164936Y0173050D01*
X0164936Y0173801D01*
X0167238Y0173050D02*
X0170241Y0173050D01*
X0168739Y0173050D02*
X0168739Y0177554D01*
X0167238Y0176053D01*
X0171842Y0176053D02*
X0171842Y0173801D01*
X0172593Y0173050D01*
X0174845Y0173050D01*
X0174845Y0176053D01*
X0176446Y0175302D02*
X0177947Y0175302D01*
X0176446Y0173050D02*
X0176446Y0177554D01*
X0179449Y0177554D01*
X0175176Y0182050D02*
X0172174Y0182050D01*
X0175176Y0185053D01*
X0175176Y0185803D01*
X0174425Y0186554D01*
X0172924Y0186554D01*
X0172174Y0185803D01*
X0170572Y0185803D02*
X0170572Y0182801D01*
X0169822Y0182050D01*
X0168320Y0182050D01*
X0167570Y0182801D01*
X0170572Y0185803D01*
X0169822Y0186554D01*
X0168320Y0186554D01*
X0167570Y0185803D01*
X0167570Y0182801D01*
X0165968Y0185803D02*
X0162966Y0182801D01*
X0162966Y0182050D01*
X0161364Y0182050D02*
X0158362Y0182050D01*
X0159863Y0182050D02*
X0159863Y0186554D01*
X0158362Y0185053D01*
X0156760Y0185803D02*
X0156010Y0186554D01*
X0153758Y0186554D01*
X0153758Y0182050D01*
X0153758Y0183551D02*
X0156010Y0183551D01*
X0156760Y0184302D01*
X0156760Y0185803D01*
X0156010Y0189550D02*
X0154508Y0189550D01*
X0153758Y0190301D01*
X0152156Y0190301D02*
X0152156Y0191051D01*
X0151406Y0191802D01*
X0149905Y0191802D01*
X0149154Y0192553D01*
X0149154Y0193303D01*
X0149905Y0194054D01*
X0151406Y0194054D01*
X0152156Y0193303D01*
X0153758Y0193303D02*
X0154508Y0194054D01*
X0156010Y0194054D01*
X0156760Y0193303D01*
X0156760Y0192553D01*
X0156010Y0191802D01*
X0156760Y0191051D01*
X0156760Y0190301D01*
X0156010Y0189550D01*
X0156010Y0191802D02*
X0155259Y0191802D01*
X0152156Y0190301D02*
X0151406Y0189550D01*
X0149905Y0189550D01*
X0149154Y0190301D01*
X0147553Y0190301D02*
X0147553Y0194054D01*
X0150655Y0194804D02*
X0150655Y0188799D01*
X0149905Y0186554D02*
X0149154Y0185803D01*
X0149154Y0182801D01*
X0149905Y0182050D01*
X0151406Y0182050D01*
X0152156Y0182801D01*
X0152156Y0185803D02*
X0151406Y0186554D01*
X0149905Y0186554D01*
X0147553Y0186554D02*
X0147553Y0182050D01*
X0146051Y0185053D02*
X0147553Y0186554D01*
X0146051Y0185053D02*
X0144550Y0186554D01*
X0144550Y0182050D01*
X0142252Y0185800D02*
X0140673Y0185800D01*
X0140046Y0180300D02*
X0123554Y0180300D01*
X0122927Y0185800D02*
X0121348Y0185800D01*
X0130673Y0185800D02*
X0132927Y0185800D01*
X0123554Y0180300D02*
X0123401Y0180499D01*
X0123253Y0180701D01*
X0123110Y0180906D01*
X0122972Y0181115D01*
X0122839Y0181327D01*
X0122711Y0181542D01*
X0122589Y0181760D01*
X0122471Y0181981D01*
X0122359Y0182205D01*
X0122252Y0182431D01*
X0122151Y0182660D01*
X0122055Y0182891D01*
X0121964Y0183125D01*
X0121879Y0183360D01*
X0121800Y0183598D01*
X0121727Y0183837D01*
X0121659Y0184078D01*
X0121597Y0184320D01*
X0121541Y0184564D01*
X0121490Y0184810D01*
X0121446Y0185056D01*
X0121407Y0185303D01*
X0121375Y0185551D01*
X0121348Y0185800D01*
X0134896Y0196833D02*
X0135138Y0196755D01*
X0135378Y0196671D01*
X0135616Y0196582D01*
X0135852Y0196486D01*
X0136086Y0196385D01*
X0136317Y0196279D01*
X0136545Y0196166D01*
X0136771Y0196049D01*
X0136994Y0195926D01*
X0137213Y0195797D01*
X0137430Y0195663D01*
X0137643Y0195524D01*
X0137853Y0195380D01*
X0138059Y0195231D01*
X0138261Y0195077D01*
X0138460Y0194918D01*
X0138655Y0194754D01*
X0138846Y0194585D01*
X0139032Y0194412D01*
X0139215Y0194235D01*
X0139393Y0194053D01*
X0139566Y0193867D01*
X0139735Y0193676D01*
X0139899Y0193482D01*
X0140059Y0193284D01*
X0140214Y0193082D01*
X0140363Y0192876D01*
X0140508Y0192667D01*
X0140648Y0192454D01*
X0140782Y0192238D01*
X0140911Y0192018D01*
X0141035Y0191796D01*
X0141154Y0191571D01*
X0141266Y0191343D01*
X0141374Y0191112D01*
X0141475Y0190879D01*
X0141571Y0190643D01*
X0141662Y0190405D01*
X0141746Y0190165D01*
X0141825Y0189923D01*
X0141898Y0189679D01*
X0141964Y0189433D01*
X0142025Y0189186D01*
X0142080Y0188938D01*
X0142129Y0188688D01*
X0142172Y0188437D01*
X0142208Y0188185D01*
X0142239Y0187933D01*
X0142263Y0187679D01*
X0142281Y0187426D01*
X0142293Y0187171D01*
X0142299Y0186917D01*
X0142299Y0186662D01*
X0142293Y0186408D01*
X0142280Y0186154D01*
X0142261Y0185900D01*
X0142236Y0185647D01*
X0142205Y0185394D01*
X0142168Y0185142D01*
X0142125Y0184892D01*
X0142076Y0184642D01*
X0142021Y0184393D01*
X0141959Y0184146D01*
X0141892Y0183901D01*
X0141819Y0183657D01*
X0141740Y0183415D01*
X0141655Y0183176D01*
X0141564Y0182938D01*
X0141467Y0182702D01*
X0141365Y0182469D01*
X0141257Y0182239D01*
X0141144Y0182011D01*
X0141025Y0181786D01*
X0140901Y0181564D01*
X0140772Y0181345D01*
X0140637Y0181129D01*
X0140497Y0180916D01*
X0140351Y0180707D01*
X0140201Y0180502D01*
X0140046Y0180300D01*
X0121348Y0185800D02*
X0121326Y0186055D01*
X0121311Y0186311D01*
X0121303Y0186567D01*
X0121300Y0186824D01*
X0121304Y0187080D01*
X0121314Y0187336D01*
X0121330Y0187592D01*
X0121352Y0187847D01*
X0121381Y0188102D01*
X0121416Y0188356D01*
X0121457Y0188609D01*
X0121504Y0188861D01*
X0121558Y0189111D01*
X0121617Y0189360D01*
X0121683Y0189608D01*
X0121754Y0189854D01*
X0121832Y0190099D01*
X0121915Y0190341D01*
X0122004Y0190581D01*
X0122100Y0190819D01*
X0122201Y0191055D01*
X0122307Y0191288D01*
X0122420Y0191518D01*
X0122538Y0191746D01*
X0122661Y0191970D01*
X0122790Y0192192D01*
X0122924Y0192410D01*
X0123064Y0192625D01*
X0123209Y0192836D01*
X0123359Y0193044D01*
X0123513Y0193248D01*
X0123673Y0193449D01*
X0123838Y0193645D01*
X0124007Y0193837D01*
X0124182Y0194026D01*
X0124360Y0194209D01*
X0124543Y0194389D01*
X0124731Y0194564D01*
X0124922Y0194734D01*
X0125118Y0194899D01*
X0125318Y0195060D01*
X0125521Y0195216D01*
X0125728Y0195366D01*
X0125939Y0195512D01*
X0126154Y0195653D01*
X0126371Y0195788D01*
X0126592Y0195918D01*
X0126816Y0196042D01*
X0127043Y0196161D01*
X0127273Y0196274D01*
X0127506Y0196382D01*
X0127741Y0196484D01*
X0127979Y0196580D01*
X0128218Y0196670D01*
X0128460Y0196755D01*
X0128704Y0196833D01*
X0144550Y0194054D02*
X0144550Y0190301D01*
X0145301Y0189550D01*
X0146802Y0189550D01*
X0147553Y0190301D01*
X0162966Y0186554D02*
X0165968Y0186554D01*
X0165968Y0185803D01*
X0187548Y0195420D02*
X0189133Y0195420D01*
X0189450Y0195737D01*
X0189450Y0196371D01*
X0189133Y0196688D01*
X0187548Y0196688D01*
X0187865Y0197630D02*
X0187548Y0197947D01*
X0187548Y0198581D01*
X0187865Y0198898D01*
X0188499Y0198581D02*
X0188499Y0197947D01*
X0188182Y0197630D01*
X0187865Y0197630D01*
X0187231Y0198264D02*
X0189767Y0198264D01*
X0189450Y0197947D02*
X0189450Y0198581D01*
X0189133Y0198898D01*
X0188816Y0198898D01*
X0188499Y0198581D01*
X0189133Y0197630D02*
X0189450Y0197947D01*
X0189133Y0199840D02*
X0188816Y0199840D01*
X0188499Y0200157D01*
X0188499Y0200791D01*
X0188816Y0201108D01*
X0189133Y0201108D01*
X0189450Y0200791D01*
X0189450Y0200157D01*
X0189133Y0199840D01*
X0188499Y0200157D02*
X0188182Y0199840D01*
X0187865Y0199840D01*
X0187548Y0200157D01*
X0187548Y0200791D01*
X0187865Y0201108D01*
X0188182Y0201108D01*
X0188499Y0200791D01*
X0201800Y0196800D02*
X0206800Y0191800D01*
X0206800Y0201800D01*
X0201800Y0196800D01*
X0201867Y0196733D02*
X0206800Y0196733D01*
X0206800Y0197231D02*
X0202231Y0197231D01*
X0202730Y0197730D02*
X0206800Y0197730D01*
X0206800Y0198228D02*
X0203228Y0198228D01*
X0203727Y0198727D02*
X0206800Y0198727D01*
X0206800Y0199225D02*
X0204225Y0199225D01*
X0204724Y0199724D02*
X0206800Y0199724D01*
X0206800Y0200222D02*
X0205222Y0200222D01*
X0205721Y0200721D02*
X0206800Y0200721D01*
X0206800Y0201219D02*
X0206219Y0201219D01*
X0206718Y0201718D02*
X0206800Y0201718D01*
X0206800Y0196234D02*
X0202366Y0196234D01*
X0202864Y0195736D02*
X0206800Y0195736D01*
X0206800Y0195237D02*
X0203363Y0195237D01*
X0203861Y0194739D02*
X0206800Y0194739D01*
X0206800Y0194240D02*
X0204360Y0194240D01*
X0204858Y0193742D02*
X0206800Y0193742D01*
X0206800Y0193243D02*
X0205357Y0193243D01*
X0205855Y0192745D02*
X0206800Y0192745D01*
X0206800Y0192246D02*
X0206354Y0192246D01*
X0188133Y0166108D02*
X0187816Y0166108D01*
X0187499Y0165791D01*
X0187499Y0165474D01*
X0187499Y0165791D02*
X0187182Y0166108D01*
X0186865Y0166108D01*
X0186548Y0165791D01*
X0186548Y0165157D01*
X0186865Y0164840D01*
X0186548Y0163898D02*
X0186548Y0162630D01*
X0186548Y0163264D02*
X0188450Y0163264D01*
X0188450Y0161791D02*
X0188450Y0161157D01*
X0188450Y0161474D02*
X0186548Y0161474D01*
X0186548Y0161157D02*
X0186548Y0161791D01*
X0186548Y0160215D02*
X0187816Y0158947D01*
X0187499Y0159264D02*
X0188450Y0160215D01*
X0188450Y0158947D02*
X0186548Y0158947D01*
X0186865Y0158005D02*
X0186548Y0157688D01*
X0186548Y0157054D01*
X0186865Y0156737D01*
X0188133Y0156737D01*
X0188450Y0157054D01*
X0188450Y0157688D01*
X0188133Y0158005D01*
X0188450Y0155898D02*
X0188450Y0155264D01*
X0188450Y0155581D02*
X0186548Y0155581D01*
X0186548Y0155264D02*
X0186548Y0155898D01*
X0186865Y0154322D02*
X0187499Y0154322D01*
X0187816Y0154005D01*
X0187816Y0153054D01*
X0188450Y0153054D02*
X0186548Y0153054D01*
X0186548Y0154005D01*
X0186865Y0154322D01*
X0188133Y0164840D02*
X0188450Y0165157D01*
X0188450Y0165791D01*
X0188133Y0166108D01*
X0202965Y0086577D02*
X0202648Y0086260D01*
X0202648Y0085626D01*
X0202965Y0085309D01*
X0203282Y0085309D01*
X0203599Y0085626D01*
X0203599Y0086260D01*
X0203916Y0086577D01*
X0204233Y0086577D01*
X0204550Y0086260D01*
X0204550Y0085626D01*
X0204233Y0085309D01*
X0203916Y0085309D01*
X0203599Y0085626D01*
X0203599Y0086260D02*
X0203282Y0086577D01*
X0202965Y0086577D01*
X0202965Y0084367D02*
X0202648Y0084050D01*
X0202648Y0083416D01*
X0202965Y0083099D01*
X0204233Y0083099D01*
X0202965Y0084367D01*
X0204233Y0084367D01*
X0204550Y0084050D01*
X0204550Y0083416D01*
X0204233Y0083099D01*
X0204867Y0082157D02*
X0204867Y0080890D01*
X0204550Y0079947D02*
X0202648Y0079947D01*
X0202648Y0078680D02*
X0204550Y0079947D01*
X0204550Y0078680D02*
X0202648Y0078680D01*
X0202648Y0077738D02*
X0204550Y0077738D01*
X0202648Y0076470D01*
X0204550Y0076470D01*
X0204233Y0075528D02*
X0202965Y0075528D01*
X0202648Y0075211D01*
X0202648Y0074577D01*
X0202965Y0074260D01*
X0204233Y0074260D01*
X0204550Y0074577D01*
X0204550Y0075211D01*
X0204233Y0075528D01*
X0204233Y0073318D02*
X0204550Y0073001D01*
X0204550Y0072367D01*
X0204233Y0072050D01*
X0202965Y0072050D01*
X0202648Y0072367D01*
X0202648Y0073001D01*
X0202965Y0073318D01*
X0087550Y0054164D02*
X0083046Y0054164D01*
X0083046Y0057166D01*
X0085298Y0055665D02*
X0085298Y0054164D01*
X0084547Y0052562D02*
X0087550Y0052562D01*
X0087550Y0050310D01*
X0086799Y0049560D01*
X0084547Y0049560D01*
X0087550Y0047958D02*
X0087550Y0044956D01*
X0087550Y0046457D02*
X0083046Y0046457D01*
X0084547Y0044956D01*
X0086799Y0043405D02*
X0087550Y0043405D01*
X0087550Y0042654D01*
X0086799Y0042654D01*
X0086799Y0043405D01*
X0086799Y0041053D02*
X0083797Y0041053D01*
X0086799Y0038050D01*
X0087550Y0038801D01*
X0087550Y0040302D01*
X0086799Y0041053D01*
X0083797Y0041053D02*
X0083046Y0040302D01*
X0083046Y0038801D01*
X0083797Y0038050D01*
X0086799Y0038050D01*
X0070550Y0038801D02*
X0070550Y0040302D01*
X0069799Y0041053D01*
X0070550Y0042654D02*
X0067547Y0045656D01*
X0066797Y0045656D01*
X0066046Y0044906D01*
X0066046Y0043405D01*
X0066797Y0042654D01*
X0066797Y0041053D02*
X0066046Y0040302D01*
X0066046Y0038801D01*
X0066797Y0038050D01*
X0069799Y0038050D01*
X0070550Y0038801D01*
X0070550Y0042654D02*
X0070550Y0045656D01*
X0057449Y0051801D02*
X0056698Y0051050D01*
X0055197Y0051050D01*
X0054446Y0051801D01*
X0052845Y0051050D02*
X0051343Y0052551D01*
X0051099Y0052447D02*
X0051416Y0052130D01*
X0051416Y0051180D01*
X0051416Y0051814D02*
X0052050Y0052447D01*
X0052094Y0052551D02*
X0049842Y0052551D01*
X0050148Y0052130D02*
X0050465Y0052447D01*
X0051099Y0052447D01*
X0052094Y0052551D02*
X0052845Y0053302D01*
X0052845Y0054803D01*
X0052094Y0055554D01*
X0049842Y0055554D01*
X0049842Y0051050D01*
X0050148Y0051180D02*
X0050148Y0052130D01*
X0050148Y0051180D02*
X0052050Y0051180D01*
X0052050Y0050237D02*
X0052050Y0048970D01*
X0050148Y0048970D01*
X0050148Y0050237D01*
X0051099Y0049604D02*
X0051099Y0048970D01*
X0051416Y0048028D02*
X0051099Y0047711D01*
X0051099Y0047077D01*
X0050782Y0046760D01*
X0050465Y0046760D01*
X0050148Y0047077D01*
X0050148Y0047711D01*
X0050465Y0048028D01*
X0051416Y0048028D02*
X0051733Y0048028D01*
X0052050Y0047711D01*
X0052050Y0047077D01*
X0051733Y0046760D01*
X0051733Y0045818D02*
X0050148Y0045818D01*
X0050148Y0044550D02*
X0051733Y0044550D01*
X0052050Y0044867D01*
X0052050Y0045501D01*
X0051733Y0045818D01*
X0048550Y0045501D02*
X0048233Y0045818D01*
X0046648Y0045818D01*
X0046965Y0046760D02*
X0046648Y0047077D01*
X0046648Y0047711D01*
X0046965Y0048028D01*
X0047599Y0047711D02*
X0047599Y0047077D01*
X0047282Y0046760D01*
X0046965Y0046760D01*
X0046331Y0047394D02*
X0048867Y0047394D01*
X0048550Y0047711D02*
X0048233Y0048028D01*
X0047916Y0048028D01*
X0047599Y0047711D01*
X0048550Y0047711D02*
X0048550Y0047077D01*
X0048233Y0046760D01*
X0048550Y0045501D02*
X0048550Y0044867D01*
X0048233Y0044550D01*
X0046648Y0044550D01*
X0046648Y0048970D02*
X0047599Y0048970D01*
X0047282Y0049604D01*
X0047282Y0049921D01*
X0047599Y0050237D01*
X0048233Y0050237D01*
X0048550Y0049921D01*
X0048550Y0049287D01*
X0048233Y0048970D01*
X0046648Y0048970D02*
X0046648Y0050237D01*
X0054446Y0054803D02*
X0055197Y0055554D01*
X0056698Y0055554D01*
X0057449Y0054803D01*
X0057449Y0054053D01*
X0056698Y0053302D01*
X0057449Y0052551D01*
X0057449Y0051801D01*
X0056698Y0053302D02*
X0055947Y0053302D01*
X0054365Y0059550D02*
X0052113Y0061051D01*
X0054365Y0062553D01*
X0052113Y0064054D02*
X0052113Y0059550D01*
X0050512Y0060301D02*
X0049761Y0059550D01*
X0048260Y0059550D01*
X0047509Y0060301D01*
X0050512Y0063303D01*
X0050512Y0060301D01*
X0050512Y0063303D02*
X0049761Y0064054D01*
X0048260Y0064054D01*
X0047509Y0063303D01*
X0047509Y0060301D01*
X0045908Y0059550D02*
X0042906Y0059550D01*
X0044407Y0059550D02*
X0044407Y0064054D01*
X0042906Y0062553D01*
X0049842Y0066050D02*
X0049842Y0070554D01*
X0052094Y0070554D01*
X0052845Y0069803D01*
X0052845Y0068302D01*
X0052094Y0067551D01*
X0049842Y0067551D01*
X0051343Y0067551D02*
X0052845Y0066050D01*
X0054446Y0068302D02*
X0057449Y0068302D01*
X0056698Y0066050D02*
X0056698Y0070554D01*
X0054446Y0068302D01*
X0054365Y0074550D02*
X0052113Y0076051D01*
X0054365Y0077553D01*
X0052113Y0079054D02*
X0052113Y0074550D01*
X0050512Y0075301D02*
X0049761Y0074550D01*
X0048260Y0074550D01*
X0047509Y0075301D01*
X0050512Y0078303D01*
X0050512Y0075301D01*
X0050512Y0078303D02*
X0049761Y0079054D01*
X0048260Y0079054D01*
X0047509Y0078303D01*
X0047509Y0075301D01*
X0045908Y0074550D02*
X0042906Y0074550D01*
X0044407Y0074550D02*
X0044407Y0079054D01*
X0042906Y0077553D01*
X0024867Y0078390D02*
X0024867Y0079657D01*
X0024233Y0080599D02*
X0022965Y0081867D01*
X0024233Y0081867D01*
X0024550Y0081550D01*
X0024550Y0080916D01*
X0024233Y0080599D01*
X0022965Y0080599D01*
X0022648Y0080916D01*
X0022648Y0081550D01*
X0022965Y0081867D01*
X0022965Y0082809D02*
X0023282Y0082809D01*
X0023599Y0083126D01*
X0023599Y0083760D01*
X0023916Y0084077D01*
X0024233Y0084077D01*
X0024550Y0083760D01*
X0024550Y0083126D01*
X0024233Y0082809D01*
X0023916Y0082809D01*
X0023599Y0083126D01*
X0023599Y0083760D02*
X0023282Y0084077D01*
X0022965Y0084077D01*
X0022648Y0083760D01*
X0022648Y0083126D01*
X0022965Y0082809D01*
X0022648Y0077447D02*
X0024550Y0077447D01*
X0022648Y0076180D01*
X0024550Y0076180D01*
X0024550Y0075238D02*
X0022648Y0075238D01*
X0022648Y0073970D02*
X0024550Y0075238D01*
X0024550Y0073970D02*
X0022648Y0073970D01*
X0022965Y0073028D02*
X0022648Y0072711D01*
X0022648Y0072077D01*
X0022965Y0071760D01*
X0024233Y0071760D01*
X0024550Y0072077D01*
X0024550Y0072711D01*
X0024233Y0073028D01*
X0022965Y0073028D01*
X0022965Y0070818D02*
X0022648Y0070501D01*
X0022648Y0069867D01*
X0022965Y0069550D01*
X0024233Y0069550D01*
X0024550Y0069867D01*
X0024550Y0070501D01*
X0024233Y0070818D01*
X0011367Y0072394D02*
X0008831Y0072394D01*
X0009148Y0072077D02*
X0009148Y0072711D01*
X0009465Y0073028D01*
X0010099Y0072711D02*
X0010099Y0072077D01*
X0009782Y0071760D01*
X0009465Y0071760D01*
X0009148Y0072077D01*
X0010099Y0072711D02*
X0010416Y0073028D01*
X0010733Y0073028D01*
X0011050Y0072711D01*
X0011050Y0072077D01*
X0010733Y0071760D01*
X0010733Y0070818D02*
X0009148Y0070818D01*
X0009148Y0069550D02*
X0010733Y0069550D01*
X0011050Y0069867D01*
X0011050Y0070501D01*
X0010733Y0070818D01*
X0010733Y0073970D02*
X0011050Y0073970D01*
X0010733Y0073970D02*
X0009465Y0075238D01*
X0009148Y0075238D01*
X0009148Y0073970D01*
X0025148Y0054657D02*
X0025148Y0053390D01*
X0025148Y0054023D02*
X0027050Y0054023D01*
X0027050Y0052447D02*
X0027050Y0051180D01*
X0025148Y0051180D01*
X0025148Y0052447D01*
X0026099Y0051814D02*
X0026099Y0051180D01*
X0026416Y0050237D02*
X0026733Y0050237D01*
X0027050Y0049921D01*
X0027050Y0049287D01*
X0026733Y0048970D01*
X0026099Y0049287D02*
X0025782Y0048970D01*
X0025465Y0048970D01*
X0025148Y0049287D01*
X0025148Y0049921D01*
X0025465Y0050237D01*
X0026099Y0049921D02*
X0026416Y0050237D01*
X0026099Y0049921D02*
X0026099Y0049287D01*
X0025148Y0048028D02*
X0025148Y0046760D01*
X0027050Y0046760D01*
X0027050Y0048028D01*
X0026099Y0047394D02*
X0026099Y0046760D01*
X0026099Y0045818D02*
X0026416Y0045501D01*
X0026416Y0044550D01*
X0026416Y0045184D02*
X0027050Y0045818D01*
X0026099Y0045818D02*
X0025465Y0045818D01*
X0025148Y0045501D01*
X0025148Y0044550D01*
X0027050Y0044550D01*
X0023550Y0044867D02*
X0023550Y0045501D01*
X0023233Y0045818D01*
X0021648Y0045818D01*
X0021965Y0046760D02*
X0021648Y0047077D01*
X0021648Y0047711D01*
X0021965Y0048028D01*
X0022599Y0047711D02*
X0022599Y0047077D01*
X0022282Y0046760D01*
X0021965Y0046760D01*
X0021331Y0047394D02*
X0023867Y0047394D01*
X0023550Y0047711D02*
X0023233Y0048028D01*
X0022916Y0048028D01*
X0022599Y0047711D01*
X0023550Y0047711D02*
X0023550Y0047077D01*
X0023233Y0046760D01*
X0023550Y0044867D02*
X0023233Y0044550D01*
X0021648Y0044550D01*
X0022599Y0048970D02*
X0022599Y0050237D01*
X0021648Y0049921D02*
X0022599Y0048970D01*
X0023550Y0049921D02*
X0021648Y0049921D01*
X0026800Y0031800D02*
X0026800Y0029300D01*
X0024300Y0024300D01*
X0026800Y0024300D02*
X0026800Y0021800D01*
X0049300Y0024300D02*
X0051800Y0029300D01*
X0051800Y0031800D01*
X0051800Y0024300D02*
X0051800Y0021800D01*
X0069365Y0083210D02*
X0069682Y0083210D01*
X0069999Y0083527D01*
X0069999Y0084161D01*
X0070316Y0084478D01*
X0070633Y0084478D01*
X0070950Y0084161D01*
X0070950Y0083527D01*
X0070633Y0083210D01*
X0070316Y0083210D01*
X0069999Y0083527D01*
X0069999Y0084161D02*
X0069682Y0084478D01*
X0069365Y0084478D01*
X0069048Y0084161D01*
X0069048Y0083527D01*
X0069365Y0083210D01*
X0069048Y0085420D02*
X0069682Y0086054D01*
X0069048Y0086688D01*
X0070950Y0086688D01*
X0070950Y0087630D02*
X0069048Y0087630D01*
X0069999Y0087630D02*
X0069999Y0088898D01*
X0069048Y0088898D02*
X0070950Y0088898D01*
X0070950Y0089840D02*
X0069682Y0091108D01*
X0069682Y0089840D01*
X0070950Y0089840D02*
X0070950Y0091108D01*
X0070950Y0085420D02*
X0069048Y0085420D01*
X0082231Y0088264D02*
X0084767Y0088264D01*
X0084450Y0087947D02*
X0084450Y0088581D01*
X0084133Y0088898D01*
X0083816Y0088898D01*
X0083499Y0088581D01*
X0083499Y0087947D01*
X0083182Y0087630D01*
X0082865Y0087630D01*
X0082548Y0087947D01*
X0082548Y0088581D01*
X0082865Y0088898D01*
X0082865Y0089840D02*
X0083182Y0089840D01*
X0083499Y0090157D01*
X0083499Y0091108D01*
X0084133Y0091108D02*
X0082865Y0091108D01*
X0082548Y0090791D01*
X0082548Y0090157D01*
X0082865Y0089840D01*
X0084133Y0089840D02*
X0084450Y0090157D01*
X0084450Y0090791D01*
X0084133Y0091108D01*
X0084450Y0087947D02*
X0084133Y0087630D01*
X0084133Y0086688D02*
X0082548Y0086688D01*
X0082548Y0085420D02*
X0084133Y0085420D01*
X0084450Y0085737D01*
X0084450Y0086371D01*
X0084133Y0086688D01*
D14*
X0158800Y0091800D03*
X0158800Y0116800D03*
D15*
X0116950Y0192000D02*
X0113881Y0192000D01*
X0113881Y0196604D01*
X0116950Y0196604D01*
X0113881Y0196604D01*
X0113881Y0192000D01*
X0116950Y0192000D01*
X0115416Y0194302D02*
X0113881Y0194302D01*
X0115416Y0194302D01*
X0112346Y0195837D02*
X0111579Y0196604D01*
X0109277Y0196604D01*
X0109277Y0192000D01*
X0111579Y0192000D01*
X0112346Y0192767D01*
X0112346Y0195837D01*
X0111579Y0196604D01*
X0109277Y0196604D01*
X0109277Y0192000D01*
X0111579Y0192000D01*
X0112346Y0192767D01*
X0112346Y0195837D01*
X0107742Y0196604D02*
X0106208Y0196604D01*
X0107742Y0196604D01*
X0106975Y0196604D02*
X0106975Y0192000D01*
X0106975Y0196604D01*
X0106208Y0202000D02*
X0109277Y0205069D01*
X0109277Y0205837D01*
X0108510Y0206604D01*
X0106975Y0206604D01*
X0106208Y0205837D01*
X0104673Y0205837D02*
X0103906Y0206604D01*
X0102371Y0206604D01*
X0101604Y0205837D01*
X0101604Y0205069D01*
X0102371Y0204302D01*
X0103906Y0204302D01*
X0104673Y0203535D01*
X0104673Y0202767D01*
X0103906Y0202000D01*
X0102371Y0202000D01*
X0101604Y0202767D01*
X0100069Y0202767D02*
X0100069Y0206604D01*
X0097000Y0206604D02*
X0097000Y0202767D01*
X0097767Y0202000D01*
X0099302Y0202000D01*
X0100069Y0202767D01*
X0103139Y0201233D02*
X0103139Y0207371D01*
X0106208Y0202000D02*
X0109277Y0202000D01*
X0101604Y0196604D02*
X0101604Y0192000D01*
X0104673Y0192000D01*
X0101604Y0192000D01*
X0101604Y0196604D01*
X0100069Y0195837D02*
X0099302Y0196604D01*
X0097767Y0196604D01*
X0097000Y0195837D01*
X0097000Y0195069D01*
X0097767Y0194302D01*
X0099302Y0194302D01*
X0100069Y0193535D01*
X0100069Y0192767D01*
X0099302Y0192000D01*
X0097767Y0192000D01*
X0097000Y0192767D01*
X0097767Y0192000D01*
X0099302Y0192000D01*
X0100069Y0192767D01*
X0100069Y0193535D01*
X0099302Y0194302D01*
X0097767Y0194302D01*
X0097000Y0195069D01*
X0097000Y0195837D01*
X0097767Y0196604D01*
X0099302Y0196604D01*
X0100069Y0195837D01*
X0106208Y0192000D02*
X0107742Y0192000D01*
X0106208Y0192000D01*
X0045579Y0153457D02*
X0042509Y0153457D01*
X0044044Y0153457D02*
X0044044Y0158061D01*
X0042509Y0156526D01*
X0040975Y0158061D02*
X0039440Y0158061D01*
X0040207Y0158061D02*
X0040207Y0154224D01*
X0039440Y0153457D01*
X0038673Y0153457D01*
X0037906Y0154224D01*
D16*
X0146800Y0066000D03*
X0171800Y0066000D03*
X0171800Y0037600D03*
X0146800Y0037600D03*
D17*
X0061000Y0061800D03*
X0061000Y0076800D03*
X0032600Y0076800D03*
X0032600Y0061800D03*
D18*
X0103445Y0064616D02*
X0103445Y0067769D01*
X0104496Y0068819D01*
X0106597Y0068819D01*
X0107648Y0067769D01*
X0107648Y0064616D01*
X0109750Y0064616D02*
X0103445Y0064616D01*
X0103445Y0071061D02*
X0103445Y0073163D01*
X0103445Y0072112D02*
X0109750Y0072112D01*
X0109750Y0071061D02*
X0109750Y0073163D01*
X0108699Y0075358D02*
X0109750Y0076409D01*
X0109750Y0078511D01*
X0108699Y0079562D01*
X0108699Y0081804D02*
X0109750Y0082855D01*
X0109750Y0084957D01*
X0108699Y0086007D01*
X0107648Y0086007D01*
X0106597Y0084957D01*
X0106597Y0083906D01*
X0106597Y0084957D02*
X0105546Y0086007D01*
X0104496Y0086007D01*
X0103445Y0084957D01*
X0103445Y0082855D01*
X0104496Y0081804D01*
X0104496Y0079562D02*
X0103445Y0078511D01*
X0103445Y0076409D01*
X0104496Y0075358D01*
X0108699Y0075358D01*
X0109750Y0088249D02*
X0105546Y0092453D01*
X0104496Y0092453D01*
X0103445Y0091402D01*
X0103445Y0089300D01*
X0104496Y0088249D01*
X0109750Y0088249D02*
X0109750Y0092453D01*
X0109750Y0094695D02*
X0103445Y0094695D01*
X0105546Y0096797D01*
X0103445Y0098898D01*
X0109750Y0098898D01*
X0109750Y0101140D02*
X0103445Y0105344D01*
X0104496Y0107586D02*
X0103445Y0108637D01*
X0103445Y0110739D01*
X0104496Y0111789D01*
X0105546Y0111789D01*
X0109750Y0107586D01*
X0109750Y0111789D01*
X0108699Y0114031D02*
X0109750Y0115082D01*
X0109750Y0117184D01*
X0108699Y0118235D01*
X0106597Y0118235D01*
X0105546Y0117184D01*
X0105546Y0116133D01*
X0106597Y0114031D01*
X0103445Y0114031D01*
X0103445Y0118235D01*
X0104496Y0120477D02*
X0103445Y0121528D01*
X0103445Y0123630D01*
X0104496Y0124680D01*
X0108699Y0120477D01*
X0109750Y0121528D01*
X0109750Y0123630D01*
X0108699Y0124680D01*
X0104496Y0124680D01*
X0103445Y0126922D02*
X0103445Y0131126D01*
X0105546Y0133368D02*
X0103445Y0135470D01*
X0109750Y0135470D01*
X0109750Y0137571D02*
X0109750Y0133368D01*
X0106597Y0129024D02*
X0106597Y0126922D01*
X0103445Y0126922D02*
X0109750Y0126922D01*
X0108699Y0120477D02*
X0104496Y0120477D01*
X0109750Y0105344D02*
X0103445Y0101140D01*
X0104496Y0139813D02*
X0103445Y0140864D01*
X0103445Y0142966D01*
X0104496Y0144017D01*
X0105546Y0144017D01*
X0109750Y0139813D01*
X0109750Y0144017D01*
X0108699Y0146259D02*
X0107648Y0146259D01*
X0106597Y0147310D01*
X0106597Y0149412D01*
X0107648Y0150462D01*
X0108699Y0150462D01*
X0109750Y0149412D01*
X0109750Y0147310D01*
X0108699Y0146259D01*
X0106597Y0147310D02*
X0105546Y0146259D01*
X0104496Y0146259D01*
X0103445Y0147310D01*
X0103445Y0149412D01*
X0104496Y0150462D01*
X0105546Y0150462D01*
X0106597Y0149412D01*
X0106597Y0152704D02*
X0106597Y0155857D01*
X0107648Y0156908D01*
X0108699Y0156908D01*
X0109750Y0155857D01*
X0109750Y0152704D01*
X0103445Y0152704D01*
X0103445Y0155857D01*
X0104496Y0156908D01*
X0105546Y0156908D01*
X0106597Y0155857D01*
X0105697Y0166599D02*
X0105697Y0175006D01*
X0104646Y0173955D02*
X0106748Y0173955D01*
X0107799Y0172904D01*
X0106748Y0170803D02*
X0104646Y0170803D01*
X0103595Y0171854D01*
X0103595Y0172904D01*
X0104646Y0173955D01*
X0101354Y0173955D02*
X0101354Y0168701D01*
X0100303Y0167650D01*
X0098201Y0167650D01*
X0097150Y0168701D01*
X0097150Y0173955D01*
X0103595Y0168701D02*
X0104646Y0167650D01*
X0106748Y0167650D01*
X0107799Y0168701D01*
X0107799Y0169752D01*
X0106748Y0170803D01*
X0110041Y0171854D02*
X0112143Y0173955D01*
X0112143Y0167650D01*
X0110041Y0167650D02*
X0114245Y0167650D01*
D19*
X0093729Y0183335D02*
X0093729Y0200265D01*
X0059871Y0200265D01*
X0059871Y0183335D01*
X0093729Y0183335D01*
X0084674Y0201643D02*
X0084674Y0207548D01*
X0082706Y0207548D01*
X0080737Y0205580D01*
X0078769Y0207548D01*
X0076800Y0207548D01*
X0076800Y0201643D01*
D20*
X0074300Y0091800D02*
X0071800Y0089300D01*
X0071800Y0064300D01*
X0074300Y0061800D01*
X0079300Y0061800D01*
X0081800Y0064300D01*
X0081800Y0089300D01*
X0079300Y0091800D01*
X0074300Y0091800D01*
X0054300Y0041800D02*
X0049300Y0041800D01*
X0046800Y0039300D01*
X0041800Y0036800D01*
X0041800Y0016800D01*
X0046800Y0014300D01*
X0049300Y0011800D01*
X0054300Y0011800D01*
X0056800Y0014300D01*
X0061800Y0016800D01*
X0061800Y0036800D01*
X0056800Y0039300D01*
X0054300Y0041800D01*
X0036800Y0036800D02*
X0036800Y0016800D01*
X0031800Y0014300D01*
X0029300Y0011800D01*
X0024300Y0011800D01*
X0021800Y0014300D01*
X0016800Y0016800D01*
X0016800Y0036800D01*
X0021800Y0039300D01*
X0024300Y0041800D01*
X0029300Y0041800D01*
X0031800Y0039300D01*
X0036800Y0036800D01*
M02*
