G75*
%MOIN*%
%OFA0B0*%
%FSLAX25Y25*%
%IPPOS*%
%LPD*%
%AMOC8*
5,1,8,0,0,1.08239X$1,22.5*
%
%ADD10C,0.00000*%
%ADD11OC8,0.05200*%
%ADD12C,0.05200*%
%ADD13C,0.05150*%
%ADD14C,0.11220*%
%ADD15C,0.05200*%
%ADD16C,0.05937*%
%ADD17C,0.07400*%
%ADD18C,0.01600*%
%ADD19C,0.03569*%
D10*
X0006800Y0006800D02*
X0006800Y0203650D01*
X0203650Y0203650D01*
X0203650Y0006800D01*
X0006800Y0006800D01*
D11*
X0026800Y0061800D03*
X0026800Y0076800D03*
X0066800Y0076800D03*
X0066800Y0061800D03*
X0076800Y0051800D03*
X0076800Y0041800D03*
X0126800Y0016800D03*
X0136800Y0016800D03*
X0146800Y0031800D03*
X0161800Y0016800D03*
X0171800Y0016800D03*
X0171800Y0031800D03*
X0171800Y0071800D03*
X0166800Y0091800D03*
X0146800Y0071800D03*
X0166800Y0116800D03*
X0166800Y0136800D03*
X0166800Y0146800D03*
X0166800Y0166800D03*
X0176800Y0166800D03*
X0146800Y0166800D03*
X0146800Y0156800D03*
X0136800Y0186800D03*
X0131800Y0194300D03*
X0126800Y0186800D03*
D12*
X0146800Y0116800D03*
X0146800Y0091800D03*
D13*
X0084674Y0191800D03*
X0076800Y0191800D03*
X0068926Y0191800D03*
X0038099Y0161721D03*
X0034950Y0166446D03*
X0031800Y0161721D03*
X0028650Y0166446D03*
X0025501Y0161721D03*
D14*
X0017430Y0181800D03*
X0046170Y0181800D03*
D15*
X0089200Y0161800D02*
X0094400Y0161800D01*
X0094400Y0151800D02*
X0089200Y0151800D01*
X0089200Y0141800D02*
X0094400Y0141800D01*
X0094400Y0131800D02*
X0089200Y0131800D01*
X0089200Y0121800D02*
X0094400Y0121800D01*
X0094400Y0111800D02*
X0089200Y0111800D01*
X0089200Y0101800D02*
X0094400Y0101800D01*
X0094400Y0091800D02*
X0089200Y0091800D01*
X0089200Y0081800D02*
X0094400Y0081800D01*
X0094400Y0071800D02*
X0089200Y0071800D01*
X0089200Y0061800D02*
X0094400Y0061800D01*
X0094400Y0051800D02*
X0089200Y0051800D01*
X0089200Y0041800D02*
X0094400Y0041800D01*
X0094400Y0031800D02*
X0089200Y0031800D01*
X0119200Y0031800D02*
X0124400Y0031800D01*
X0124400Y0041800D02*
X0119200Y0041800D01*
X0119200Y0051800D02*
X0124400Y0051800D01*
X0124400Y0061800D02*
X0119200Y0061800D01*
X0119200Y0071800D02*
X0124400Y0071800D01*
X0124400Y0081800D02*
X0119200Y0081800D01*
X0119200Y0091800D02*
X0124400Y0091800D01*
X0124400Y0101800D02*
X0119200Y0101800D01*
X0119200Y0111800D02*
X0124400Y0111800D01*
X0124400Y0121800D02*
X0119200Y0121800D01*
X0119200Y0131800D02*
X0124400Y0131800D01*
X0124400Y0141800D02*
X0119200Y0141800D01*
X0119200Y0151800D02*
X0124400Y0151800D01*
X0124400Y0161800D02*
X0119200Y0161800D01*
D16*
X0092548Y0191800D03*
X0061052Y0191800D03*
D17*
X0016800Y0144300D03*
X0016800Y0134300D03*
X0016800Y0124300D03*
X0016800Y0114300D03*
X0016800Y0104300D03*
X0016800Y0094300D03*
X0016800Y0084300D03*
X0016800Y0074300D03*
X0026800Y0036800D03*
X0026800Y0016800D03*
X0051800Y0016800D03*
X0051800Y0036800D03*
X0076800Y0066800D03*
X0076800Y0076800D03*
X0076800Y0086800D03*
X0196800Y0086800D03*
X0196800Y0076800D03*
X0196800Y0096800D03*
X0196800Y0106800D03*
X0196800Y0116800D03*
X0196800Y0126800D03*
X0196800Y0136800D03*
X0196800Y0146800D03*
X0196800Y0156800D03*
X0196800Y0166800D03*
X0196800Y0176800D03*
X0196800Y0186800D03*
X0196800Y0196800D03*
D18*
X0176800Y0196800D01*
X0156800Y0176800D01*
X0126800Y0176800D01*
X0111800Y0161800D01*
X0091800Y0161800D01*
X0095235Y0166000D02*
X0088365Y0166000D01*
X0086821Y0165361D01*
X0085639Y0164179D01*
X0085000Y0162635D01*
X0085000Y0160965D01*
X0085639Y0159421D01*
X0086821Y0158239D01*
X0088365Y0157600D01*
X0095235Y0157600D01*
X0096779Y0158239D01*
X0097940Y0159400D01*
X0112277Y0159400D01*
X0113159Y0159765D01*
X0115000Y0161606D01*
X0115000Y0160965D01*
X0115639Y0159421D01*
X0115860Y0159200D01*
X0111323Y0159200D01*
X0110441Y0158835D01*
X0109765Y0158159D01*
X0109400Y0157277D01*
X0109400Y0142794D01*
X0100806Y0134200D01*
X0097940Y0134200D01*
X0096779Y0135361D01*
X0095235Y0136000D01*
X0088365Y0136000D01*
X0086821Y0135361D01*
X0085639Y0134179D01*
X0085000Y0132635D01*
X0085000Y0130965D01*
X0085639Y0129421D01*
X0086821Y0128239D01*
X0088365Y0127600D01*
X0095235Y0127600D01*
X0096779Y0128239D01*
X0097940Y0129400D01*
X0102277Y0129400D01*
X0103159Y0129765D01*
X0113159Y0139765D01*
X0113835Y0140441D01*
X0114200Y0141323D01*
X0114200Y0154400D01*
X0115650Y0154400D01*
X0115437Y0154106D01*
X0115122Y0153489D01*
X0114908Y0152830D01*
X0114800Y0152146D01*
X0114800Y0151800D01*
X0121800Y0151800D01*
X0141800Y0151800D01*
X0142133Y0152133D01*
X0142002Y0152265D02*
X0128781Y0152265D01*
X0128800Y0152146D02*
X0128692Y0152830D01*
X0128478Y0153489D01*
X0128163Y0154106D01*
X0127950Y0154400D01*
X0139866Y0154400D01*
X0143026Y0151241D01*
X0143026Y0151241D01*
X0143701Y0150565D01*
X0144583Y0150200D01*
X0149017Y0150200D01*
X0149899Y0150565D01*
X0150574Y0151241D01*
X0153734Y0154400D01*
X0187277Y0154400D01*
X0188159Y0154765D01*
X0188835Y0155441D01*
X0191678Y0158284D01*
X0191500Y0157854D01*
X0191500Y0155746D01*
X0192307Y0153798D01*
X0193798Y0152307D01*
X0195022Y0151800D01*
X0193798Y0151293D01*
X0192307Y0149802D01*
X0192057Y0149200D01*
X0173734Y0149200D01*
X0169899Y0153035D01*
X0169017Y0153400D01*
X0164583Y0153400D01*
X0163701Y0153035D01*
X0159866Y0149200D01*
X0141323Y0149200D01*
X0140441Y0148835D01*
X0139765Y0148159D01*
X0135806Y0144200D01*
X0127940Y0144200D01*
X0126779Y0145361D01*
X0125235Y0146000D01*
X0118365Y0146000D01*
X0116821Y0145361D01*
X0115639Y0144179D01*
X0115000Y0142635D01*
X0115000Y0140965D01*
X0115639Y0139421D01*
X0115996Y0139065D01*
X0115441Y0138835D01*
X0114765Y0138159D01*
X0100806Y0124200D01*
X0097940Y0124200D01*
X0096779Y0125361D01*
X0095235Y0126000D01*
X0088365Y0126000D01*
X0086821Y0125361D01*
X0085639Y0124179D01*
X0085000Y0122635D01*
X0085000Y0120965D01*
X0085639Y0119421D01*
X0086821Y0118239D01*
X0088365Y0117600D01*
X0095235Y0117600D01*
X0096779Y0118239D01*
X0097940Y0119400D01*
X0102277Y0119400D01*
X0103159Y0119765D01*
X0115000Y0131606D01*
X0115000Y0130965D01*
X0115639Y0129421D01*
X0116821Y0128239D01*
X0118365Y0127600D01*
X0125235Y0127600D01*
X0126779Y0128239D01*
X0127940Y0129400D01*
X0192140Y0129400D01*
X0192057Y0129200D01*
X0161323Y0129200D01*
X0160441Y0128835D01*
X0159765Y0128159D01*
X0155806Y0124200D01*
X0127940Y0124200D01*
X0126779Y0125361D01*
X0125235Y0126000D01*
X0118365Y0126000D01*
X0116821Y0125361D01*
X0115639Y0124179D01*
X0115000Y0122635D01*
X0115000Y0120965D01*
X0115639Y0119421D01*
X0116821Y0118239D01*
X0118365Y0117600D01*
X0125235Y0117600D01*
X0126779Y0118239D01*
X0127940Y0119400D01*
X0143460Y0119400D01*
X0143239Y0119179D01*
X0142600Y0117635D01*
X0142600Y0115994D01*
X0140806Y0114200D01*
X0127940Y0114200D01*
X0126779Y0115361D01*
X0125235Y0116000D01*
X0118365Y0116000D01*
X0116821Y0115361D01*
X0115639Y0114179D01*
X0115000Y0112635D01*
X0115000Y0110965D01*
X0115639Y0109421D01*
X0115833Y0109227D01*
X0109765Y0103159D01*
X0109400Y0102277D01*
X0109400Y0053986D01*
X0108717Y0054669D01*
X0107473Y0055184D01*
X0106127Y0055184D01*
X0104883Y0054669D01*
X0104414Y0054200D01*
X0097940Y0054200D01*
X0096779Y0055361D01*
X0095235Y0056000D01*
X0088365Y0056000D01*
X0086821Y0055361D01*
X0085639Y0054179D01*
X0085000Y0052635D01*
X0085000Y0050965D01*
X0085639Y0049421D01*
X0086821Y0048239D01*
X0088365Y0047600D01*
X0095235Y0047600D01*
X0096779Y0048239D01*
X0097940Y0049400D01*
X0104414Y0049400D01*
X0104883Y0048931D01*
X0106127Y0048416D01*
X0107473Y0048416D01*
X0108717Y0048931D01*
X0109400Y0049614D01*
X0109400Y0044200D01*
X0097940Y0044200D01*
X0096779Y0045361D01*
X0095235Y0046000D01*
X0088365Y0046000D01*
X0086821Y0045361D01*
X0085660Y0044200D01*
X0080340Y0044200D01*
X0078540Y0046000D01*
X0075994Y0046000D01*
X0058159Y0063835D01*
X0057277Y0064200D01*
X0030340Y0064200D01*
X0028540Y0066000D01*
X0028454Y0066000D01*
X0033835Y0071380D01*
X0034200Y0072262D01*
X0034200Y0087277D01*
X0033835Y0088159D01*
X0033159Y0088835D01*
X0025659Y0096335D01*
X0024777Y0096700D01*
X0021543Y0096700D01*
X0021293Y0097302D01*
X0019802Y0098793D01*
X0018578Y0099300D01*
X0019802Y0099807D01*
X0021293Y0101298D01*
X0021543Y0101900D01*
X0053306Y0101900D01*
X0064400Y0090806D01*
X0064400Y0080340D01*
X0062600Y0078540D01*
X0062600Y0075060D01*
X0065060Y0072600D01*
X0067606Y0072600D01*
X0069100Y0071106D01*
X0069100Y0065440D01*
X0068540Y0066000D01*
X0065060Y0066000D01*
X0062600Y0063540D01*
X0062600Y0060060D01*
X0065060Y0057600D01*
X0068540Y0057600D01*
X0071000Y0060060D01*
X0071000Y0061711D01*
X0072570Y0060141D01*
X0073245Y0059465D01*
X0074127Y0059100D01*
X0085960Y0059100D01*
X0086821Y0058239D01*
X0088365Y0057600D01*
X0095235Y0057600D01*
X0096779Y0058239D01*
X0097961Y0059421D01*
X0098600Y0060965D01*
X0098600Y0062635D01*
X0097961Y0064179D01*
X0096779Y0065361D01*
X0095235Y0066000D01*
X0089394Y0066000D01*
X0090994Y0067600D01*
X0095235Y0067600D01*
X0096779Y0068239D01*
X0097961Y0069421D01*
X0098600Y0070965D01*
X0098600Y0072635D01*
X0097961Y0074179D01*
X0096779Y0075361D01*
X0095235Y0076000D01*
X0088365Y0076000D01*
X0086821Y0075361D01*
X0085639Y0074179D01*
X0085000Y0072635D01*
X0085000Y0070965D01*
X0085639Y0069421D01*
X0085833Y0069227D01*
X0085806Y0069200D01*
X0081543Y0069200D01*
X0081293Y0069802D01*
X0079802Y0071293D01*
X0078856Y0071685D01*
X0078911Y0071703D01*
X0079683Y0072096D01*
X0080383Y0072605D01*
X0080995Y0073217D01*
X0081504Y0073917D01*
X0081897Y0074689D01*
X0082165Y0075512D01*
X0082300Y0076367D01*
X0082300Y0076600D01*
X0077000Y0076600D01*
X0077000Y0077000D01*
X0082300Y0077000D01*
X0082300Y0077233D01*
X0082165Y0078088D01*
X0081897Y0078911D01*
X0081504Y0079683D01*
X0080995Y0080383D01*
X0080383Y0080995D01*
X0079683Y0081504D01*
X0078911Y0081897D01*
X0078856Y0081915D01*
X0079802Y0082307D01*
X0081293Y0083798D01*
X0081543Y0084400D01*
X0085806Y0084400D01*
X0085833Y0084373D01*
X0085639Y0084179D01*
X0085000Y0082635D01*
X0085000Y0080965D01*
X0085639Y0079421D01*
X0086821Y0078239D01*
X0088365Y0077600D01*
X0095235Y0077600D01*
X0096779Y0078239D01*
X0097961Y0079421D01*
X0098600Y0080965D01*
X0098600Y0082635D01*
X0097961Y0084179D01*
X0096779Y0085361D01*
X0095235Y0086000D01*
X0090994Y0086000D01*
X0089594Y0087400D01*
X0091800Y0087400D01*
X0094746Y0087400D01*
X0095430Y0087508D01*
X0096089Y0087722D01*
X0096706Y0088037D01*
X0097266Y0088444D01*
X0097756Y0088934D01*
X0098163Y0089494D01*
X0098478Y0090111D01*
X0098692Y0090770D01*
X0098800Y0091454D01*
X0098800Y0091800D01*
X0098800Y0092146D01*
X0098692Y0092830D01*
X0098478Y0093489D01*
X0098163Y0094106D01*
X0097756Y0094666D01*
X0097266Y0095156D01*
X0096706Y0095563D01*
X0096089Y0095878D01*
X0095430Y0096092D01*
X0094746Y0096200D01*
X0091800Y0096200D01*
X0091800Y0091800D01*
X0091800Y0091800D01*
X0098800Y0091800D01*
X0091800Y0091800D01*
X0091800Y0091800D01*
X0091800Y0091800D01*
X0084800Y0091800D01*
X0084800Y0092146D01*
X0084908Y0092830D01*
X0085122Y0093489D01*
X0085437Y0094106D01*
X0085844Y0094666D01*
X0086334Y0095156D01*
X0086894Y0095563D01*
X0087511Y0095878D01*
X0088170Y0096092D01*
X0088854Y0096200D01*
X0091800Y0096200D01*
X0091800Y0091800D01*
X0091800Y0087400D01*
X0091800Y0091800D01*
X0091800Y0091800D01*
X0084800Y0091800D01*
X0084800Y0091454D01*
X0084908Y0090770D01*
X0085122Y0090111D01*
X0085437Y0089494D01*
X0085650Y0089200D01*
X0081543Y0089200D01*
X0081293Y0089802D01*
X0079802Y0091293D01*
X0077854Y0092100D01*
X0075746Y0092100D01*
X0073798Y0091293D01*
X0072307Y0089802D01*
X0071500Y0087854D01*
X0071500Y0085746D01*
X0072307Y0083798D01*
X0073798Y0082307D01*
X0074744Y0081915D01*
X0074689Y0081897D01*
X0073917Y0081504D01*
X0073217Y0080995D01*
X0072605Y0080383D01*
X0072096Y0079683D01*
X0071703Y0078911D01*
X0071435Y0078088D01*
X0071300Y0077233D01*
X0071300Y0077000D01*
X0076600Y0077000D01*
X0076600Y0076600D01*
X0071300Y0076600D01*
X0071300Y0076367D01*
X0071427Y0075567D01*
X0071000Y0075994D01*
X0071000Y0078540D01*
X0069200Y0080340D01*
X0069200Y0092277D01*
X0068835Y0093159D01*
X0068159Y0093835D01*
X0055659Y0106335D01*
X0054777Y0106700D01*
X0021543Y0106700D01*
X0021293Y0107302D01*
X0019802Y0108793D01*
X0018578Y0109300D01*
X0019802Y0109807D01*
X0021293Y0111298D01*
X0021543Y0111900D01*
X0053306Y0111900D01*
X0065441Y0099765D01*
X0066323Y0099400D01*
X0085660Y0099400D01*
X0086821Y0098239D01*
X0088365Y0097600D01*
X0095235Y0097600D01*
X0096779Y0098239D01*
X0097961Y0099421D01*
X0098600Y0100965D01*
X0098600Y0102635D01*
X0097961Y0104179D01*
X0096779Y0105361D01*
X0095235Y0106000D01*
X0088365Y0106000D01*
X0086821Y0105361D01*
X0085660Y0104200D01*
X0067794Y0104200D01*
X0056335Y0115659D01*
X0055659Y0116335D01*
X0054777Y0116700D01*
X0021543Y0116700D01*
X0021293Y0117302D01*
X0019802Y0118793D01*
X0018578Y0119300D01*
X0019802Y0119807D01*
X0021293Y0121298D01*
X0021543Y0121900D01*
X0057056Y0121900D01*
X0069191Y0109765D01*
X0070073Y0109400D01*
X0085660Y0109400D01*
X0086821Y0108239D01*
X0088365Y0107600D01*
X0095235Y0107600D01*
X0096779Y0108239D01*
X0097961Y0109421D01*
X0098600Y0110965D01*
X0098600Y0112635D01*
X0097961Y0114179D01*
X0096779Y0115361D01*
X0095235Y0116000D01*
X0088365Y0116000D01*
X0086821Y0115361D01*
X0085660Y0114200D01*
X0071544Y0114200D01*
X0060085Y0125659D01*
X0059409Y0126335D01*
X0058527Y0126700D01*
X0021543Y0126700D01*
X0021293Y0127302D01*
X0019802Y0128793D01*
X0018578Y0129300D01*
X0019802Y0129807D01*
X0021293Y0131298D01*
X0021543Y0131900D01*
X0054777Y0131900D01*
X0055659Y0132265D01*
X0062794Y0139400D01*
X0085660Y0139400D01*
X0086821Y0138239D01*
X0088365Y0137600D01*
X0095235Y0137600D01*
X0096779Y0138239D01*
X0097961Y0139421D01*
X0098600Y0140965D01*
X0098600Y0142635D01*
X0097961Y0144179D01*
X0096779Y0145361D01*
X0095235Y0146000D01*
X0088365Y0146000D01*
X0086821Y0145361D01*
X0085660Y0144200D01*
X0061323Y0144200D01*
X0060441Y0143835D01*
X0059765Y0143159D01*
X0053306Y0136700D01*
X0021543Y0136700D01*
X0021293Y0137302D01*
X0019802Y0138793D01*
X0018578Y0139300D01*
X0019802Y0139807D01*
X0021293Y0141298D01*
X0021543Y0141900D01*
X0049777Y0141900D01*
X0050659Y0142265D01*
X0057794Y0149400D01*
X0085660Y0149400D01*
X0086821Y0148239D01*
X0088365Y0147600D01*
X0095235Y0147600D01*
X0096779Y0148239D01*
X0097961Y0149421D01*
X0098600Y0150965D01*
X0098600Y0152635D01*
X0097961Y0154179D01*
X0096779Y0155361D01*
X0095235Y0156000D01*
X0088365Y0156000D01*
X0086821Y0155361D01*
X0085660Y0154200D01*
X0056323Y0154200D01*
X0055441Y0153835D01*
X0054765Y0153159D01*
X0048306Y0146700D01*
X0021543Y0146700D01*
X0021293Y0147302D01*
X0019802Y0148793D01*
X0017854Y0149600D01*
X0015746Y0149600D01*
X0013798Y0148793D01*
X0012307Y0147302D01*
X0011600Y0145596D01*
X0011600Y0177433D01*
X0013346Y0175687D01*
X0015996Y0174590D01*
X0018864Y0174590D01*
X0021514Y0175687D01*
X0023542Y0177716D01*
X0024640Y0180366D01*
X0024640Y0183234D01*
X0023542Y0185884D01*
X0021514Y0187913D01*
X0018864Y0189010D01*
X0015996Y0189010D01*
X0013346Y0187913D01*
X0011600Y0186167D01*
X0011600Y0198850D01*
X0175479Y0198850D01*
X0175441Y0198835D01*
X0174765Y0198159D01*
X0155806Y0179200D01*
X0126323Y0179200D01*
X0125441Y0178835D01*
X0110806Y0164200D01*
X0097940Y0164200D01*
X0096779Y0165361D01*
X0095235Y0166000D01*
X0097087Y0165053D02*
X0111659Y0165053D01*
X0113257Y0166651D02*
X0039124Y0166651D01*
X0039124Y0167276D02*
X0038489Y0168810D01*
X0037314Y0169985D01*
X0035780Y0170620D01*
X0034119Y0170620D01*
X0032585Y0169985D01*
X0031800Y0169200D01*
X0031015Y0169985D01*
X0029481Y0170620D01*
X0027820Y0170620D01*
X0026286Y0169985D01*
X0025111Y0168810D01*
X0024476Y0167276D01*
X0024476Y0165988D01*
X0023821Y0165776D01*
X0023208Y0165463D01*
X0022651Y0165058D01*
X0022164Y0164571D01*
X0021759Y0164014D01*
X0021446Y0163401D01*
X0021234Y0162746D01*
X0021126Y0162066D01*
X0021126Y0161721D01*
X0021126Y0161377D01*
X0021234Y0160697D01*
X0021446Y0160042D01*
X0021759Y0159428D01*
X0022164Y0158871D01*
X0022651Y0158384D01*
X0023208Y0157980D01*
X0023821Y0157667D01*
X0024476Y0157454D01*
X0025156Y0157346D01*
X0025501Y0157346D01*
X0025845Y0157346D01*
X0026525Y0157454D01*
X0027180Y0157667D01*
X0027794Y0157980D01*
X0028351Y0158384D01*
X0028792Y0158825D01*
X0029435Y0158182D01*
X0030970Y0157546D01*
X0032630Y0157546D01*
X0034165Y0158182D01*
X0034950Y0158967D01*
X0035734Y0158182D01*
X0037269Y0157546D01*
X0038930Y0157546D01*
X0040464Y0158182D01*
X0041638Y0159356D01*
X0042274Y0160891D01*
X0042274Y0162552D01*
X0041638Y0164086D01*
X0040464Y0165260D01*
X0039124Y0165815D01*
X0039124Y0167276D01*
X0038721Y0168250D02*
X0114856Y0168250D01*
X0116454Y0169848D02*
X0037451Y0169848D01*
X0032448Y0169848D02*
X0031152Y0169848D01*
X0026149Y0169848D02*
X0011600Y0169848D01*
X0011600Y0168250D02*
X0024879Y0168250D01*
X0024476Y0166651D02*
X0011600Y0166651D01*
X0011600Y0165053D02*
X0022645Y0165053D01*
X0021474Y0163454D02*
X0011600Y0163454D01*
X0011600Y0161856D02*
X0021126Y0161856D01*
X0021126Y0161721D02*
X0025501Y0161721D01*
X0025501Y0157346D01*
X0025501Y0161721D01*
X0025501Y0161721D01*
X0021126Y0161721D01*
X0021377Y0160257D02*
X0011600Y0160257D01*
X0011600Y0158659D02*
X0022377Y0158659D01*
X0025501Y0158659D02*
X0025501Y0158659D01*
X0025501Y0160257D02*
X0025501Y0160257D01*
X0025501Y0161721D02*
X0025501Y0161721D01*
X0028625Y0158659D02*
X0028959Y0158659D01*
X0034641Y0158659D02*
X0035258Y0158659D01*
X0040941Y0158659D02*
X0086402Y0158659D01*
X0085293Y0160257D02*
X0042011Y0160257D01*
X0042274Y0161856D02*
X0085000Y0161856D01*
X0085339Y0163454D02*
X0041900Y0163454D01*
X0040672Y0165053D02*
X0086513Y0165053D01*
X0087065Y0155462D02*
X0011600Y0155462D01*
X0011600Y0157060D02*
X0109400Y0157060D01*
X0109400Y0155462D02*
X0096535Y0155462D01*
X0098091Y0153863D02*
X0109400Y0153863D01*
X0109400Y0152265D02*
X0098600Y0152265D01*
X0098476Y0150666D02*
X0109400Y0150666D01*
X0109400Y0149068D02*
X0097607Y0149068D01*
X0095548Y0145870D02*
X0109400Y0145870D01*
X0109400Y0144272D02*
X0097868Y0144272D01*
X0098584Y0142673D02*
X0109279Y0142673D01*
X0107681Y0141075D02*
X0098600Y0141075D01*
X0097984Y0139476D02*
X0106082Y0139476D01*
X0104484Y0137878D02*
X0095906Y0137878D01*
X0097459Y0134681D02*
X0101287Y0134681D01*
X0102885Y0136279D02*
X0059674Y0136279D01*
X0061272Y0137878D02*
X0087694Y0137878D01*
X0086141Y0134681D02*
X0058075Y0134681D01*
X0056477Y0133082D02*
X0085185Y0133082D01*
X0085000Y0131484D02*
X0021370Y0131484D01*
X0019881Y0129885D02*
X0085447Y0129885D01*
X0086773Y0128287D02*
X0020308Y0128287D01*
X0016800Y0124300D02*
X0058050Y0124300D01*
X0070550Y0111800D01*
X0091800Y0111800D01*
X0087155Y0115499D02*
X0070245Y0115499D01*
X0068647Y0117097D02*
X0142600Y0117097D01*
X0143039Y0118696D02*
X0127235Y0118696D01*
X0126445Y0115499D02*
X0142105Y0115499D01*
X0141800Y0111800D02*
X0146800Y0116800D01*
X0149179Y0113239D02*
X0150361Y0114421D01*
X0151000Y0115965D01*
X0151000Y0117635D01*
X0150361Y0119179D01*
X0150140Y0119400D01*
X0157277Y0119400D01*
X0158159Y0119765D01*
X0162794Y0124400D01*
X0192057Y0124400D01*
X0192307Y0123798D01*
X0193798Y0122307D01*
X0195022Y0121800D01*
X0193798Y0121293D01*
X0192307Y0119802D01*
X0192057Y0119200D01*
X0186323Y0119200D01*
X0185441Y0118835D01*
X0184765Y0118159D01*
X0179765Y0113159D01*
X0179400Y0112277D01*
X0179400Y0104200D01*
X0166323Y0104200D01*
X0165441Y0103835D01*
X0164765Y0103159D01*
X0126873Y0065267D01*
X0126779Y0065361D01*
X0125235Y0066000D01*
X0118365Y0066000D01*
X0116821Y0065361D01*
X0115639Y0064179D01*
X0115000Y0062635D01*
X0115000Y0060965D01*
X0115639Y0059421D01*
X0116821Y0058239D01*
X0118365Y0057600D01*
X0125235Y0057600D01*
X0126779Y0058239D01*
X0127961Y0059421D01*
X0128092Y0059737D01*
X0128159Y0059765D01*
X0167794Y0099400D01*
X0182277Y0099400D01*
X0183159Y0099765D01*
X0183835Y0100441D01*
X0184200Y0101323D01*
X0184200Y0110806D01*
X0187794Y0114400D01*
X0192057Y0114400D01*
X0192307Y0113798D01*
X0193798Y0112307D01*
X0195022Y0111800D01*
X0193798Y0111293D01*
X0192307Y0109802D01*
X0191500Y0107854D01*
X0191500Y0105746D01*
X0191749Y0105144D01*
X0155806Y0069200D01*
X0151323Y0069200D01*
X0150441Y0068835D01*
X0149765Y0068159D01*
X0135806Y0054200D01*
X0127940Y0054200D01*
X0126779Y0055361D01*
X0125235Y0056000D01*
X0118365Y0056000D01*
X0116821Y0055361D01*
X0115639Y0054179D01*
X0115000Y0052635D01*
X0115000Y0050965D01*
X0115639Y0049421D01*
X0116821Y0048239D01*
X0118365Y0047600D01*
X0125235Y0047600D01*
X0126779Y0048239D01*
X0127940Y0049400D01*
X0137277Y0049400D01*
X0138159Y0049765D01*
X0152794Y0064400D01*
X0157277Y0064400D01*
X0158159Y0064765D01*
X0191678Y0098284D01*
X0191500Y0097854D01*
X0191500Y0095746D01*
X0191749Y0095144D01*
X0173965Y0077359D01*
X0173600Y0076477D01*
X0173600Y0076200D01*
X0171800Y0076200D01*
X0171800Y0071800D01*
X0171800Y0071800D01*
X0171800Y0071800D01*
X0167400Y0071800D01*
X0167400Y0073623D01*
X0169977Y0076200D01*
X0171800Y0076200D01*
X0171800Y0071800D01*
X0167400Y0071800D01*
X0167400Y0069977D01*
X0169962Y0067416D01*
X0169765Y0067220D01*
X0169400Y0066338D01*
X0169400Y0059200D01*
X0151323Y0059200D01*
X0150441Y0058835D01*
X0149765Y0058159D01*
X0135806Y0044200D01*
X0127940Y0044200D01*
X0126779Y0045361D01*
X0125235Y0046000D01*
X0118365Y0046000D01*
X0116821Y0045361D01*
X0115639Y0044179D01*
X0115000Y0042635D01*
X0115000Y0040965D01*
X0115639Y0039421D01*
X0116821Y0038239D01*
X0118365Y0037600D01*
X0125235Y0037600D01*
X0126779Y0038239D01*
X0127940Y0039400D01*
X0137277Y0039400D01*
X0138159Y0039765D01*
X0152794Y0054400D01*
X0172277Y0054400D01*
X0173159Y0054765D01*
X0173835Y0055441D01*
X0174200Y0056323D01*
X0174200Y0064866D01*
X0178035Y0068701D01*
X0178400Y0069583D01*
X0178400Y0075006D01*
X0191678Y0088284D01*
X0191500Y0087854D01*
X0191500Y0085746D01*
X0191749Y0085144D01*
X0179765Y0073159D01*
X0179400Y0072277D01*
X0179400Y0049200D01*
X0151323Y0049200D01*
X0150441Y0048835D01*
X0149765Y0048159D01*
X0135806Y0034200D01*
X0127940Y0034200D01*
X0126779Y0035361D01*
X0125235Y0036000D01*
X0118365Y0036000D01*
X0116821Y0035361D01*
X0115639Y0034179D01*
X0115000Y0032635D01*
X0115000Y0030965D01*
X0115639Y0029421D01*
X0116821Y0028239D01*
X0118365Y0027600D01*
X0125235Y0027600D01*
X0126779Y0028239D01*
X0127940Y0029400D01*
X0137277Y0029400D01*
X0138159Y0029765D01*
X0138835Y0030441D01*
X0152794Y0044400D01*
X0182277Y0044400D01*
X0183159Y0044765D01*
X0183835Y0045441D01*
X0184200Y0046323D01*
X0184200Y0070806D01*
X0191427Y0078033D01*
X0191300Y0077233D01*
X0191300Y0077000D01*
X0196600Y0077000D01*
X0196600Y0076600D01*
X0197000Y0076600D01*
X0197000Y0071300D01*
X0197233Y0071300D01*
X0198088Y0071435D01*
X0198850Y0071683D01*
X0198850Y0011600D01*
X0053096Y0011600D01*
X0054802Y0012307D01*
X0056293Y0013798D01*
X0057100Y0015746D01*
X0057100Y0017854D01*
X0056293Y0019802D01*
X0054802Y0021293D01*
X0052854Y0022100D01*
X0050746Y0022100D01*
X0048798Y0021293D01*
X0047307Y0019802D01*
X0046500Y0017854D01*
X0046500Y0015746D01*
X0047307Y0013798D01*
X0048798Y0012307D01*
X0050504Y0011600D01*
X0028096Y0011600D01*
X0029802Y0012307D01*
X0031293Y0013798D01*
X0032100Y0015746D01*
X0032100Y0017854D01*
X0031293Y0019802D01*
X0029802Y0021293D01*
X0027854Y0022100D01*
X0025746Y0022100D01*
X0023798Y0021293D01*
X0022307Y0019802D01*
X0021500Y0017854D01*
X0021500Y0015746D01*
X0022307Y0013798D01*
X0023798Y0012307D01*
X0025504Y0011600D01*
X0011600Y0011600D01*
X0011600Y0072506D01*
X0011703Y0072189D01*
X0012096Y0071417D01*
X0012605Y0070717D01*
X0013217Y0070105D01*
X0013917Y0069596D01*
X0014689Y0069203D01*
X0015512Y0068935D01*
X0016367Y0068800D01*
X0016600Y0068800D01*
X0016600Y0074100D01*
X0017000Y0074100D01*
X0017000Y0074500D01*
X0022300Y0074500D01*
X0022300Y0074733D01*
X0022165Y0075588D01*
X0021897Y0076411D01*
X0021504Y0077183D01*
X0020995Y0077883D01*
X0020383Y0078495D01*
X0019683Y0079004D01*
X0018911Y0079397D01*
X0018856Y0079415D01*
X0019802Y0079807D01*
X0021293Y0081298D01*
X0022100Y0083246D01*
X0022100Y0085354D01*
X0021293Y0087302D01*
X0019802Y0088793D01*
X0018578Y0089300D01*
X0019802Y0089807D01*
X0021293Y0091298D01*
X0021543Y0091900D01*
X0023306Y0091900D01*
X0029400Y0085806D01*
X0029400Y0080140D01*
X0028540Y0081000D01*
X0025060Y0081000D01*
X0022600Y0078540D01*
X0022600Y0075060D01*
X0025060Y0072600D01*
X0028266Y0072600D01*
X0020565Y0064899D01*
X0020200Y0064017D01*
X0020200Y0053594D01*
X0015441Y0048835D01*
X0014765Y0048159D01*
X0014400Y0047277D01*
X0014400Y0031323D01*
X0014765Y0030441D01*
X0019765Y0025441D01*
X0020441Y0024765D01*
X0021323Y0024400D01*
X0079414Y0024400D01*
X0079883Y0023931D01*
X0081127Y0023416D01*
X0082473Y0023416D01*
X0083717Y0023931D01*
X0084669Y0024883D01*
X0085184Y0026127D01*
X0085184Y0027473D01*
X0084669Y0028717D01*
X0083986Y0029400D01*
X0085660Y0029400D01*
X0086821Y0028239D01*
X0088365Y0027600D01*
X0095235Y0027600D01*
X0096779Y0028239D01*
X0097961Y0029421D01*
X0098600Y0030965D01*
X0098600Y0032635D01*
X0097961Y0034179D01*
X0096779Y0035361D01*
X0095235Y0036000D01*
X0088365Y0036000D01*
X0086821Y0035361D01*
X0085660Y0034200D01*
X0067794Y0034200D01*
X0053159Y0048835D01*
X0052277Y0049200D01*
X0044186Y0049200D01*
X0043717Y0049669D01*
X0042473Y0050184D01*
X0041127Y0050184D01*
X0039883Y0049669D01*
X0038931Y0048717D01*
X0038416Y0047473D01*
X0038416Y0046127D01*
X0038931Y0044883D01*
X0039883Y0043931D01*
X0041127Y0043416D01*
X0042473Y0043416D01*
X0043717Y0043931D01*
X0044186Y0044400D01*
X0050806Y0044400D01*
X0053033Y0042173D01*
X0052233Y0042300D01*
X0052000Y0042300D01*
X0052000Y0037000D01*
X0057300Y0037000D01*
X0057300Y0037233D01*
X0057173Y0038033D01*
X0064765Y0030441D01*
X0065441Y0029765D01*
X0066323Y0029400D01*
X0079614Y0029400D01*
X0079414Y0029200D01*
X0022794Y0029200D01*
X0019200Y0032794D01*
X0019200Y0045806D01*
X0023959Y0050565D01*
X0024635Y0051241D01*
X0025000Y0052123D01*
X0025000Y0057660D01*
X0025060Y0057600D01*
X0028540Y0057600D01*
X0030340Y0059400D01*
X0055806Y0059400D01*
X0072600Y0042606D01*
X0072600Y0040060D01*
X0075060Y0037600D01*
X0078540Y0037600D01*
X0080340Y0039400D01*
X0085660Y0039400D01*
X0086821Y0038239D01*
X0088365Y0037600D01*
X0095235Y0037600D01*
X0096779Y0038239D01*
X0097940Y0039400D01*
X0109400Y0039400D01*
X0109400Y0021323D01*
X0109765Y0020441D01*
X0110441Y0019765D01*
X0111323Y0019400D01*
X0123460Y0019400D01*
X0122600Y0018540D01*
X0122600Y0015060D01*
X0125060Y0012600D01*
X0128540Y0012600D01*
X0131000Y0015060D01*
X0131000Y0018540D01*
X0130140Y0019400D01*
X0133460Y0019400D01*
X0132600Y0018540D01*
X0132600Y0015060D01*
X0135060Y0012600D01*
X0138540Y0012600D01*
X0141000Y0015060D01*
X0141000Y0018540D01*
X0140140Y0019400D01*
X0155806Y0019400D01*
X0157600Y0017606D01*
X0157600Y0015060D01*
X0160060Y0012600D01*
X0163540Y0012600D01*
X0166000Y0015060D01*
X0166000Y0018540D01*
X0163540Y0021000D01*
X0160994Y0021000D01*
X0158835Y0023159D01*
X0158835Y0023159D01*
X0158159Y0023835D01*
X0157277Y0024200D01*
X0114200Y0024200D01*
X0114200Y0100806D01*
X0115000Y0101606D01*
X0115000Y0100965D01*
X0115639Y0099421D01*
X0116821Y0098239D01*
X0118365Y0097600D01*
X0125235Y0097600D01*
X0126779Y0098239D01*
X0127961Y0099421D01*
X0128600Y0100965D01*
X0128600Y0102635D01*
X0127961Y0104179D01*
X0126779Y0105361D01*
X0125235Y0106000D01*
X0119394Y0106000D01*
X0120994Y0107600D01*
X0125235Y0107600D01*
X0126779Y0108239D01*
X0127940Y0109400D01*
X0142277Y0109400D01*
X0143159Y0109765D01*
X0145994Y0112600D01*
X0147635Y0112600D01*
X0149179Y0113239D01*
X0149840Y0113900D02*
X0163477Y0113900D01*
X0162400Y0114977D02*
X0164977Y0112400D01*
X0166800Y0112400D01*
X0168623Y0112400D01*
X0171200Y0114977D01*
X0171200Y0116800D01*
X0171200Y0118623D01*
X0168623Y0121200D01*
X0166800Y0121200D01*
X0166800Y0116800D01*
X0171200Y0116800D01*
X0166800Y0116800D01*
X0166800Y0116800D01*
X0166800Y0116800D01*
X0166800Y0112400D01*
X0166800Y0116800D01*
X0166800Y0116800D01*
X0166800Y0116800D01*
X0162400Y0116800D01*
X0162400Y0118623D01*
X0164977Y0121200D01*
X0166800Y0121200D01*
X0166800Y0116800D01*
X0162400Y0116800D01*
X0162400Y0114977D01*
X0162400Y0115499D02*
X0150807Y0115499D01*
X0151000Y0117097D02*
X0162400Y0117097D01*
X0162473Y0118696D02*
X0150561Y0118696D01*
X0156800Y0121800D02*
X0161800Y0126800D01*
X0196800Y0126800D01*
X0194797Y0121893D02*
X0160287Y0121893D01*
X0161885Y0123491D02*
X0192613Y0123491D01*
X0192799Y0120294D02*
X0169528Y0120294D01*
X0171127Y0118696D02*
X0185302Y0118696D01*
X0183703Y0117097D02*
X0171200Y0117097D01*
X0171200Y0115499D02*
X0182105Y0115499D01*
X0180506Y0113900D02*
X0170123Y0113900D01*
X0166800Y0113900D02*
X0166800Y0113900D01*
X0166800Y0115499D02*
X0166800Y0115499D01*
X0166800Y0117097D02*
X0166800Y0117097D01*
X0166800Y0118696D02*
X0166800Y0118696D01*
X0166800Y0120294D02*
X0166800Y0120294D01*
X0164072Y0120294D02*
X0158688Y0120294D01*
X0156800Y0121800D02*
X0121800Y0121800D01*
X0127050Y0125090D02*
X0156696Y0125090D01*
X0158294Y0126688D02*
X0110082Y0126688D01*
X0108484Y0125090D02*
X0116550Y0125090D01*
X0115355Y0123491D02*
X0106885Y0123491D01*
X0105287Y0121893D02*
X0115000Y0121893D01*
X0115278Y0120294D02*
X0103688Y0120294D01*
X0101800Y0121800D02*
X0116800Y0136800D01*
X0126800Y0136800D01*
X0130017Y0137878D02*
X0162400Y0137878D01*
X0162400Y0138623D02*
X0162400Y0136800D01*
X0166800Y0136800D01*
X0166800Y0134200D01*
X0166800Y0134200D01*
X0166800Y0136800D01*
X0171200Y0136800D01*
X0171200Y0138623D01*
X0170423Y0139400D01*
X0179414Y0139400D01*
X0179883Y0138931D01*
X0181127Y0138416D01*
X0182473Y0138416D01*
X0183717Y0138931D01*
X0184669Y0139883D01*
X0185184Y0141127D01*
X0185184Y0142473D01*
X0184669Y0143717D01*
X0183986Y0144400D01*
X0192057Y0144400D01*
X0192307Y0143798D01*
X0193798Y0142307D01*
X0195022Y0141800D01*
X0193798Y0141293D01*
X0192307Y0139802D01*
X0191500Y0137854D01*
X0191500Y0135746D01*
X0191749Y0135144D01*
X0190806Y0134200D01*
X0170423Y0134200D01*
X0171200Y0134977D01*
X0171200Y0136800D01*
X0166800Y0136800D01*
X0166800Y0136800D01*
X0166800Y0136800D01*
X0166800Y0136800D01*
X0166800Y0134200D01*
X0166800Y0134681D02*
X0166800Y0134681D01*
X0166800Y0136279D02*
X0166800Y0136279D01*
X0166800Y0136800D02*
X0162400Y0136800D01*
X0162400Y0134977D01*
X0163177Y0134200D01*
X0128986Y0134200D01*
X0129669Y0134883D01*
X0130184Y0136127D01*
X0130184Y0137473D01*
X0129669Y0138717D01*
X0128986Y0139400D01*
X0137277Y0139400D01*
X0138159Y0139765D01*
X0142794Y0144400D01*
X0149614Y0144400D01*
X0148931Y0143717D01*
X0148416Y0142473D01*
X0148416Y0141127D01*
X0148931Y0139883D01*
X0149883Y0138931D01*
X0151127Y0138416D01*
X0152473Y0138416D01*
X0153717Y0138931D01*
X0154186Y0139400D01*
X0163177Y0139400D01*
X0162400Y0138623D01*
X0162400Y0136279D02*
X0130184Y0136279D01*
X0129467Y0134681D02*
X0162697Y0134681D01*
X0159893Y0128287D02*
X0126827Y0128287D01*
X0121800Y0131800D02*
X0191800Y0131800D01*
X0196800Y0136800D01*
X0193580Y0141075D02*
X0185163Y0141075D01*
X0185101Y0142673D02*
X0193431Y0142673D01*
X0192110Y0144272D02*
X0184114Y0144272D01*
X0181800Y0141800D02*
X0151800Y0141800D01*
X0149338Y0139476D02*
X0137462Y0139476D01*
X0136800Y0141800D02*
X0141800Y0146800D01*
X0160860Y0146800D01*
X0165060Y0151000D01*
X0168540Y0151000D01*
X0172740Y0146800D01*
X0196800Y0146800D01*
X0193171Y0150666D02*
X0172268Y0150666D01*
X0170669Y0152265D02*
X0193900Y0152265D01*
X0192280Y0153863D02*
X0153197Y0153863D01*
X0151598Y0152265D02*
X0162931Y0152265D01*
X0161332Y0150666D02*
X0150000Y0150666D01*
X0150574Y0151241D02*
X0150574Y0151241D01*
X0148540Y0152600D02*
X0152740Y0156800D01*
X0186800Y0156800D01*
X0196800Y0166800D01*
X0194744Y0171685D02*
X0193798Y0171293D01*
X0192307Y0169802D01*
X0191500Y0167854D01*
X0191500Y0165746D01*
X0191749Y0165144D01*
X0185806Y0159200D01*
X0152262Y0159200D01*
X0151380Y0158835D01*
X0151184Y0158638D01*
X0148623Y0161200D01*
X0146800Y0161200D01*
X0146800Y0156800D01*
X0146800Y0156800D01*
X0146800Y0161200D01*
X0144977Y0161200D01*
X0142416Y0158638D01*
X0142220Y0158835D01*
X0141338Y0159200D01*
X0127740Y0159200D01*
X0127961Y0159421D01*
X0128600Y0160965D01*
X0128600Y0162635D01*
X0127961Y0164179D01*
X0126779Y0165361D01*
X0125235Y0166000D01*
X0119394Y0166000D01*
X0127794Y0174400D01*
X0157277Y0174400D01*
X0158159Y0174765D01*
X0177794Y0194400D01*
X0192057Y0194400D01*
X0192307Y0193798D01*
X0193798Y0192307D01*
X0195022Y0191800D01*
X0193798Y0191293D01*
X0192307Y0189802D01*
X0191500Y0187854D01*
X0191500Y0185746D01*
X0191749Y0185144D01*
X0185806Y0179200D01*
X0169186Y0179200D01*
X0168717Y0179669D01*
X0167473Y0180184D01*
X0166127Y0180184D01*
X0164883Y0179669D01*
X0163931Y0178717D01*
X0163416Y0177473D01*
X0163416Y0176127D01*
X0163931Y0174883D01*
X0164883Y0173931D01*
X0166127Y0173416D01*
X0167473Y0173416D01*
X0168717Y0173931D01*
X0169186Y0174400D01*
X0187277Y0174400D01*
X0188159Y0174765D01*
X0191427Y0178033D01*
X0191300Y0177233D01*
X0191300Y0177000D01*
X0196600Y0177000D01*
X0196600Y0176600D01*
X0191300Y0176600D01*
X0191300Y0176367D01*
X0191435Y0175512D01*
X0191703Y0174689D01*
X0192096Y0173917D01*
X0192605Y0173217D01*
X0193217Y0172605D01*
X0193917Y0172096D01*
X0194689Y0171703D01*
X0194744Y0171685D01*
X0194169Y0171447D02*
X0124841Y0171447D01*
X0126439Y0173045D02*
X0192777Y0173045D01*
X0191726Y0174644D02*
X0187866Y0174644D01*
X0189636Y0176242D02*
X0191320Y0176242D01*
X0191396Y0177841D02*
X0191235Y0177841D01*
X0186800Y0176800D02*
X0196800Y0186800D01*
X0193133Y0190629D02*
X0174023Y0190629D01*
X0175621Y0192227D02*
X0193990Y0192227D01*
X0192295Y0193826D02*
X0177220Y0193826D01*
X0173629Y0197023D02*
X0135017Y0197023D01*
X0136000Y0196040D02*
X0133540Y0198500D01*
X0130060Y0198500D01*
X0127600Y0196040D01*
X0127600Y0192560D01*
X0130060Y0190100D01*
X0133540Y0190100D01*
X0136000Y0192560D01*
X0136000Y0196040D01*
X0136000Y0195424D02*
X0172030Y0195424D01*
X0170432Y0193826D02*
X0136000Y0193826D01*
X0135667Y0192227D02*
X0168833Y0192227D01*
X0167235Y0190629D02*
X0138911Y0190629D01*
X0138540Y0191000D02*
X0141000Y0188540D01*
X0141000Y0185060D01*
X0138540Y0182600D01*
X0135060Y0182600D01*
X0132600Y0185060D01*
X0132600Y0188540D01*
X0135060Y0191000D01*
X0138540Y0191000D01*
X0140509Y0189030D02*
X0165636Y0189030D01*
X0164038Y0187432D02*
X0141000Y0187432D01*
X0141000Y0185833D02*
X0162439Y0185833D01*
X0160841Y0184235D02*
X0140174Y0184235D01*
X0138576Y0182636D02*
X0159242Y0182636D01*
X0157644Y0181038D02*
X0053380Y0181038D01*
X0053380Y0180366D02*
X0052283Y0177716D01*
X0050254Y0175687D01*
X0047604Y0174590D01*
X0044736Y0174590D01*
X0042086Y0175687D01*
X0040058Y0177716D01*
X0038960Y0180366D01*
X0038960Y0183234D01*
X0040058Y0185884D01*
X0042086Y0187913D01*
X0044736Y0189010D01*
X0047604Y0189010D01*
X0050254Y0187913D01*
X0052283Y0185884D01*
X0053380Y0183234D01*
X0053380Y0180366D01*
X0052997Y0179439D02*
X0059653Y0179439D01*
X0059883Y0179669D02*
X0058931Y0178717D01*
X0058416Y0177473D01*
X0058416Y0176127D01*
X0058931Y0174883D01*
X0059883Y0173931D01*
X0061127Y0173416D01*
X0062473Y0173416D01*
X0063717Y0173931D01*
X0064186Y0174400D01*
X0109414Y0174400D01*
X0109883Y0173931D01*
X0111127Y0173416D01*
X0112473Y0173416D01*
X0113717Y0173931D01*
X0114669Y0174883D01*
X0115184Y0176127D01*
X0115184Y0177473D01*
X0114669Y0178717D01*
X0113717Y0179669D01*
X0112473Y0180184D01*
X0111127Y0180184D01*
X0109883Y0179669D01*
X0109414Y0179200D01*
X0064186Y0179200D01*
X0063717Y0179669D01*
X0062473Y0180184D01*
X0061127Y0180184D01*
X0059883Y0179669D01*
X0058568Y0177841D02*
X0052334Y0177841D01*
X0050809Y0176242D02*
X0058416Y0176242D01*
X0059170Y0174644D02*
X0047734Y0174644D01*
X0044606Y0174644D02*
X0018994Y0174644D01*
X0015866Y0174644D02*
X0011600Y0174644D01*
X0011600Y0176242D02*
X0012791Y0176242D01*
X0011600Y0173045D02*
X0119651Y0173045D01*
X0118053Y0171447D02*
X0011600Y0171447D01*
X0022069Y0176242D02*
X0041531Y0176242D01*
X0040006Y0177841D02*
X0023594Y0177841D01*
X0024256Y0179439D02*
X0039344Y0179439D01*
X0038960Y0181038D02*
X0024640Y0181038D01*
X0024640Y0182636D02*
X0038960Y0182636D01*
X0039374Y0184235D02*
X0024226Y0184235D01*
X0023564Y0185833D02*
X0040036Y0185833D01*
X0041605Y0187432D02*
X0021995Y0187432D01*
X0012865Y0187432D02*
X0011600Y0187432D01*
X0011600Y0189030D02*
X0057361Y0189030D01*
X0057179Y0189212D02*
X0058464Y0187927D01*
X0060143Y0187231D01*
X0061961Y0187231D01*
X0063640Y0187927D01*
X0064925Y0189212D01*
X0065202Y0189881D01*
X0065387Y0189435D01*
X0066561Y0188261D01*
X0068096Y0187625D01*
X0069756Y0187625D01*
X0071291Y0188261D01*
X0072465Y0189435D01*
X0072863Y0190396D01*
X0073261Y0189435D01*
X0074435Y0188261D01*
X0075970Y0187625D01*
X0077630Y0187625D01*
X0079165Y0188261D01*
X0080339Y0189435D01*
X0080737Y0190396D01*
X0081135Y0189435D01*
X0082309Y0188261D01*
X0083844Y0187625D01*
X0085504Y0187625D01*
X0087039Y0188261D01*
X0088213Y0189435D01*
X0088398Y0189881D01*
X0088675Y0189212D01*
X0089960Y0187927D01*
X0091639Y0187231D01*
X0093457Y0187231D01*
X0095136Y0187927D01*
X0096421Y0189212D01*
X0097117Y0190891D01*
X0097117Y0192709D01*
X0096421Y0194388D01*
X0095136Y0195673D01*
X0093457Y0196368D01*
X0091639Y0196368D01*
X0089960Y0195673D01*
X0088675Y0194388D01*
X0088398Y0193719D01*
X0088213Y0194165D01*
X0087039Y0195339D01*
X0085504Y0195975D01*
X0083844Y0195975D01*
X0082309Y0195339D01*
X0081135Y0194165D01*
X0080737Y0193204D01*
X0080339Y0194165D01*
X0079165Y0195339D01*
X0077630Y0195975D01*
X0075970Y0195975D01*
X0074435Y0195339D01*
X0073261Y0194165D01*
X0072863Y0193204D01*
X0072465Y0194165D01*
X0071291Y0195339D01*
X0069756Y0195975D01*
X0068096Y0195975D01*
X0066561Y0195339D01*
X0065387Y0194165D01*
X0065202Y0193719D01*
X0064925Y0194388D01*
X0063640Y0195673D01*
X0061961Y0196368D01*
X0060143Y0196368D01*
X0058464Y0195673D01*
X0057179Y0194388D01*
X0056483Y0192709D01*
X0056483Y0190891D01*
X0057179Y0189212D01*
X0056592Y0190629D02*
X0011600Y0190629D01*
X0011600Y0192227D02*
X0056483Y0192227D01*
X0056946Y0193826D02*
X0011600Y0193826D01*
X0011600Y0195424D02*
X0058215Y0195424D01*
X0063888Y0195424D02*
X0066767Y0195424D01*
X0065246Y0193826D02*
X0065158Y0193826D01*
X0064743Y0189030D02*
X0065792Y0189030D01*
X0062444Y0187432D02*
X0091156Y0187432D01*
X0093940Y0187432D02*
X0122400Y0187432D01*
X0122400Y0186800D02*
X0126800Y0186800D01*
X0131200Y0186800D01*
X0131200Y0188623D01*
X0128623Y0191200D01*
X0126800Y0191200D01*
X0126800Y0186800D01*
X0126800Y0186800D01*
X0126800Y0186800D01*
X0131200Y0186800D01*
X0131200Y0184977D01*
X0128623Y0182400D01*
X0126800Y0182400D01*
X0126800Y0186800D01*
X0126800Y0186800D01*
X0126800Y0186800D01*
X0126800Y0191200D01*
X0124977Y0191200D01*
X0122400Y0188623D01*
X0122400Y0186800D01*
X0122400Y0184977D01*
X0124977Y0182400D01*
X0126800Y0182400D01*
X0126800Y0186800D01*
X0122400Y0186800D01*
X0122400Y0185833D02*
X0052304Y0185833D01*
X0052966Y0184235D02*
X0123143Y0184235D01*
X0124741Y0182636D02*
X0053380Y0182636D01*
X0050735Y0187432D02*
X0059660Y0187432D01*
X0063947Y0179439D02*
X0109653Y0179439D01*
X0111800Y0176800D02*
X0061800Y0176800D01*
X0072060Y0189030D02*
X0073666Y0189030D01*
X0073120Y0193826D02*
X0072606Y0193826D01*
X0071085Y0195424D02*
X0074641Y0195424D01*
X0078959Y0195424D02*
X0082515Y0195424D01*
X0080994Y0193826D02*
X0080480Y0193826D01*
X0079934Y0189030D02*
X0081540Y0189030D01*
X0087808Y0189030D02*
X0088857Y0189030D01*
X0088442Y0193826D02*
X0088354Y0193826D01*
X0089712Y0195424D02*
X0086833Y0195424D01*
X0095385Y0195424D02*
X0127600Y0195424D01*
X0127600Y0193826D02*
X0096654Y0193826D01*
X0097117Y0192227D02*
X0127933Y0192227D01*
X0126800Y0190629D02*
X0126800Y0190629D01*
X0126800Y0189030D02*
X0126800Y0189030D01*
X0126800Y0187432D02*
X0126800Y0187432D01*
X0126800Y0185833D02*
X0126800Y0185833D01*
X0126800Y0184235D02*
X0126800Y0184235D01*
X0126800Y0182636D02*
X0126800Y0182636D01*
X0128859Y0182636D02*
X0135024Y0182636D01*
X0133426Y0184235D02*
X0130457Y0184235D01*
X0131200Y0185833D02*
X0132600Y0185833D01*
X0132600Y0187432D02*
X0131200Y0187432D01*
X0130792Y0189030D02*
X0133091Y0189030D01*
X0134068Y0190629D02*
X0134689Y0190629D01*
X0129531Y0190629D02*
X0129194Y0190629D01*
X0124406Y0190629D02*
X0097008Y0190629D01*
X0096239Y0189030D02*
X0122808Y0189030D01*
X0128583Y0197023D02*
X0011600Y0197023D01*
X0011600Y0198621D02*
X0175227Y0198621D01*
X0172424Y0189030D02*
X0191987Y0189030D01*
X0191500Y0187432D02*
X0170826Y0187432D01*
X0169227Y0185833D02*
X0191500Y0185833D01*
X0190841Y0184235D02*
X0167629Y0184235D01*
X0166030Y0182636D02*
X0189242Y0182636D01*
X0187644Y0181038D02*
X0164432Y0181038D01*
X0164653Y0179439D02*
X0162833Y0179439D01*
X0163568Y0177841D02*
X0161235Y0177841D01*
X0159636Y0176242D02*
X0163416Y0176242D01*
X0164170Y0174644D02*
X0157866Y0174644D01*
X0156045Y0179439D02*
X0113947Y0179439D01*
X0115032Y0177841D02*
X0124447Y0177841D01*
X0122848Y0176242D02*
X0115184Y0176242D01*
X0114430Y0174644D02*
X0121250Y0174644D01*
X0123242Y0169848D02*
X0143908Y0169848D01*
X0145060Y0171000D02*
X0142600Y0168540D01*
X0142600Y0165060D01*
X0145060Y0162600D01*
X0148540Y0162600D01*
X0151000Y0165060D01*
X0151000Y0168540D01*
X0148540Y0171000D01*
X0145060Y0171000D01*
X0142600Y0168250D02*
X0121644Y0168250D01*
X0120045Y0166651D02*
X0142600Y0166651D01*
X0142608Y0165053D02*
X0127087Y0165053D01*
X0128261Y0163454D02*
X0144206Y0163454D01*
X0144035Y0160257D02*
X0128307Y0160257D01*
X0128600Y0161856D02*
X0188462Y0161856D01*
X0190060Y0163454D02*
X0179394Y0163454D01*
X0178540Y0162600D02*
X0181000Y0165060D01*
X0181000Y0168540D01*
X0178540Y0171000D01*
X0175060Y0171000D01*
X0172600Y0168540D01*
X0172600Y0165060D01*
X0175060Y0162600D01*
X0178540Y0162600D01*
X0180992Y0165053D02*
X0191659Y0165053D01*
X0191500Y0166651D02*
X0181000Y0166651D01*
X0181000Y0168250D02*
X0191664Y0168250D01*
X0192353Y0169848D02*
X0179692Y0169848D01*
X0173908Y0169848D02*
X0169974Y0169848D01*
X0171200Y0168623D02*
X0168623Y0171200D01*
X0166800Y0171200D01*
X0166800Y0166800D01*
X0171200Y0166800D01*
X0171200Y0168623D01*
X0171200Y0168250D02*
X0172600Y0168250D01*
X0172600Y0166651D02*
X0171200Y0166651D01*
X0171200Y0166800D02*
X0166800Y0166800D01*
X0166800Y0166800D01*
X0166800Y0166800D01*
X0166800Y0162400D01*
X0168623Y0162400D01*
X0171200Y0164977D01*
X0171200Y0166800D01*
X0171200Y0165053D02*
X0172608Y0165053D01*
X0174206Y0163454D02*
X0169677Y0163454D01*
X0166800Y0163454D02*
X0166800Y0163454D01*
X0166800Y0162400D02*
X0166800Y0166800D01*
X0166800Y0166800D01*
X0166800Y0166800D01*
X0162400Y0166800D01*
X0162400Y0168623D01*
X0164977Y0171200D01*
X0166800Y0171200D01*
X0166800Y0166800D01*
X0162400Y0166800D01*
X0162400Y0164977D01*
X0164977Y0162400D01*
X0166800Y0162400D01*
X0166800Y0165053D02*
X0166800Y0165053D01*
X0166800Y0166651D02*
X0166800Y0166651D01*
X0166800Y0168250D02*
X0166800Y0168250D01*
X0166800Y0169848D02*
X0166800Y0169848D01*
X0163626Y0169848D02*
X0149692Y0169848D01*
X0151000Y0168250D02*
X0162400Y0168250D01*
X0162400Y0166651D02*
X0151000Y0166651D01*
X0150992Y0165053D02*
X0162400Y0165053D01*
X0163923Y0163454D02*
X0149394Y0163454D01*
X0149565Y0160257D02*
X0186863Y0160257D01*
X0190454Y0157060D02*
X0191500Y0157060D01*
X0191618Y0155462D02*
X0188856Y0155462D01*
X0188835Y0155441D02*
X0188835Y0155441D01*
X0192172Y0139476D02*
X0184262Y0139476D01*
X0191510Y0137878D02*
X0171200Y0137878D01*
X0171200Y0136279D02*
X0191500Y0136279D01*
X0191287Y0134681D02*
X0170903Y0134681D01*
X0186800Y0116800D02*
X0196800Y0116800D01*
X0192264Y0113900D02*
X0187294Y0113900D01*
X0185696Y0112302D02*
X0193810Y0112302D01*
X0193208Y0110703D02*
X0184200Y0110703D01*
X0184200Y0109105D02*
X0192018Y0109105D01*
X0191500Y0107506D02*
X0184200Y0107506D01*
X0184200Y0105908D02*
X0191500Y0105908D01*
X0190915Y0104309D02*
X0184200Y0104309D01*
X0184200Y0102711D02*
X0189317Y0102711D01*
X0187718Y0101112D02*
X0184113Y0101112D01*
X0182552Y0099514D02*
X0186120Y0099514D01*
X0184521Y0097915D02*
X0166309Y0097915D01*
X0166800Y0096200D02*
X0164977Y0096200D01*
X0162400Y0093623D01*
X0162400Y0091800D01*
X0166800Y0091800D01*
X0171200Y0091800D01*
X0171200Y0093623D01*
X0168623Y0096200D01*
X0166800Y0096200D01*
X0166800Y0091800D01*
X0166800Y0091800D01*
X0166800Y0091800D01*
X0171200Y0091800D01*
X0171200Y0089977D01*
X0168623Y0087400D01*
X0166800Y0087400D01*
X0166800Y0091800D01*
X0166800Y0091800D01*
X0166800Y0091800D01*
X0166800Y0096200D01*
X0166800Y0094718D02*
X0166800Y0094718D01*
X0166800Y0093120D02*
X0166800Y0093120D01*
X0166800Y0091800D02*
X0162400Y0091800D01*
X0162400Y0089977D01*
X0164977Y0087400D01*
X0166800Y0087400D01*
X0166800Y0091800D01*
X0166800Y0091521D02*
X0166800Y0091521D01*
X0166800Y0089923D02*
X0166800Y0089923D01*
X0166800Y0088324D02*
X0166800Y0088324D01*
X0169547Y0088324D02*
X0174930Y0088324D01*
X0173331Y0086726D02*
X0155120Y0086726D01*
X0156718Y0088324D02*
X0164053Y0088324D01*
X0162455Y0089923D02*
X0158317Y0089923D01*
X0159915Y0091521D02*
X0162400Y0091521D01*
X0162400Y0093120D02*
X0161514Y0093120D01*
X0163112Y0094718D02*
X0163496Y0094718D01*
X0164711Y0096317D02*
X0182923Y0096317D01*
X0181324Y0094718D02*
X0170104Y0094718D01*
X0171200Y0093120D02*
X0179726Y0093120D01*
X0178127Y0091521D02*
X0171200Y0091521D01*
X0171145Y0089923D02*
X0176528Y0089923D01*
X0180120Y0086726D02*
X0183331Y0086726D01*
X0181733Y0085127D02*
X0178521Y0085127D01*
X0176923Y0083529D02*
X0180134Y0083529D01*
X0178536Y0081930D02*
X0175324Y0081930D01*
X0173726Y0080332D02*
X0176937Y0080332D01*
X0175339Y0078733D02*
X0172127Y0078733D01*
X0170529Y0077134D02*
X0173872Y0077134D01*
X0176000Y0076000D02*
X0176000Y0070060D01*
X0171800Y0065860D01*
X0171800Y0056800D01*
X0151800Y0056800D01*
X0136800Y0041800D01*
X0121800Y0041800D01*
X0126975Y0045164D02*
X0136770Y0045164D01*
X0138369Y0046763D02*
X0114200Y0046763D01*
X0114200Y0048361D02*
X0116699Y0048361D01*
X0115416Y0049960D02*
X0114200Y0049960D01*
X0114200Y0051558D02*
X0115000Y0051558D01*
X0115216Y0053157D02*
X0114200Y0053157D01*
X0114200Y0054755D02*
X0116216Y0054755D01*
X0114200Y0056354D02*
X0137960Y0056354D01*
X0139558Y0057952D02*
X0126086Y0057952D01*
X0128014Y0059551D02*
X0141157Y0059551D01*
X0142755Y0061149D02*
X0129543Y0061149D01*
X0131142Y0062748D02*
X0144354Y0062748D01*
X0145952Y0064346D02*
X0132741Y0064346D01*
X0134339Y0065945D02*
X0147551Y0065945D01*
X0146800Y0067400D02*
X0148623Y0067400D01*
X0151200Y0069977D01*
X0151200Y0071800D01*
X0151200Y0073623D01*
X0148623Y0076200D01*
X0146800Y0076200D01*
X0146800Y0071800D01*
X0146800Y0071800D01*
X0151200Y0071800D01*
X0146800Y0071800D01*
X0146800Y0071800D01*
X0146800Y0071800D01*
X0142400Y0071800D01*
X0142400Y0073623D01*
X0144977Y0076200D01*
X0146800Y0076200D01*
X0146800Y0071800D01*
X0146800Y0067400D01*
X0146800Y0071800D01*
X0146800Y0071800D01*
X0142400Y0071800D01*
X0142400Y0069977D01*
X0144977Y0067400D01*
X0146800Y0067400D01*
X0146800Y0067543D02*
X0146800Y0067543D01*
X0146800Y0069142D02*
X0146800Y0069142D01*
X0146800Y0070740D02*
X0146800Y0070740D01*
X0146800Y0072339D02*
X0146800Y0072339D01*
X0146800Y0073937D02*
X0146800Y0073937D01*
X0146800Y0075536D02*
X0146800Y0075536D01*
X0145529Y0077134D02*
X0163740Y0077134D01*
X0162142Y0075536D02*
X0149287Y0075536D01*
X0150885Y0073937D02*
X0160543Y0073937D01*
X0158945Y0072339D02*
X0151200Y0072339D01*
X0151200Y0070740D02*
X0157346Y0070740D01*
X0156800Y0066800D02*
X0151800Y0066800D01*
X0136800Y0051800D01*
X0121800Y0051800D01*
X0126901Y0048361D02*
X0139967Y0048361D01*
X0141566Y0049960D02*
X0138354Y0049960D01*
X0139952Y0051558D02*
X0143164Y0051558D01*
X0144763Y0053157D02*
X0141551Y0053157D01*
X0143149Y0054755D02*
X0146361Y0054755D01*
X0147960Y0056354D02*
X0144748Y0056354D01*
X0146346Y0057952D02*
X0149558Y0057952D01*
X0147945Y0059551D02*
X0169400Y0059551D01*
X0169400Y0061149D02*
X0149543Y0061149D01*
X0151142Y0062748D02*
X0169400Y0062748D01*
X0169400Y0064346D02*
X0152741Y0064346D01*
X0156800Y0066800D02*
X0196800Y0106800D01*
X0196800Y0096800D02*
X0176000Y0076000D01*
X0178930Y0075536D02*
X0182142Y0075536D01*
X0183740Y0077134D02*
X0180529Y0077134D01*
X0182127Y0078733D02*
X0185339Y0078733D01*
X0186937Y0080332D02*
X0183726Y0080332D01*
X0185324Y0081930D02*
X0188536Y0081930D01*
X0190134Y0083529D02*
X0186923Y0083529D01*
X0188521Y0085127D02*
X0191733Y0085127D01*
X0191500Y0086726D02*
X0190120Y0086726D01*
X0186528Y0089923D02*
X0183317Y0089923D01*
X0184915Y0091521D02*
X0188127Y0091521D01*
X0189726Y0093120D02*
X0186514Y0093120D01*
X0188112Y0094718D02*
X0191324Y0094718D01*
X0191500Y0096317D02*
X0189711Y0096317D01*
X0191309Y0097915D02*
X0191525Y0097915D01*
X0181800Y0101800D02*
X0181800Y0111800D01*
X0186800Y0116800D01*
X0179410Y0112302D02*
X0145696Y0112302D01*
X0144097Y0110703D02*
X0179400Y0110703D01*
X0179400Y0109105D02*
X0127644Y0109105D01*
X0125458Y0105908D02*
X0179400Y0105908D01*
X0179400Y0107506D02*
X0120900Y0107506D01*
X0121800Y0111800D02*
X0141800Y0111800D01*
X0128569Y0102711D02*
X0164317Y0102711D01*
X0162718Y0101112D02*
X0128600Y0101112D01*
X0127999Y0099514D02*
X0161120Y0099514D01*
X0159521Y0097915D02*
X0125996Y0097915D01*
X0125235Y0096000D02*
X0126779Y0095361D01*
X0127961Y0094179D01*
X0128600Y0092635D01*
X0128600Y0090965D01*
X0127961Y0089421D01*
X0126779Y0088239D01*
X0125235Y0087600D01*
X0118365Y0087600D01*
X0116821Y0088239D01*
X0115639Y0089421D01*
X0115000Y0090965D01*
X0115000Y0092635D01*
X0115639Y0094179D01*
X0116821Y0095361D01*
X0118365Y0096000D01*
X0125235Y0096000D01*
X0127422Y0094718D02*
X0143778Y0094718D01*
X0143239Y0094179D02*
X0142600Y0092635D01*
X0142600Y0090994D01*
X0135806Y0084200D01*
X0127940Y0084200D01*
X0126779Y0085361D01*
X0125235Y0086000D01*
X0118365Y0086000D01*
X0116821Y0085361D01*
X0115639Y0084179D01*
X0115000Y0082635D01*
X0115000Y0080965D01*
X0115639Y0079421D01*
X0116821Y0078239D01*
X0118365Y0077600D01*
X0125235Y0077600D01*
X0126779Y0078239D01*
X0127940Y0079400D01*
X0137277Y0079400D01*
X0138159Y0079765D01*
X0145994Y0087600D01*
X0147635Y0087600D01*
X0149179Y0088239D01*
X0150361Y0089421D01*
X0151000Y0090965D01*
X0151000Y0092635D01*
X0150361Y0094179D01*
X0149179Y0095361D01*
X0147635Y0096000D01*
X0145965Y0096000D01*
X0144421Y0095361D01*
X0143239Y0094179D01*
X0142801Y0093120D02*
X0128399Y0093120D01*
X0128600Y0091521D02*
X0142600Y0091521D01*
X0141528Y0089923D02*
X0128168Y0089923D01*
X0126864Y0088324D02*
X0139930Y0088324D01*
X0138331Y0086726D02*
X0114200Y0086726D01*
X0114200Y0088324D02*
X0116736Y0088324D01*
X0115432Y0089923D02*
X0114200Y0089923D01*
X0114200Y0091521D02*
X0115000Y0091521D01*
X0115201Y0093120D02*
X0114200Y0093120D01*
X0114200Y0094718D02*
X0116178Y0094718D01*
X0114200Y0096317D02*
X0157923Y0096317D01*
X0156324Y0094718D02*
X0149822Y0094718D01*
X0150799Y0093120D02*
X0154726Y0093120D01*
X0153127Y0091521D02*
X0151000Y0091521D01*
X0150568Y0089923D02*
X0151528Y0089923D01*
X0149930Y0088324D02*
X0149264Y0088324D01*
X0148331Y0086726D02*
X0145120Y0086726D01*
X0143521Y0085127D02*
X0146733Y0085127D01*
X0145134Y0083529D02*
X0141923Y0083529D01*
X0140324Y0081930D02*
X0143536Y0081930D01*
X0141937Y0080332D02*
X0138726Y0080332D01*
X0140339Y0078733D02*
X0127273Y0078733D01*
X0126089Y0075878D02*
X0125430Y0076092D01*
X0124746Y0076200D01*
X0121800Y0076200D01*
X0121800Y0071800D01*
X0121800Y0071800D01*
X0128800Y0071800D01*
X0128800Y0072146D01*
X0128692Y0072830D01*
X0128478Y0073489D01*
X0128163Y0074106D01*
X0127756Y0074666D01*
X0127266Y0075156D01*
X0126706Y0075563D01*
X0126089Y0075878D01*
X0126744Y0075536D02*
X0137142Y0075536D01*
X0138740Y0077134D02*
X0114200Y0077134D01*
X0114200Y0075536D02*
X0116856Y0075536D01*
X0116894Y0075563D02*
X0116334Y0075156D01*
X0115844Y0074666D01*
X0115437Y0074106D01*
X0115122Y0073489D01*
X0114908Y0072830D01*
X0114800Y0072146D01*
X0114800Y0071800D01*
X0121800Y0071800D01*
X0121800Y0071800D01*
X0121800Y0067400D01*
X0124746Y0067400D01*
X0125430Y0067508D01*
X0126089Y0067722D01*
X0126706Y0068037D01*
X0127266Y0068444D01*
X0127756Y0068934D01*
X0128163Y0069494D01*
X0128478Y0070111D01*
X0128692Y0070770D01*
X0128800Y0071454D01*
X0128800Y0071800D01*
X0121800Y0071800D01*
X0121800Y0071800D01*
X0121800Y0071800D01*
X0121800Y0076200D01*
X0118854Y0076200D01*
X0118170Y0076092D01*
X0117511Y0075878D01*
X0116894Y0075563D01*
X0115351Y0073937D02*
X0114200Y0073937D01*
X0114200Y0072339D02*
X0114831Y0072339D01*
X0114800Y0071800D02*
X0114800Y0071454D01*
X0114908Y0070770D01*
X0115122Y0070111D01*
X0115437Y0069494D01*
X0115844Y0068934D01*
X0116334Y0068444D01*
X0116894Y0068037D01*
X0117511Y0067722D01*
X0118170Y0067508D01*
X0118854Y0067400D01*
X0121800Y0067400D01*
X0121800Y0071800D01*
X0114800Y0071800D01*
X0114918Y0070740D02*
X0114200Y0070740D01*
X0114200Y0069142D02*
X0115692Y0069142D01*
X0114200Y0067543D02*
X0118062Y0067543D01*
X0118232Y0065945D02*
X0114200Y0065945D01*
X0114200Y0064346D02*
X0115807Y0064346D01*
X0115047Y0062748D02*
X0114200Y0062748D01*
X0114200Y0061149D02*
X0115000Y0061149D01*
X0115586Y0059551D02*
X0114200Y0059551D01*
X0114200Y0057952D02*
X0117514Y0057952D01*
X0121800Y0061800D02*
X0126800Y0061800D01*
X0166800Y0101800D01*
X0181800Y0101800D01*
X0179400Y0104309D02*
X0127830Y0104309D01*
X0121800Y0111800D02*
X0111800Y0101800D01*
X0111800Y0041800D01*
X0111800Y0021800D01*
X0156800Y0021800D01*
X0161800Y0016800D01*
X0164134Y0013194D02*
X0169466Y0013194D01*
X0170060Y0012600D02*
X0167600Y0015060D01*
X0167600Y0018540D01*
X0170060Y0021000D01*
X0173540Y0021000D01*
X0176000Y0018540D01*
X0176000Y0015060D01*
X0173540Y0012600D01*
X0170060Y0012600D01*
X0167868Y0014793D02*
X0165732Y0014793D01*
X0166000Y0016391D02*
X0167600Y0016391D01*
X0167600Y0017990D02*
X0166000Y0017990D01*
X0164952Y0019588D02*
X0168648Y0019588D01*
X0174952Y0019588D02*
X0198850Y0019588D01*
X0198850Y0017990D02*
X0176000Y0017990D01*
X0176000Y0016391D02*
X0198850Y0016391D01*
X0198850Y0014793D02*
X0175732Y0014793D01*
X0174134Y0013194D02*
X0198850Y0013194D01*
X0198850Y0021187D02*
X0160807Y0021187D01*
X0159209Y0022785D02*
X0198850Y0022785D01*
X0198850Y0024384D02*
X0114200Y0024384D01*
X0114200Y0025982D02*
X0198850Y0025982D01*
X0198850Y0027581D02*
X0114200Y0027581D01*
X0114200Y0029179D02*
X0115881Y0029179D01*
X0115077Y0030778D02*
X0114200Y0030778D01*
X0114200Y0032376D02*
X0115000Y0032376D01*
X0115555Y0033975D02*
X0114200Y0033975D01*
X0114200Y0035573D02*
X0117334Y0035573D01*
X0114200Y0037172D02*
X0138778Y0037172D01*
X0140376Y0038770D02*
X0127310Y0038770D01*
X0126266Y0035573D02*
X0137179Y0035573D01*
X0140770Y0032376D02*
X0142600Y0032376D01*
X0142600Y0033540D02*
X0142600Y0030060D01*
X0145060Y0027600D01*
X0148540Y0027600D01*
X0151000Y0030060D01*
X0151000Y0033540D01*
X0148540Y0036000D01*
X0145060Y0036000D01*
X0142600Y0033540D01*
X0142369Y0033975D02*
X0143035Y0033975D01*
X0143967Y0035573D02*
X0144634Y0035573D01*
X0145566Y0037172D02*
X0198850Y0037172D01*
X0198850Y0038770D02*
X0147164Y0038770D01*
X0148763Y0040369D02*
X0198850Y0040369D01*
X0198850Y0041967D02*
X0150361Y0041967D01*
X0151960Y0043566D02*
X0198850Y0043566D01*
X0198850Y0045164D02*
X0183558Y0045164D01*
X0184200Y0046763D02*
X0198850Y0046763D01*
X0198850Y0048361D02*
X0184200Y0048361D01*
X0184200Y0049960D02*
X0198850Y0049960D01*
X0198850Y0051558D02*
X0184200Y0051558D01*
X0184200Y0053157D02*
X0198850Y0053157D01*
X0198850Y0054755D02*
X0184200Y0054755D01*
X0184200Y0056354D02*
X0198850Y0056354D01*
X0198850Y0057952D02*
X0184200Y0057952D01*
X0184200Y0059551D02*
X0198850Y0059551D01*
X0198850Y0061149D02*
X0184200Y0061149D01*
X0184200Y0062748D02*
X0198850Y0062748D01*
X0198850Y0064346D02*
X0184200Y0064346D01*
X0184200Y0065945D02*
X0198850Y0065945D01*
X0198850Y0067543D02*
X0184200Y0067543D01*
X0184200Y0069142D02*
X0198850Y0069142D01*
X0198850Y0070740D02*
X0184200Y0070740D01*
X0185733Y0072339D02*
X0193583Y0072339D01*
X0193917Y0072096D02*
X0194689Y0071703D01*
X0195512Y0071435D01*
X0196367Y0071300D01*
X0196600Y0071300D01*
X0196600Y0076600D01*
X0191300Y0076600D01*
X0191300Y0076367D01*
X0191435Y0075512D01*
X0191703Y0074689D01*
X0192096Y0073917D01*
X0192605Y0073217D01*
X0193217Y0072605D01*
X0193917Y0072096D01*
X0192086Y0073937D02*
X0187332Y0073937D01*
X0188930Y0075536D02*
X0191432Y0075536D01*
X0191300Y0077134D02*
X0190529Y0077134D01*
X0196600Y0075536D02*
X0197000Y0075536D01*
X0197000Y0073937D02*
X0196600Y0073937D01*
X0196600Y0072339D02*
X0197000Y0072339D01*
X0196800Y0086800D02*
X0181800Y0071800D01*
X0181800Y0046800D01*
X0151800Y0046800D01*
X0136800Y0031800D01*
X0121800Y0031800D01*
X0127719Y0029179D02*
X0143481Y0029179D01*
X0142600Y0030778D02*
X0139172Y0030778D01*
X0138835Y0030441D02*
X0138835Y0030441D01*
X0138763Y0040369D02*
X0141975Y0040369D01*
X0143573Y0041967D02*
X0140361Y0041967D01*
X0141960Y0043566D02*
X0145172Y0043566D01*
X0146770Y0045164D02*
X0143558Y0045164D01*
X0145157Y0046763D02*
X0148369Y0046763D01*
X0149967Y0048361D02*
X0146755Y0048361D01*
X0148354Y0049960D02*
X0179400Y0049960D01*
X0179400Y0051558D02*
X0149952Y0051558D01*
X0151551Y0053157D02*
X0179400Y0053157D01*
X0179400Y0054755D02*
X0173135Y0054755D01*
X0174200Y0056354D02*
X0179400Y0056354D01*
X0179400Y0057952D02*
X0174200Y0057952D01*
X0174200Y0059551D02*
X0179400Y0059551D01*
X0179400Y0061149D02*
X0174200Y0061149D01*
X0174200Y0062748D02*
X0179400Y0062748D01*
X0179400Y0064346D02*
X0174200Y0064346D01*
X0175279Y0065945D02*
X0179400Y0065945D01*
X0179400Y0067543D02*
X0176877Y0067543D01*
X0178217Y0069142D02*
X0179400Y0069142D01*
X0179400Y0070740D02*
X0178400Y0070740D01*
X0178400Y0072339D02*
X0179426Y0072339D01*
X0178400Y0073937D02*
X0180543Y0073937D01*
X0171800Y0073937D02*
X0171800Y0073937D01*
X0171800Y0072339D02*
X0171800Y0072339D01*
X0171800Y0075536D02*
X0171800Y0075536D01*
X0169313Y0075536D02*
X0168930Y0075536D01*
X0167715Y0073937D02*
X0167332Y0073937D01*
X0167400Y0072339D02*
X0165733Y0072339D01*
X0164135Y0070740D02*
X0167400Y0070740D01*
X0168236Y0069142D02*
X0162536Y0069142D01*
X0160938Y0067543D02*
X0169834Y0067543D01*
X0169400Y0065945D02*
X0159339Y0065945D01*
X0151182Y0069142D02*
X0150364Y0069142D01*
X0149149Y0067543D02*
X0148766Y0067543D01*
X0144834Y0067543D02*
X0135938Y0067543D01*
X0137536Y0069142D02*
X0143236Y0069142D01*
X0142400Y0070740D02*
X0139135Y0070740D01*
X0140733Y0072339D02*
X0142400Y0072339D01*
X0142332Y0073937D02*
X0142715Y0073937D01*
X0143930Y0075536D02*
X0144313Y0075536D01*
X0147127Y0078733D02*
X0165339Y0078733D01*
X0166937Y0080332D02*
X0148726Y0080332D01*
X0150324Y0081930D02*
X0168536Y0081930D01*
X0170134Y0083529D02*
X0151923Y0083529D01*
X0153521Y0085127D02*
X0171733Y0085127D01*
X0181718Y0088324D02*
X0184930Y0088324D01*
X0146800Y0091800D02*
X0136800Y0081800D01*
X0121800Y0081800D01*
X0127013Y0085127D02*
X0136733Y0085127D01*
X0135543Y0073937D02*
X0128249Y0073937D01*
X0128769Y0072339D02*
X0133945Y0072339D01*
X0132346Y0070740D02*
X0128682Y0070740D01*
X0127907Y0069142D02*
X0130748Y0069142D01*
X0129149Y0067543D02*
X0125538Y0067543D01*
X0125368Y0065945D02*
X0127551Y0065945D01*
X0121800Y0067543D02*
X0121800Y0067543D01*
X0121800Y0069142D02*
X0121800Y0069142D01*
X0121800Y0070740D02*
X0121800Y0070740D01*
X0121800Y0072339D02*
X0121800Y0072339D01*
X0121800Y0073937D02*
X0121800Y0073937D01*
X0121800Y0075536D02*
X0121800Y0075536D01*
X0116327Y0078733D02*
X0114200Y0078733D01*
X0114200Y0080332D02*
X0115262Y0080332D01*
X0115000Y0081930D02*
X0114200Y0081930D01*
X0114200Y0083529D02*
X0115370Y0083529D01*
X0114200Y0085127D02*
X0116587Y0085127D01*
X0109400Y0085127D02*
X0097013Y0085127D01*
X0098230Y0083529D02*
X0109400Y0083529D01*
X0109400Y0081930D02*
X0098600Y0081930D01*
X0098338Y0080332D02*
X0109400Y0080332D01*
X0109400Y0078733D02*
X0097273Y0078733D01*
X0096356Y0075536D02*
X0109400Y0075536D01*
X0109400Y0077134D02*
X0082300Y0077134D01*
X0082168Y0075536D02*
X0087244Y0075536D01*
X0085539Y0073937D02*
X0081514Y0073937D01*
X0080017Y0072339D02*
X0085000Y0072339D01*
X0085093Y0070740D02*
X0080355Y0070740D01*
X0076800Y0066800D02*
X0086800Y0066800D01*
X0091800Y0071800D01*
X0090938Y0067543D02*
X0109400Y0067543D01*
X0109400Y0065945D02*
X0095368Y0065945D01*
X0097793Y0064346D02*
X0109400Y0064346D01*
X0109400Y0062748D02*
X0098553Y0062748D01*
X0098600Y0061149D02*
X0109400Y0061149D01*
X0109400Y0059551D02*
X0098014Y0059551D01*
X0096086Y0057952D02*
X0109400Y0057952D01*
X0109400Y0056354D02*
X0065640Y0056354D01*
X0064708Y0057952D02*
X0064042Y0057952D01*
X0063109Y0059551D02*
X0062443Y0059551D01*
X0062600Y0061149D02*
X0060845Y0061149D01*
X0059246Y0062748D02*
X0062600Y0062748D01*
X0063407Y0064346D02*
X0030193Y0064346D01*
X0028595Y0065945D02*
X0065005Y0065945D01*
X0068595Y0065945D02*
X0069100Y0065945D01*
X0069100Y0067543D02*
X0029998Y0067543D01*
X0031596Y0069142D02*
X0069100Y0069142D01*
X0069100Y0070740D02*
X0033195Y0070740D01*
X0034200Y0072339D02*
X0067867Y0072339D01*
X0071500Y0072100D02*
X0066800Y0076800D01*
X0066800Y0091800D01*
X0054300Y0104300D01*
X0016800Y0104300D01*
X0019094Y0099514D02*
X0055692Y0099514D01*
X0054094Y0101112D02*
X0021107Y0101112D01*
X0020680Y0097915D02*
X0057291Y0097915D01*
X0058889Y0096317D02*
X0025677Y0096317D01*
X0027276Y0094718D02*
X0060488Y0094718D01*
X0062086Y0093120D02*
X0028874Y0093120D01*
X0030473Y0091521D02*
X0063685Y0091521D01*
X0064400Y0089923D02*
X0032072Y0089923D01*
X0033670Y0088324D02*
X0064400Y0088324D01*
X0064400Y0086726D02*
X0034200Y0086726D01*
X0034200Y0085127D02*
X0064400Y0085127D01*
X0064400Y0083529D02*
X0034200Y0083529D01*
X0034200Y0081930D02*
X0064400Y0081930D01*
X0064392Y0080332D02*
X0034200Y0080332D01*
X0034200Y0078733D02*
X0062793Y0078733D01*
X0062600Y0077134D02*
X0034200Y0077134D01*
X0034200Y0075536D02*
X0062600Y0075536D01*
X0063723Y0073937D02*
X0034200Y0073937D01*
X0031800Y0072740D02*
X0022600Y0063540D01*
X0022600Y0052600D01*
X0016800Y0046800D01*
X0016800Y0031800D01*
X0021800Y0026800D01*
X0081800Y0026800D01*
X0084207Y0029179D02*
X0085881Y0029179D01*
X0085140Y0027581D02*
X0109400Y0027581D01*
X0109400Y0029179D02*
X0097719Y0029179D01*
X0098523Y0030778D02*
X0109400Y0030778D01*
X0109400Y0032376D02*
X0098600Y0032376D01*
X0098045Y0033975D02*
X0109400Y0033975D01*
X0109400Y0035573D02*
X0096266Y0035573D01*
X0097310Y0038770D02*
X0109400Y0038770D01*
X0109400Y0037172D02*
X0064822Y0037172D01*
X0063224Y0038770D02*
X0073890Y0038770D01*
X0072600Y0040369D02*
X0061625Y0040369D01*
X0060027Y0041967D02*
X0072600Y0041967D01*
X0071640Y0043566D02*
X0058428Y0043566D01*
X0056830Y0045164D02*
X0070042Y0045164D01*
X0068443Y0046763D02*
X0055231Y0046763D01*
X0053633Y0048361D02*
X0066845Y0048361D01*
X0065246Y0049960D02*
X0043015Y0049960D01*
X0040585Y0049960D02*
X0023354Y0049960D01*
X0024766Y0051558D02*
X0063648Y0051558D01*
X0062049Y0053157D02*
X0025000Y0053157D01*
X0025000Y0054755D02*
X0060451Y0054755D01*
X0058852Y0056354D02*
X0025000Y0056354D01*
X0028892Y0057952D02*
X0057254Y0057952D01*
X0056800Y0061800D02*
X0076800Y0041800D01*
X0091800Y0041800D01*
X0111800Y0041800D01*
X0114200Y0041967D02*
X0115000Y0041967D01*
X0115247Y0040369D02*
X0114200Y0040369D01*
X0114200Y0038770D02*
X0116290Y0038770D01*
X0115385Y0043566D02*
X0114200Y0043566D01*
X0114200Y0045164D02*
X0116625Y0045164D01*
X0109400Y0045164D02*
X0096975Y0045164D01*
X0096901Y0048361D02*
X0109400Y0048361D01*
X0109400Y0046763D02*
X0075231Y0046763D01*
X0074977Y0047400D02*
X0072400Y0049977D01*
X0072400Y0051800D01*
X0076800Y0051800D01*
X0076800Y0051800D01*
X0076800Y0056200D01*
X0078623Y0056200D01*
X0081200Y0053623D01*
X0081200Y0051800D01*
X0076800Y0051800D01*
X0076800Y0051800D01*
X0076800Y0051800D01*
X0076800Y0056200D01*
X0074977Y0056200D01*
X0072400Y0053623D01*
X0072400Y0051800D01*
X0076800Y0051800D01*
X0081200Y0051800D01*
X0081200Y0049977D01*
X0078623Y0047400D01*
X0076800Y0047400D01*
X0076800Y0051800D01*
X0076800Y0051800D01*
X0076800Y0047400D01*
X0074977Y0047400D01*
X0074016Y0048361D02*
X0073633Y0048361D01*
X0072418Y0049960D02*
X0072034Y0049960D01*
X0072400Y0051558D02*
X0070436Y0051558D01*
X0068837Y0053157D02*
X0072400Y0053157D01*
X0073533Y0054755D02*
X0067239Y0054755D01*
X0068892Y0057952D02*
X0087514Y0057952D01*
X0086216Y0054755D02*
X0080067Y0054755D01*
X0081200Y0053157D02*
X0085216Y0053157D01*
X0085000Y0051558D02*
X0081200Y0051558D01*
X0081182Y0049960D02*
X0085416Y0049960D01*
X0086699Y0048361D02*
X0079584Y0048361D01*
X0079375Y0045164D02*
X0086625Y0045164D01*
X0086290Y0038770D02*
X0079710Y0038770D01*
X0087334Y0035573D02*
X0066421Y0035573D01*
X0066800Y0031800D02*
X0091800Y0031800D01*
X0085124Y0025982D02*
X0109400Y0025982D01*
X0109400Y0024384D02*
X0084170Y0024384D01*
X0079430Y0024384D02*
X0011600Y0024384D01*
X0011600Y0025982D02*
X0019224Y0025982D01*
X0017625Y0027581D02*
X0011600Y0027581D01*
X0011600Y0029179D02*
X0016027Y0029179D01*
X0014626Y0030778D02*
X0011600Y0030778D01*
X0011600Y0032376D02*
X0014400Y0032376D01*
X0014400Y0033975D02*
X0011600Y0033975D01*
X0011600Y0035573D02*
X0014400Y0035573D01*
X0014400Y0037172D02*
X0011600Y0037172D01*
X0011600Y0038770D02*
X0014400Y0038770D01*
X0014400Y0040369D02*
X0011600Y0040369D01*
X0011600Y0041967D02*
X0014400Y0041967D01*
X0014400Y0043566D02*
X0011600Y0043566D01*
X0011600Y0045164D02*
X0014400Y0045164D01*
X0014400Y0046763D02*
X0011600Y0046763D01*
X0011600Y0048361D02*
X0014967Y0048361D01*
X0016566Y0049960D02*
X0011600Y0049960D01*
X0011600Y0051558D02*
X0018164Y0051558D01*
X0019763Y0053157D02*
X0011600Y0053157D01*
X0011600Y0054755D02*
X0020200Y0054755D01*
X0020200Y0056354D02*
X0011600Y0056354D01*
X0011600Y0057952D02*
X0020200Y0057952D01*
X0020200Y0059551D02*
X0011600Y0059551D01*
X0011600Y0061149D02*
X0020200Y0061149D01*
X0020200Y0062748D02*
X0011600Y0062748D01*
X0011600Y0064346D02*
X0020336Y0064346D01*
X0021611Y0065945D02*
X0011600Y0065945D01*
X0011600Y0067543D02*
X0023210Y0067543D01*
X0024808Y0069142D02*
X0018723Y0069142D01*
X0018911Y0069203D02*
X0019683Y0069596D01*
X0020383Y0070105D01*
X0020995Y0070717D01*
X0021504Y0071417D01*
X0021897Y0072189D01*
X0022165Y0073012D01*
X0022300Y0073867D01*
X0022300Y0074100D01*
X0017000Y0074100D01*
X0017000Y0068800D01*
X0017233Y0068800D01*
X0018088Y0068935D01*
X0018911Y0069203D01*
X0017000Y0069142D02*
X0016600Y0069142D01*
X0016600Y0070740D02*
X0017000Y0070740D01*
X0017000Y0072339D02*
X0016600Y0072339D01*
X0016600Y0073937D02*
X0017000Y0073937D01*
X0021012Y0070740D02*
X0026407Y0070740D01*
X0028005Y0072339D02*
X0021946Y0072339D01*
X0022300Y0073937D02*
X0023723Y0073937D01*
X0022600Y0075536D02*
X0022173Y0075536D01*
X0022600Y0077134D02*
X0021529Y0077134D01*
X0022793Y0078733D02*
X0020056Y0078733D01*
X0020327Y0080332D02*
X0024392Y0080332D01*
X0021555Y0081930D02*
X0029400Y0081930D01*
X0029400Y0080332D02*
X0029208Y0080332D01*
X0029400Y0083529D02*
X0022100Y0083529D01*
X0022100Y0085127D02*
X0029400Y0085127D01*
X0028480Y0086726D02*
X0021532Y0086726D01*
X0020271Y0088324D02*
X0026882Y0088324D01*
X0025283Y0089923D02*
X0019918Y0089923D01*
X0021386Y0091521D02*
X0023685Y0091521D01*
X0024300Y0094300D02*
X0031800Y0086800D01*
X0031800Y0072740D01*
X0026800Y0061800D02*
X0056800Y0061800D01*
X0070491Y0059551D02*
X0073160Y0059551D01*
X0071561Y0061149D02*
X0071000Y0061149D01*
X0071500Y0064605D02*
X0074605Y0061500D01*
X0090040Y0061500D01*
X0090340Y0061800D01*
X0091800Y0061800D01*
X0097384Y0054755D02*
X0105091Y0054755D01*
X0106800Y0051800D02*
X0091800Y0051800D01*
X0076800Y0051558D02*
X0076800Y0051558D01*
X0076800Y0049960D02*
X0076800Y0049960D01*
X0076800Y0048361D02*
X0076800Y0048361D01*
X0076800Y0053157D02*
X0076800Y0053157D01*
X0076800Y0054755D02*
X0076800Y0054755D01*
X0071500Y0064605D02*
X0071500Y0072100D01*
X0071300Y0077134D02*
X0071000Y0077134D01*
X0070807Y0078733D02*
X0071645Y0078733D01*
X0072567Y0080332D02*
X0069208Y0080332D01*
X0069200Y0081930D02*
X0074708Y0081930D01*
X0072576Y0083529D02*
X0069200Y0083529D01*
X0069200Y0085127D02*
X0071756Y0085127D01*
X0071500Y0086726D02*
X0069200Y0086726D01*
X0069200Y0088324D02*
X0071695Y0088324D01*
X0072427Y0089923D02*
X0069200Y0089923D01*
X0069200Y0091521D02*
X0074348Y0091521D01*
X0076800Y0086800D02*
X0086800Y0086800D01*
X0091800Y0081800D01*
X0090269Y0086726D02*
X0109400Y0086726D01*
X0109400Y0088324D02*
X0097102Y0088324D01*
X0098382Y0089923D02*
X0109400Y0089923D01*
X0109400Y0091521D02*
X0098800Y0091521D01*
X0098598Y0093120D02*
X0109400Y0093120D01*
X0109400Y0094718D02*
X0097704Y0094718D01*
X0095996Y0097915D02*
X0109400Y0097915D01*
X0109400Y0096317D02*
X0065677Y0096317D01*
X0064079Y0097915D02*
X0087604Y0097915D01*
X0085896Y0094718D02*
X0067276Y0094718D01*
X0068851Y0093120D02*
X0085002Y0093120D01*
X0084800Y0091521D02*
X0079252Y0091521D01*
X0081173Y0089923D02*
X0085218Y0089923D01*
X0085370Y0083529D02*
X0081024Y0083529D01*
X0078892Y0081930D02*
X0085000Y0081930D01*
X0085262Y0080332D02*
X0081033Y0080332D01*
X0081955Y0078733D02*
X0086327Y0078733D01*
X0091800Y0088324D02*
X0091800Y0088324D01*
X0091800Y0089923D02*
X0091800Y0089923D01*
X0091800Y0091521D02*
X0091800Y0091521D01*
X0091800Y0093120D02*
X0091800Y0093120D01*
X0091800Y0094718D02*
X0091800Y0094718D01*
X0091800Y0101800D02*
X0066800Y0101800D01*
X0054300Y0114300D01*
X0016800Y0114300D01*
X0020699Y0110703D02*
X0054503Y0110703D01*
X0056101Y0109105D02*
X0019050Y0109105D01*
X0021089Y0107506D02*
X0057700Y0107506D01*
X0059298Y0105908D02*
X0056086Y0105908D01*
X0057685Y0104309D02*
X0060897Y0104309D01*
X0062495Y0102711D02*
X0059283Y0102711D01*
X0060882Y0101112D02*
X0064094Y0101112D01*
X0062480Y0099514D02*
X0066048Y0099514D01*
X0067685Y0104309D02*
X0085770Y0104309D01*
X0088142Y0105908D02*
X0066086Y0105908D01*
X0064488Y0107506D02*
X0114112Y0107506D01*
X0112514Y0105908D02*
X0095458Y0105908D01*
X0097830Y0104309D02*
X0110915Y0104309D01*
X0109579Y0102711D02*
X0098569Y0102711D01*
X0098600Y0101112D02*
X0109400Y0101112D01*
X0109400Y0099514D02*
X0097999Y0099514D01*
X0097644Y0109105D02*
X0115711Y0109105D01*
X0115108Y0110703D02*
X0098492Y0110703D01*
X0098600Y0112302D02*
X0115000Y0112302D01*
X0115524Y0113900D02*
X0098076Y0113900D01*
X0096445Y0115499D02*
X0117155Y0115499D01*
X0116365Y0118696D02*
X0097235Y0118696D01*
X0101800Y0121800D02*
X0091800Y0121800D01*
X0086550Y0125090D02*
X0060654Y0125090D01*
X0062253Y0123491D02*
X0085355Y0123491D01*
X0085000Y0121893D02*
X0063851Y0121893D01*
X0065450Y0120294D02*
X0085278Y0120294D01*
X0086365Y0118696D02*
X0067048Y0118696D01*
X0063457Y0115499D02*
X0056495Y0115499D01*
X0058094Y0113900D02*
X0065056Y0113900D01*
X0066654Y0112302D02*
X0059692Y0112302D01*
X0061291Y0110703D02*
X0068253Y0110703D01*
X0062889Y0109105D02*
X0085956Y0109105D01*
X0097050Y0125090D02*
X0101696Y0125090D01*
X0103294Y0126688D02*
X0058555Y0126688D01*
X0057063Y0121893D02*
X0021540Y0121893D01*
X0020290Y0120294D02*
X0058662Y0120294D01*
X0060260Y0118696D02*
X0019900Y0118696D01*
X0021378Y0117097D02*
X0061859Y0117097D01*
X0054300Y0134300D02*
X0061800Y0141800D01*
X0091800Y0141800D01*
X0088052Y0145870D02*
X0054265Y0145870D01*
X0052666Y0144272D02*
X0085732Y0144272D01*
X0085993Y0149068D02*
X0057462Y0149068D01*
X0055863Y0147469D02*
X0109400Y0147469D01*
X0114200Y0147469D02*
X0118418Y0147469D01*
X0118170Y0147508D02*
X0118854Y0147400D01*
X0121800Y0147400D01*
X0124746Y0147400D01*
X0125430Y0147508D01*
X0126089Y0147722D01*
X0126706Y0148037D01*
X0127266Y0148444D01*
X0127756Y0148934D01*
X0128163Y0149494D01*
X0128478Y0150111D01*
X0128692Y0150770D01*
X0128800Y0151454D01*
X0128800Y0151800D01*
X0128800Y0152146D01*
X0128800Y0151800D02*
X0121800Y0151800D01*
X0121800Y0151800D01*
X0128800Y0151800D01*
X0128658Y0150666D02*
X0143600Y0150666D01*
X0145060Y0152600D02*
X0140860Y0156800D01*
X0111800Y0156800D01*
X0111800Y0141800D01*
X0101800Y0131800D01*
X0091800Y0131800D01*
X0096827Y0128287D02*
X0104893Y0128287D01*
X0106491Y0129885D02*
X0103279Y0129885D01*
X0104878Y0131484D02*
X0108090Y0131484D01*
X0109688Y0133082D02*
X0106477Y0133082D01*
X0108075Y0134681D02*
X0111287Y0134681D01*
X0112885Y0136279D02*
X0109674Y0136279D01*
X0111272Y0137878D02*
X0114484Y0137878D01*
X0115616Y0139476D02*
X0112871Y0139476D01*
X0114097Y0141075D02*
X0115000Y0141075D01*
X0115016Y0142673D02*
X0114200Y0142673D01*
X0114200Y0144272D02*
X0115732Y0144272D01*
X0114200Y0145870D02*
X0118052Y0145870D01*
X0118170Y0147508D02*
X0117511Y0147722D01*
X0116894Y0148037D01*
X0116334Y0148444D01*
X0115844Y0148934D01*
X0115437Y0149494D01*
X0115122Y0150111D01*
X0114908Y0150770D01*
X0114800Y0151454D01*
X0114800Y0151800D01*
X0121800Y0151800D01*
X0121800Y0147400D01*
X0121800Y0151800D01*
X0121800Y0151800D01*
X0121800Y0151800D01*
X0121800Y0150666D02*
X0121800Y0150666D01*
X0121800Y0149068D02*
X0121800Y0149068D01*
X0121800Y0147469D02*
X0121800Y0147469D01*
X0125182Y0147469D02*
X0139075Y0147469D01*
X0137476Y0145870D02*
X0125548Y0145870D01*
X0127868Y0144272D02*
X0135878Y0144272D01*
X0136800Y0141800D02*
X0121800Y0141800D01*
X0127853Y0149068D02*
X0141003Y0149068D01*
X0142666Y0144272D02*
X0149486Y0144272D01*
X0148499Y0142673D02*
X0141068Y0142673D01*
X0139469Y0141075D02*
X0148437Y0141075D01*
X0148540Y0152600D02*
X0145060Y0152600D01*
X0146800Y0157060D02*
X0146800Y0157060D01*
X0146800Y0158659D02*
X0146800Y0158659D01*
X0146800Y0160257D02*
X0146800Y0160257D01*
X0142436Y0158659D02*
X0142396Y0158659D01*
X0140403Y0153863D02*
X0128287Y0153863D01*
X0115747Y0149068D02*
X0114200Y0149068D01*
X0114200Y0150666D02*
X0114942Y0150666D01*
X0114819Y0152265D02*
X0114200Y0152265D01*
X0114200Y0153863D02*
X0115313Y0153863D01*
X0110264Y0158659D02*
X0097198Y0158659D01*
X0091800Y0151800D02*
X0056800Y0151800D01*
X0049300Y0144300D01*
X0016800Y0144300D01*
X0019004Y0139476D02*
X0056082Y0139476D01*
X0054484Y0137878D02*
X0020717Y0137878D01*
X0021070Y0141075D02*
X0057681Y0141075D01*
X0059279Y0142673D02*
X0051068Y0142673D01*
X0049075Y0147469D02*
X0021126Y0147469D01*
X0019140Y0149068D02*
X0050673Y0149068D01*
X0052272Y0150666D02*
X0011600Y0150666D01*
X0011600Y0149068D02*
X0014460Y0149068D01*
X0012474Y0147469D02*
X0011600Y0147469D01*
X0011600Y0145870D02*
X0011714Y0145870D01*
X0011600Y0152265D02*
X0053870Y0152265D01*
X0055509Y0153863D02*
X0011600Y0153863D01*
X0016800Y0134300D02*
X0054300Y0134300D01*
X0024300Y0094300D02*
X0016800Y0094300D01*
X0011654Y0072339D02*
X0011600Y0072339D01*
X0011600Y0070740D02*
X0012588Y0070740D01*
X0011600Y0069142D02*
X0014877Y0069142D01*
X0021755Y0048361D02*
X0038784Y0048361D01*
X0038416Y0046763D02*
X0020157Y0046763D01*
X0019200Y0045164D02*
X0038814Y0045164D01*
X0040765Y0043566D02*
X0019200Y0043566D01*
X0019200Y0041967D02*
X0024905Y0041967D01*
X0024689Y0041897D02*
X0023917Y0041504D01*
X0023217Y0040995D01*
X0022605Y0040383D01*
X0022096Y0039683D01*
X0021703Y0038911D01*
X0021435Y0038088D01*
X0021300Y0037233D01*
X0021300Y0037000D01*
X0026600Y0037000D01*
X0026600Y0042300D01*
X0026367Y0042300D01*
X0025512Y0042165D01*
X0024689Y0041897D01*
X0026600Y0041967D02*
X0027000Y0041967D01*
X0027000Y0042300D02*
X0027233Y0042300D01*
X0028088Y0042165D01*
X0028911Y0041897D01*
X0029683Y0041504D01*
X0030383Y0040995D01*
X0030995Y0040383D01*
X0031504Y0039683D01*
X0031897Y0038911D01*
X0032165Y0038088D01*
X0032300Y0037233D01*
X0032300Y0037000D01*
X0027000Y0037000D01*
X0027000Y0036600D01*
X0032300Y0036600D01*
X0032300Y0036367D01*
X0032165Y0035512D01*
X0031897Y0034689D01*
X0031504Y0033917D01*
X0030995Y0033217D01*
X0030383Y0032605D01*
X0029683Y0032096D01*
X0028911Y0031703D01*
X0028088Y0031435D01*
X0027233Y0031300D01*
X0027000Y0031300D01*
X0027000Y0036600D01*
X0026600Y0036600D01*
X0026600Y0031300D01*
X0026367Y0031300D01*
X0025512Y0031435D01*
X0024689Y0031703D01*
X0023917Y0032096D01*
X0023217Y0032605D01*
X0022605Y0033217D01*
X0022096Y0033917D01*
X0021703Y0034689D01*
X0021435Y0035512D01*
X0021300Y0036367D01*
X0021300Y0036600D01*
X0026600Y0036600D01*
X0026600Y0037000D01*
X0027000Y0037000D01*
X0027000Y0042300D01*
X0028695Y0041967D02*
X0049905Y0041967D01*
X0049689Y0041897D02*
X0048917Y0041504D01*
X0048217Y0040995D01*
X0047605Y0040383D01*
X0047096Y0039683D01*
X0046703Y0038911D01*
X0046435Y0038088D01*
X0046300Y0037233D01*
X0046300Y0037000D01*
X0051600Y0037000D01*
X0051600Y0042300D01*
X0051367Y0042300D01*
X0050512Y0042165D01*
X0049689Y0041897D01*
X0051600Y0041967D02*
X0052000Y0041967D01*
X0052000Y0040369D02*
X0051600Y0040369D01*
X0051600Y0038770D02*
X0052000Y0038770D01*
X0052000Y0037172D02*
X0051600Y0037172D01*
X0051600Y0037000D02*
X0052000Y0037000D01*
X0052000Y0036600D01*
X0057300Y0036600D01*
X0057300Y0036367D01*
X0057165Y0035512D01*
X0056897Y0034689D01*
X0056504Y0033917D01*
X0055995Y0033217D01*
X0055383Y0032605D01*
X0054683Y0032096D01*
X0053911Y0031703D01*
X0053088Y0031435D01*
X0052233Y0031300D01*
X0052000Y0031300D01*
X0052000Y0036600D01*
X0051600Y0036600D01*
X0051600Y0031300D01*
X0051367Y0031300D01*
X0050512Y0031435D01*
X0049689Y0031703D01*
X0048917Y0032096D01*
X0048217Y0032605D01*
X0047605Y0033217D01*
X0047096Y0033917D01*
X0046703Y0034689D01*
X0046435Y0035512D01*
X0046300Y0036367D01*
X0046300Y0036600D01*
X0051600Y0036600D01*
X0051600Y0037000D01*
X0051600Y0035573D02*
X0052000Y0035573D01*
X0052000Y0033975D02*
X0051600Y0033975D01*
X0051600Y0032376D02*
X0052000Y0032376D01*
X0055068Y0032376D02*
X0062830Y0032376D01*
X0064428Y0030778D02*
X0021216Y0030778D01*
X0019618Y0032376D02*
X0023532Y0032376D01*
X0022067Y0033975D02*
X0019200Y0033975D01*
X0019200Y0035573D02*
X0021426Y0035573D01*
X0021300Y0037172D02*
X0019200Y0037172D01*
X0019200Y0038770D02*
X0021657Y0038770D01*
X0022594Y0040369D02*
X0019200Y0040369D01*
X0026600Y0040369D02*
X0027000Y0040369D01*
X0027000Y0038770D02*
X0026600Y0038770D01*
X0026600Y0037172D02*
X0027000Y0037172D01*
X0027000Y0035573D02*
X0026600Y0035573D01*
X0026600Y0033975D02*
X0027000Y0033975D01*
X0027000Y0032376D02*
X0026600Y0032376D01*
X0030068Y0032376D02*
X0048532Y0032376D01*
X0047067Y0033975D02*
X0031533Y0033975D01*
X0032174Y0035573D02*
X0046426Y0035573D01*
X0046300Y0037172D02*
X0032300Y0037172D01*
X0031943Y0038770D02*
X0046657Y0038770D01*
X0047594Y0040369D02*
X0031006Y0040369D01*
X0041800Y0046800D02*
X0051800Y0046800D01*
X0066800Y0031800D01*
X0061231Y0033975D02*
X0056533Y0033975D01*
X0057174Y0035573D02*
X0059633Y0035573D01*
X0058034Y0037172D02*
X0057300Y0037172D01*
X0051640Y0043566D02*
X0042835Y0043566D01*
X0048691Y0021187D02*
X0029909Y0021187D01*
X0031382Y0019588D02*
X0047218Y0019588D01*
X0046556Y0017990D02*
X0032044Y0017990D01*
X0032100Y0016391D02*
X0046500Y0016391D01*
X0046895Y0014793D02*
X0031705Y0014793D01*
X0030689Y0013194D02*
X0047911Y0013194D01*
X0054909Y0021187D02*
X0109456Y0021187D01*
X0109400Y0022785D02*
X0011600Y0022785D01*
X0011600Y0021187D02*
X0023691Y0021187D01*
X0022218Y0019588D02*
X0011600Y0019588D01*
X0011600Y0017990D02*
X0021556Y0017990D01*
X0021500Y0016391D02*
X0011600Y0016391D01*
X0011600Y0014793D02*
X0021895Y0014793D01*
X0022911Y0013194D02*
X0011600Y0013194D01*
X0055689Y0013194D02*
X0124466Y0013194D01*
X0122868Y0014793D02*
X0056705Y0014793D01*
X0057100Y0016391D02*
X0122600Y0016391D01*
X0122600Y0017990D02*
X0057044Y0017990D01*
X0056382Y0019588D02*
X0110869Y0019588D01*
X0129134Y0013194D02*
X0134466Y0013194D01*
X0132868Y0014793D02*
X0130732Y0014793D01*
X0131000Y0016391D02*
X0132600Y0016391D01*
X0132600Y0017990D02*
X0131000Y0017990D01*
X0139134Y0013194D02*
X0159466Y0013194D01*
X0157868Y0014793D02*
X0140732Y0014793D01*
X0141000Y0016391D02*
X0157600Y0016391D01*
X0157216Y0017990D02*
X0141000Y0017990D01*
X0150119Y0029179D02*
X0168481Y0029179D01*
X0167600Y0030060D02*
X0170060Y0027600D01*
X0173540Y0027600D01*
X0176000Y0030060D01*
X0176000Y0033540D01*
X0173540Y0036000D01*
X0170060Y0036000D01*
X0167600Y0033540D01*
X0167600Y0030060D01*
X0167600Y0030778D02*
X0151000Y0030778D01*
X0151000Y0032376D02*
X0167600Y0032376D01*
X0168035Y0033975D02*
X0150565Y0033975D01*
X0148966Y0035573D02*
X0169634Y0035573D01*
X0173966Y0035573D02*
X0198850Y0035573D01*
X0198850Y0033975D02*
X0175565Y0033975D01*
X0176000Y0032376D02*
X0198850Y0032376D01*
X0198850Y0030778D02*
X0176000Y0030778D01*
X0175119Y0029179D02*
X0198850Y0029179D01*
X0136361Y0054755D02*
X0127384Y0054755D01*
X0109400Y0054755D02*
X0108509Y0054755D01*
X0109400Y0069142D02*
X0097682Y0069142D01*
X0098507Y0070740D02*
X0109400Y0070740D01*
X0109400Y0072339D02*
X0098600Y0072339D01*
X0098061Y0073937D02*
X0109400Y0073937D01*
X0114200Y0097915D02*
X0117604Y0097915D01*
X0115601Y0099514D02*
X0114200Y0099514D01*
X0114506Y0101112D02*
X0115000Y0101112D01*
X0116773Y0128287D02*
X0111681Y0128287D01*
X0113279Y0129885D02*
X0115447Y0129885D01*
X0115000Y0131484D02*
X0114878Y0131484D01*
X0115293Y0160257D02*
X0113651Y0160257D01*
X0151164Y0158659D02*
X0151204Y0158659D01*
X0166800Y0176800D02*
X0186800Y0176800D01*
X0186045Y0179439D02*
X0168947Y0179439D01*
D19*
X0166800Y0176800D03*
X0151800Y0141800D03*
X0126800Y0136800D03*
X0111800Y0176800D03*
X0061800Y0176800D03*
X0181800Y0141800D03*
X0106800Y0051800D03*
X0081800Y0026800D03*
X0041800Y0046800D03*
M02*
